<svg xmlns="http://www.w3.org/2000/svg" xmlns:xlink="http://www.w3.org/1999/xlink" width="500" zoomAndPan="magnify" viewBox="0 0 375 374.999991" height="500" preserveAspectRatio="xMidYMid meet" version="1.0"><defs><clipPath id="3b8bd6aaec"><path d="M 112.5 121.875 L 262 121.875 L 262 253.125 L 112.5 253.125 Z M 112.5 121.875 " clip-rule="nonzero"/></clipPath></defs><g clip-path="url(#3b8bd6aaec)"><path fill="#707cfc" d="M 261.292969 220.277344 L 261.292969 253.078125 L 177.953125 253.078125 C 153.671875 253.078125 132.46875 239.886719 121.125 220.277344 C 119.476562 217.425781 118.035156 214.433594 116.824219 211.332031 C 114.445312 205.246094 112.953125 198.71875 112.5 191.910156 L 112.5 183.042969 C 112.597656 181.523438 112.753906 180.019531 112.957031 178.53125 C 113.371094 175.476562 113.996094 172.488281 114.820312 169.585938 C 122.605469 142.050781 147.921875 121.875 177.953125 121.875 C 207.980469 121.875 233.292969 142.050781 241.082031 169.585938 L 205.445312 169.585938 C 199.59375 160.609375 189.46875 154.675781 177.953125 154.675781 C 166.4375 154.675781 156.308594 160.609375 150.457031 169.585938 C 148.675781 172.3125 147.292969 175.320312 146.386719 178.53125 C 145.582031 181.375 145.152344 184.375 145.152344 187.476562 C 145.152344 196.878906 149.105469 205.351562 155.445312 211.332031 C 161.320312 216.878906 169.238281 220.277344 177.953125 220.277344 Z M 261.292969 220.277344 " fill-opacity="1" fill-rule="nonzero"/></g><path fill="#707cfc" d="M 261.292969 178.53125 L 261.292969 211.332031 L 200.457031 211.332031 C 206.796875 205.351562 210.753906 196.878906 210.753906 187.476562 C 210.753906 184.375 210.324219 181.375 209.519531 178.53125 Z M 261.292969 178.53125 " fill-opacity="1" fill-rule="nonzero"/></svg>