<svg xmlns="http://www.w3.org/2000/svg" xmlns:xlink="http://www.w3.org/1999/xlink" width="500" zoomAndPan="magnify" viewBox="0 0 375 374.999991" height="500" preserveAspectRatio="xMidYMid meet" version="1.0"><defs><clipPath id="1ab4b209dc"><path d="M 112.5 112.5 L 262.5 112.5 L 262.5 262.5 L 112.5 262.5 Z M 112.5 112.5 " clip-rule="nonzero"/></clipPath></defs><g clip-path="url(#1ab4b209dc)"><path fill="#707cfc" d="M 250.5 196.5 L 247.5 196.5 L 247.5 154.5 C 247.5 152.851562 246.148438 151.5 244.5 151.5 C 242.851562 151.5 241.5 152.851562 241.5 154.5 L 241.5 196.5 L 133.5 196.5 L 133.5 142.5 L 154.5 142.5 C 156.148438 142.5 157.5 141.148438 157.5 139.5 L 157.5 118.5 L 241.5 118.5 L 241.5 130.5 C 241.5 132.148438 242.851562 133.5 244.5 133.5 C 246.148438 133.5 247.5 132.148438 247.5 130.5 L 247.5 115.5 C 247.5 113.851562 246.148438 112.5 244.5 112.5 L 154.5 112.5 C 153.691406 112.5 152.941406 112.828125 152.371094 113.371094 L 128.371094 137.371094 C 127.828125 137.941406 127.5 138.691406 127.5 139.5 L 127.5 196.5 L 124.5 196.5 C 117.871094 196.5 112.5 201.871094 112.5 208.5 L 112.5 250.5 C 112.5 257.128906 117.871094 262.5 124.5 262.5 L 145.5 262.5 C 147.148438 262.5 148.5 261.148438 148.5 259.5 L 148.5 244.5 L 226.5 244.5 L 226.5 259.5 C 226.5 261.148438 227.851562 262.5 229.5 262.5 L 250.5 262.5 C 257.128906 262.5 262.5 257.128906 262.5 250.5 L 262.5 208.5 C 262.5 201.871094 257.128906 196.5 250.5 196.5 Z M 151.5 122.730469 L 151.5 136.5 L 137.730469 136.5 Z M 142.5 256.5 L 124.5 256.5 C 121.199219 256.5 118.5 253.800781 118.5 250.5 C 118.5 247.199219 121.199219 244.5 124.5 244.5 L 142.5 244.5 Z M 250.5 256.5 L 232.5 256.5 L 232.5 244.5 L 250.5 244.5 C 253.800781 244.5 256.5 247.199219 256.5 250.5 C 256.5 253.800781 253.800781 256.5 250.5 256.5 Z M 256.5 240.179688 C 254.730469 239.128906 252.691406 238.5 250.5 238.5 L 124.5 238.5 C 122.308594 238.5 120.269531 239.128906 118.5 240.179688 L 118.5 208.5 C 118.5 205.199219 121.199219 202.5 124.5 202.5 L 250.5 202.5 C 253.800781 202.5 256.5 205.199219 256.5 208.5 Z M 256.5 240.179688 " fill-opacity="1" fill-rule="nonzero"/></g><path fill="#707cfc" d="M 172.5 232.5 L 178.5 232.5 C 180.15625 232.5 181.5 231.15625 181.5 229.5 C 181.5 227.839844 180.15625 226.5 178.5 226.5 L 172.5 226.5 C 169.191406 226.5 166.5 223.808594 166.5 220.5 C 166.5 217.191406 169.191406 214.5 172.5 214.5 L 178.5 214.5 C 180.15625 214.5 181.5 213.15625 181.5 211.5 C 181.5 209.839844 180.15625 208.5 178.5 208.5 L 172.5 208.5 C 165.882812 208.5 160.5 213.882812 160.5 220.5 C 160.5 227.117188 165.882812 232.5 172.5 232.5 Z M 172.5 232.5 " fill-opacity="1" fill-rule="nonzero"/><path fill="#707cfc" d="M 190.5 222 C 188.839844 222 187.5 223.339844 187.5 225 C 187.5 226.65625 188.839844 228 190.5 228 L 190.707031 228 L 190.539062 229.007812 C 190.269531 230.640625 191.371094 232.1875 193.007812 232.457031 C 194.617188 232.742188 196.195312 231.59375 196.457031 229.992188 L 196.789062 228 L 202.707031 228 L 202.539062 229.007812 C 202.269531 230.640625 203.371094 232.1875 205.007812 232.457031 C 206.617188 232.742188 208.195312 231.59375 208.457031 229.992188 L 208.789062 228 L 211.5 228 C 213.15625 228 214.5 226.65625 214.5 225 C 214.5 223.339844 213.15625 222 211.5 222 L 209.792969 222 L 210.289062 219 L 211.5 219 C 213.15625 219 214.5 217.65625 214.5 216 C 214.5 214.339844 213.15625 213 211.5 213 L 211.292969 213 L 211.457031 211.992188 C 211.730469 210.359375 210.625 208.8125 208.992188 208.539062 C 207.355469 208.246094 205.8125 209.371094 205.539062 211.007812 L 205.210938 213 L 199.292969 213 L 199.457031 211.992188 C 199.730469 210.359375 198.625 208.8125 196.992188 208.539062 C 195.359375 208.246094 193.808594 209.371094 193.539062 211.007812 L 193.210938 213 L 190.5 213 C 188.839844 213 187.5 214.339844 187.5 216 C 187.5 217.65625 188.839844 219 190.5 219 L 192.207031 219 L 191.710938 222 Z M 198.289062 219 L 204.207031 219 L 203.710938 222 L 197.792969 222 Z M 198.289062 219 " fill-opacity="1" fill-rule="nonzero"/><path fill="#707cfc" d="M 232.5 139.5 C 232.5 137.839844 231.15625 136.5 229.5 136.5 L 169.5 136.5 C 167.839844 136.5 166.5 137.839844 166.5 139.5 C 166.5 141.15625 167.839844 142.5 169.5 142.5 L 229.5 142.5 C 231.15625 142.5 232.5 141.15625 232.5 139.5 Z M 232.5 139.5 " fill-opacity="1" fill-rule="nonzero"/><path fill="#707cfc" d="M 169.5 130.5 L 205.5 130.5 C 207.15625 130.5 208.5 129.15625 208.5 127.5 C 208.5 125.839844 207.15625 124.5 205.5 124.5 L 169.5 124.5 C 167.839844 124.5 166.5 125.839844 166.5 127.5 C 166.5 129.15625 167.839844 130.5 169.5 130.5 Z M 169.5 130.5 " fill-opacity="1" fill-rule="nonzero"/><path fill="#707cfc" d="M 171.621094 155.378906 C 170.449219 154.207031 168.550781 154.207031 167.378906 155.378906 L 155.378906 167.378906 C 154.207031 168.550781 154.207031 170.449219 155.378906 171.621094 C 155.378906 171.621094 167.378906 183.621094 167.378906 183.621094 C 168.539062 184.78125 170.460938 184.78125 171.621094 183.621094 C 172.792969 182.449219 172.792969 180.550781 171.621094 179.378906 L 161.742188 169.5 L 171.621094 159.621094 C 172.792969 158.449219 172.792969 156.550781 171.621094 155.378906 Z M 171.621094 155.378906 " fill-opacity="1" fill-rule="nonzero"/><path fill="#707cfc" d="M 203.378906 183.621094 C 204.539062 184.78125 206.460938 184.78125 207.621094 183.621094 L 219.621094 171.621094 C 220.792969 170.449219 220.792969 168.550781 219.621094 167.378906 L 207.621094 155.378906 C 206.449219 154.207031 204.550781 154.207031 203.378906 155.378906 C 202.207031 156.550781 202.207031 158.449219 203.378906 159.621094 L 213.257812 169.5 L 203.378906 179.378906 C 202.207031 180.550781 202.207031 182.449219 203.378906 183.621094 Z M 203.378906 183.621094 " fill-opacity="1" fill-rule="nonzero"/><path fill="#707cfc" d="M 190.65625 150.550781 L 178.65625 186.550781 C 178.128906 188.125 178.980469 189.824219 180.550781 190.34375 C 182.105469 190.863281 183.828125 189.996094 184.34375 188.449219 L 196.34375 152.449219 C 196.867188 150.875 196.019531 149.175781 194.449219 148.65625 C 192.867188 148.128906 191.179688 148.980469 190.65625 150.550781 Z M 190.65625 150.550781 " fill-opacity="1" fill-rule="nonzero"/><path fill="#707cfc" d="M 247.5 142.5 C 247.5 142.898438 247.425781 143.28125 247.273438 143.648438 C 247.121094 144.015625 246.902344 144.339844 246.621094 144.621094 C 246.339844 144.902344 246.015625 145.121094 245.648438 145.273438 C 245.28125 145.425781 244.898438 145.5 244.5 145.5 C 244.101562 145.5 243.71875 145.425781 243.351562 145.273438 C 242.984375 145.121094 242.660156 144.902344 242.378906 144.621094 C 242.097656 144.339844 241.878906 144.015625 241.726562 143.648438 C 241.574219 143.28125 241.5 142.898438 241.5 142.5 C 241.5 142.101562 241.574219 141.71875 241.726562 141.351562 C 241.878906 140.984375 242.097656 140.660156 242.378906 140.378906 C 242.660156 140.097656 242.984375 139.878906 243.351562 139.726562 C 243.71875 139.574219 244.101562 139.5 244.5 139.5 C 244.898438 139.5 245.28125 139.574219 245.648438 139.726562 C 246.015625 139.878906 246.339844 140.097656 246.621094 140.378906 C 246.902344 140.660156 247.121094 140.984375 247.273438 141.351562 C 247.425781 141.71875 247.5 142.101562 247.5 142.5 Z M 247.5 142.5 " fill-opacity="1" fill-rule="nonzero"/></svg>