<svg xmlns="http://www.w3.org/2000/svg" xmlns:xlink="http://www.w3.org/1999/xlink" width="500" zoomAndPan="magnify" viewBox="0 0 375 374.999991" height="500" preserveAspectRatio="xMidYMid meet" version="1.0"><defs><clipPath id="7fe5ad75e7"><path d="M 134.453125 124.5 L 264.203125 124.5 L 264.203125 274.5 L 134.453125 274.5 Z M 134.453125 124.5 " clip-rule="nonzero"/></clipPath></defs><path fill="#707cfc" d="M 227 224.5 C 226.671875 224.5 226.347656 224.46875 226.023438 224.402344 C 225.703125 224.339844 225.390625 224.246094 225.085938 224.121094 C 224.78125 223.992188 224.496094 223.839844 224.222656 223.65625 C 223.949219 223.476562 223.695312 223.269531 223.464844 223.035156 C 223.230469 222.804688 223.023438 222.550781 222.84375 222.277344 C 222.660156 222.003906 222.503906 221.714844 222.378906 221.414062 C 222.253906 221.109375 222.160156 220.796875 222.09375 220.476562 C 222.03125 220.152344 222 219.828125 222 219.5 L 222 214.5 C 222 213.84375 221.933594 213.191406 221.808594 212.550781 C 221.679688 211.90625 221.488281 211.28125 221.238281 210.671875 C 220.988281 210.066406 220.679688 209.488281 220.3125 208.945312 C 219.949219 208.398438 219.535156 207.894531 219.070312 207.429688 C 218.605469 206.964844 218.101562 206.550781 217.554688 206.183594 C 217.007812 205.820312 216.433594 205.511719 215.828125 205.261719 C 215.21875 205.011719 214.59375 204.820312 213.949219 204.691406 C 213.304688 204.5625 212.65625 204.5 212 204.5 C 211.667969 204.5 211.347656 204.5625 211.042969 204.691406 C 210.738281 204.816406 210.464844 204.996094 210.230469 205.230469 C 209.996094 205.464844 209.816406 205.738281 209.691406 206.042969 C 209.5625 206.347656 209.5 206.667969 209.5 207 C 209.5 207.332031 209.5625 207.652344 209.691406 207.957031 C 209.816406 208.261719 209.996094 208.535156 210.230469 208.769531 C 210.464844 209.003906 210.738281 209.183594 211.042969 209.308594 C 211.347656 209.4375 211.667969 209.5 212 209.5 C 212.328125 209.5 212.652344 209.53125 212.976562 209.597656 C 213.296875 209.660156 213.609375 209.753906 213.914062 209.878906 C 214.214844 210.007812 214.503906 210.160156 214.777344 210.34375 C 215.050781 210.523438 215.304688 210.730469 215.535156 210.964844 C 215.765625 211.195312 215.972656 211.449219 216.15625 211.722656 C 216.339844 211.996094 216.492188 212.285156 216.617188 212.585938 C 216.746094 212.890625 216.839844 213.203125 216.902344 213.523438 C 216.96875 213.847656 217 214.171875 217 214.5 L 217 219.5 C 217 220.9375 217.292969 222.308594 217.886719 223.617188 C 218.476562 224.925781 219.3125 226.050781 220.394531 227 C 219.3125 227.949219 218.476562 229.074219 217.886719 230.382812 C 217.292969 231.691406 217 233.0625 217 234.5 L 217 239.5 C 217 239.828125 216.96875 240.152344 216.902344 240.476562 C 216.839844 240.796875 216.746094 241.109375 216.617188 241.414062 C 216.492188 241.714844 216.339844 242.003906 216.15625 242.277344 C 215.972656 242.550781 215.765625 242.804688 215.535156 243.035156 C 215.304688 243.269531 215.050781 243.476562 214.777344 243.65625 C 214.503906 243.839844 214.214844 243.992188 213.914062 244.121094 C 213.609375 244.246094 213.296875 244.339844 212.976562 244.402344 C 212.652344 244.46875 212.328125 244.5 212 244.5 C 211.667969 244.5 211.347656 244.5625 211.042969 244.691406 C 210.738281 244.816406 210.464844 244.996094 210.230469 245.230469 C 209.996094 245.464844 209.816406 245.738281 209.691406 246.042969 C 209.5625 246.347656 209.5 246.667969 209.5 247 C 209.5 247.332031 209.5625 247.648438 209.691406 247.957031 C 209.816406 248.261719 209.996094 248.535156 210.230469 248.769531 C 210.464844 249.003906 210.738281 249.183594 211.042969 249.308594 C 211.347656 249.4375 211.667969 249.5 212 249.5 C 212.65625 249.5 213.304688 249.4375 213.949219 249.308594 C 214.59375 249.179688 215.21875 248.988281 215.828125 248.738281 C 216.433594 248.488281 217.007812 248.179688 217.554688 247.816406 C 218.101562 247.449219 218.605469 247.035156 219.070312 246.570312 C 219.535156 246.105469 219.949219 245.601562 220.3125 245.054688 C 220.679688 244.507812 220.988281 243.933594 221.238281 243.328125 C 221.488281 242.71875 221.679688 242.09375 221.808594 241.449219 C 221.933594 240.808594 222 240.15625 222 239.5 L 222 234.5 C 222 234.171875 222.03125 233.847656 222.09375 233.523438 C 222.160156 233.203125 222.253906 232.890625 222.378906 232.585938 C 222.503906 232.285156 222.660156 231.996094 222.84375 231.722656 C 223.023438 231.449219 223.230469 231.195312 223.464844 230.964844 C 223.695312 230.730469 223.949219 230.523438 224.222656 230.34375 C 224.496094 230.160156 224.78125 230.007812 225.085938 229.878906 C 225.390625 229.753906 225.703125 229.660156 226.023438 229.597656 C 226.347656 229.53125 226.671875 229.5 227 229.5 C 227.332031 229.5 227.648438 229.4375 227.957031 229.308594 C 228.261719 229.183594 228.53125 229.003906 228.765625 228.769531 C 229 228.535156 229.183594 228.261719 229.308594 227.957031 C 229.4375 227.648438 229.5 227.332031 229.5 227 C 229.5 226.667969 229.4375 226.347656 229.308594 226.042969 C 229.183594 225.738281 229 225.464844 228.765625 225.230469 C 228.53125 224.996094 228.261719 224.816406 227.957031 224.691406 C 227.648438 224.5625 227.332031 224.5 227 224.5 Z M 227 224.5 " fill-opacity="1" fill-rule="nonzero"/><path fill="#707cfc" d="M 172 214.5 C 172 214.171875 172.03125 213.847656 172.09375 213.523438 C 172.160156 213.203125 172.253906 212.890625 172.378906 212.585938 C 172.503906 212.285156 172.660156 211.996094 172.84375 211.722656 C 173.023438 211.449219 173.230469 211.195312 173.464844 210.964844 C 173.695312 210.730469 173.949219 210.523438 174.222656 210.34375 C 174.496094 210.160156 174.78125 210.007812 175.085938 209.878906 C 175.390625 209.753906 175.703125 209.660156 176.023438 209.597656 C 176.347656 209.53125 176.671875 209.5 177 209.5 C 177.332031 209.5 177.648438 209.4375 177.957031 209.308594 C 178.261719 209.183594 178.53125 209.003906 178.765625 208.769531 C 179 208.535156 179.183594 208.261719 179.308594 207.957031 C 179.4375 207.652344 179.5 207.332031 179.5 207 C 179.5 206.667969 179.4375 206.347656 179.308594 206.042969 C 179.183594 205.738281 179 205.464844 178.765625 205.230469 C 178.53125 204.996094 178.261719 204.816406 177.957031 204.691406 C 177.648438 204.5625 177.332031 204.5 177 204.5 C 176.34375 204.5 175.691406 204.5625 175.046875 204.691406 C 174.40625 204.820312 173.777344 205.011719 173.171875 205.261719 C 172.566406 205.511719 171.988281 205.820312 171.445312 206.183594 C 170.898438 206.550781 170.394531 206.964844 169.929688 207.429688 C 169.464844 207.894531 169.050781 208.398438 168.683594 208.945312 C 168.320312 209.488281 168.011719 210.066406 167.761719 210.671875 C 167.507812 211.28125 167.320312 211.90625 167.191406 212.550781 C 167.0625 213.191406 167 213.84375 167 214.5 L 167 219.5 C 167 219.828125 166.96875 220.152344 166.902344 220.476562 C 166.839844 220.796875 166.746094 221.109375 166.617188 221.414062 C 166.492188 221.714844 166.339844 222.003906 166.15625 222.277344 C 165.972656 222.550781 165.765625 222.804688 165.535156 223.035156 C 165.304688 223.269531 165.050781 223.476562 164.777344 223.65625 C 164.503906 223.839844 164.214844 223.992188 163.914062 224.121094 C 163.609375 224.246094 163.296875 224.339844 162.976562 224.402344 C 162.652344 224.46875 162.328125 224.5 162 224.5 C 161.667969 224.5 161.347656 224.5625 161.042969 224.691406 C 160.738281 224.816406 160.464844 224.996094 160.230469 225.230469 C 159.996094 225.464844 159.816406 225.738281 159.691406 226.042969 C 159.5625 226.347656 159.5 226.667969 159.5 227 C 159.5 227.332031 159.5625 227.648438 159.691406 227.957031 C 159.816406 228.261719 159.996094 228.535156 160.230469 228.769531 C 160.464844 229.003906 160.738281 229.183594 161.042969 229.308594 C 161.347656 229.4375 161.667969 229.5 162 229.5 C 162.328125 229.5 162.652344 229.53125 162.976562 229.597656 C 163.296875 229.660156 163.609375 229.753906 163.914062 229.878906 C 164.214844 230.007812 164.503906 230.160156 164.777344 230.34375 C 165.050781 230.523438 165.304688 230.730469 165.535156 230.964844 C 165.765625 231.195312 165.972656 231.449219 166.15625 231.722656 C 166.339844 231.996094 166.492188 232.285156 166.617188 232.585938 C 166.746094 232.890625 166.839844 233.203125 166.902344 233.523438 C 166.96875 233.847656 167 234.171875 167 234.5 L 167 239.5 C 167 240.15625 167.0625 240.808594 167.191406 241.449219 C 167.320312 242.09375 167.507812 242.71875 167.761719 243.328125 C 168.011719 243.933594 168.320312 244.507812 168.683594 245.054688 C 169.050781 245.601562 169.464844 246.105469 169.929688 246.570312 C 170.394531 247.035156 170.898438 247.449219 171.445312 247.816406 C 171.988281 248.179688 172.566406 248.488281 173.171875 248.738281 C 173.777344 248.988281 174.40625 249.179688 175.046875 249.308594 C 175.691406 249.4375 176.34375 249.5 177 249.5 C 177.332031 249.5 177.648438 249.4375 177.957031 249.308594 C 178.261719 249.183594 178.53125 249.003906 178.765625 248.769531 C 179 248.535156 179.183594 248.261719 179.308594 247.957031 C 179.4375 247.648438 179.5 247.332031 179.5 247 C 179.5 246.667969 179.4375 246.347656 179.308594 246.042969 C 179.183594 245.738281 179 245.464844 178.765625 245.230469 C 178.53125 244.996094 178.261719 244.816406 177.957031 244.691406 C 177.648438 244.5625 177.332031 244.5 177 244.5 C 176.671875 244.5 176.347656 244.46875 176.023438 244.402344 C 175.703125 244.339844 175.390625 244.246094 175.085938 244.121094 C 174.78125 243.992188 174.496094 243.839844 174.222656 243.65625 C 173.949219 243.476562 173.695312 243.269531 173.464844 243.035156 C 173.230469 242.804688 173.023438 242.550781 172.84375 242.277344 C 172.660156 242.003906 172.503906 241.714844 172.378906 241.414062 C 172.253906 241.109375 172.160156 240.796875 172.09375 240.476562 C 172.03125 240.152344 172 239.828125 172 239.5 L 172 234.5 C 172 233.0625 171.703125 231.691406 171.113281 230.382812 C 170.519531 229.074219 169.683594 227.949219 168.605469 227 C 169.683594 226.050781 170.519531 224.925781 171.113281 223.617188 C 171.703125 222.308594 172 220.9375 172 219.5 Z M 172 214.5 " fill-opacity="1" fill-rule="nonzero"/><g clip-path="url(#7fe5ad75e7)"><path fill="#707cfc" d="M 262 124.5 L 147 124.5 C 146.667969 124.5 146.347656 124.5625 146.042969 124.691406 C 145.738281 124.816406 145.464844 124.996094 145.230469 125.230469 C 144.996094 125.464844 144.816406 125.738281 144.691406 126.042969 C 144.5625 126.347656 144.5 126.667969 144.5 127 L 144.5 134.5 L 137 134.5 C 136.667969 134.5 136.347656 134.5625 136.042969 134.691406 C 135.738281 134.816406 135.464844 134.996094 135.230469 135.230469 C 134.996094 135.464844 134.816406 135.738281 134.691406 136.042969 C 134.5625 136.347656 134.5 136.667969 134.5 137 L 134.5 272 C 134.5 272.332031 134.5625 272.648438 134.691406 272.957031 C 134.816406 273.261719 134.996094 273.535156 135.230469 273.769531 C 135.464844 274.003906 135.738281 274.183594 136.042969 274.308594 C 136.347656 274.4375 136.667969 274.5 137 274.5 L 252 274.5 C 252.332031 274.5 252.648438 274.4375 252.957031 274.308594 C 253.261719 274.183594 253.53125 274.003906 253.765625 273.769531 C 254 273.535156 254.183594 273.261719 254.308594 272.957031 C 254.4375 272.648438 254.5 272.332031 254.5 272 L 254.5 264.5 L 262 264.5 C 262.332031 264.5 262.648438 264.4375 262.957031 264.308594 C 263.261719 264.183594 263.53125 264.003906 263.765625 263.769531 C 264 263.535156 264.183594 263.261719 264.308594 262.957031 C 264.4375 262.648438 264.5 262.332031 264.5 262 L 264.5 127 C 264.5 126.667969 264.4375 126.347656 264.308594 126.042969 C 264.183594 125.738281 264 125.464844 263.765625 125.230469 C 263.53125 124.996094 263.261719 124.816406 262.957031 124.691406 C 262.648438 124.5625 262.332031 124.5 262 124.5 Z M 147 157 C 147 156.179688 147.078125 155.367188 147.238281 154.5625 C 147.398438 153.757812 147.636719 152.976562 147.949219 152.214844 C 148.265625 151.457031 148.648438 150.738281 149.105469 150.054688 C 149.5625 149.371094 150.082031 148.742188 150.660156 148.160156 C 151.242188 147.582031 151.871094 147.0625 152.554688 146.605469 C 153.238281 146.152344 153.957031 145.765625 154.714844 145.453125 C 155.472656 145.136719 156.253906 144.898438 157.0625 144.738281 C 157.867188 144.578125 158.679688 144.5 159.5 144.5 L 164.5 144.5 C 164.832031 144.5 165.148438 144.5625 165.457031 144.691406 C 165.761719 144.816406 166.03125 144.996094 166.265625 145.230469 C 166.5 145.464844 166.683594 145.738281 166.808594 146.042969 C 166.9375 146.347656 167 146.667969 167 147 C 167 147.332031 166.9375 147.652344 166.808594 147.957031 C 166.683594 148.261719 166.5 148.535156 166.265625 148.769531 C 166.03125 149.003906 165.761719 149.183594 165.457031 149.308594 C 165.148438 149.4375 164.832031 149.5 164.5 149.5 L 159.5 149.5 C 159.007812 149.5 158.519531 149.550781 158.039062 149.648438 C 157.554688 149.746094 157.085938 149.886719 156.632812 150.078125 C 156.179688 150.265625 155.746094 150.496094 155.335938 150.769531 C 154.929688 151.042969 154.550781 151.355469 154.203125 151.703125 C 153.855469 152.050781 153.542969 152.429688 153.269531 152.839844 C 152.996094 153.246094 152.765625 153.679688 152.574219 154.132812 C 152.386719 154.585938 152.246094 155.054688 152.148438 155.539062 C 152.050781 156.019531 152 156.507812 152 157 L 152 162 C 152 162.492188 152.050781 162.980469 152.148438 163.460938 C 152.246094 163.945312 152.386719 164.414062 152.574219 164.867188 C 152.765625 165.320312 152.996094 165.753906 153.269531 166.160156 C 153.542969 166.570312 153.855469 166.949219 154.203125 167.296875 C 154.550781 167.644531 154.929688 167.957031 155.335938 168.230469 C 155.746094 168.503906 156.179688 168.734375 156.632812 168.921875 C 157.085938 169.113281 157.554688 169.253906 158.039062 169.351562 C 158.519531 169.449219 159.007812 169.5 159.5 169.5 L 164.5 169.5 C 164.832031 169.5 165.148438 169.5625 165.457031 169.691406 C 165.761719 169.816406 166.03125 169.996094 166.265625 170.230469 C 166.5 170.464844 166.683594 170.738281 166.808594 171.042969 C 166.9375 171.347656 167 171.667969 167 172 C 167 172.332031 166.9375 172.652344 166.808594 172.957031 C 166.683594 173.261719 166.5 173.535156 166.265625 173.769531 C 166.03125 174.003906 165.761719 174.183594 165.457031 174.308594 C 165.148438 174.4375 164.832031 174.5 164.5 174.5 L 159.5 174.5 C 158.679688 174.5 157.867188 174.417969 157.0625 174.261719 C 156.253906 174.101562 155.472656 173.863281 154.714844 173.546875 C 153.957031 173.234375 153.238281 172.847656 152.554688 172.394531 C 151.871094 171.9375 151.242188 171.417969 150.660156 170.839844 C 150.082031 170.257812 149.5625 169.628906 149.105469 168.945312 C 148.648438 168.261719 148.265625 167.542969 147.949219 166.785156 C 147.636719 166.023438 147.398438 165.242188 147.238281 164.4375 C 147.078125 163.632812 147 162.820312 147 162 Z M 249.5 269.5 L 139.5 269.5 L 139.5 184.5 L 249.5 184.5 Z M 183.25 162 L 180.75 162 C 180.175781 162 179.605469 161.945312 179.042969 161.832031 C 178.480469 161.71875 177.933594 161.554688 177.402344 161.332031 C 176.871094 161.113281 176.367188 160.84375 175.886719 160.523438 C 175.410156 160.207031 174.96875 159.84375 174.5625 159.4375 C 174.15625 159.03125 173.792969 158.589844 173.472656 158.109375 C 173.15625 157.632812 172.886719 157.128906 172.664062 156.597656 C 172.445312 156.066406 172.28125 155.519531 172.167969 154.957031 C 172.054688 154.394531 172 153.824219 172 153.25 C 172 152.675781 172.054688 152.105469 172.167969 151.542969 C 172.28125 150.980469 172.445312 150.433594 172.664062 149.902344 C 172.886719 149.371094 173.15625 148.867188 173.472656 148.390625 C 173.792969 147.910156 174.15625 147.46875 174.5625 147.0625 C 174.96875 146.65625 175.410156 146.292969 175.886719 145.976562 C 176.367188 145.65625 176.871094 145.386719 177.402344 145.167969 C 177.933594 144.945312 178.480469 144.78125 179.042969 144.667969 C 179.605469 144.554688 180.175781 144.5 180.75 144.5 L 184.5 144.5 C 184.992188 144.5 185.480469 144.550781 185.960938 144.648438 C 186.445312 144.746094 186.910156 144.886719 187.367188 145.078125 C 187.820312 145.265625 188.253906 145.496094 188.660156 145.769531 C 189.070312 146.042969 189.449219 146.355469 189.796875 146.703125 C 190.144531 147.050781 190.457031 147.429688 190.730469 147.839844 C 191.003906 148.246094 191.234375 148.679688 191.421875 149.132812 C 191.613281 149.585938 191.753906 150.054688 191.851562 150.539062 C 191.949219 151.019531 191.996094 151.507812 192 152 C 192 152.332031 191.9375 152.652344 191.808594 152.957031 C 191.683594 153.261719 191.5 153.535156 191.265625 153.769531 C 191.03125 154.003906 190.761719 154.183594 190.457031 154.308594 C 190.148438 154.4375 189.832031 154.5 189.5 154.5 C 189.167969 154.5 188.847656 154.4375 188.542969 154.308594 C 188.238281 154.183594 187.964844 154.003906 187.730469 153.769531 C 187.496094 153.535156 187.316406 153.261719 187.191406 152.957031 C 187.0625 152.652344 187 152.332031 187 152 C 187 151.667969 186.9375 151.347656 186.808594 151.042969 C 186.683594 150.738281 186.5 150.464844 186.265625 150.230469 C 186.03125 149.996094 185.761719 149.816406 185.457031 149.691406 C 185.148438 149.5625 184.832031 149.5 184.5 149.5 L 180.75 149.5 C 180.253906 149.5 179.773438 149.59375 179.3125 149.785156 C 178.855469 149.976562 178.449219 150.246094 178.097656 150.597656 C 177.746094 150.949219 177.476562 151.355469 177.285156 151.816406 C 177.09375 152.273438 177 152.753906 177 153.25 C 177 153.746094 177.09375 154.226562 177.285156 154.683594 C 177.476562 155.144531 177.746094 155.550781 178.097656 155.902344 C 178.449219 156.253906 178.855469 156.523438 179.3125 156.714844 C 179.773438 156.90625 180.253906 157 180.75 157 L 183.25 157 C 183.824219 157 184.394531 157.054688 184.957031 157.167969 C 185.519531 157.28125 186.066406 157.445312 186.597656 157.667969 C 187.128906 157.886719 187.632812 158.15625 188.109375 158.476562 C 188.589844 158.792969 189.03125 159.15625 189.4375 159.5625 C 189.84375 159.96875 190.207031 160.410156 190.523438 160.890625 C 190.84375 161.367188 191.113281 161.871094 191.332031 162.402344 C 191.554688 162.933594 191.71875 163.480469 191.832031 164.042969 C 191.945312 164.605469 192 165.175781 192 165.75 C 192 166.324219 191.945312 166.894531 191.832031 167.457031 C 191.71875 168.019531 191.554688 168.566406 191.332031 169.097656 C 191.113281 169.628906 190.84375 170.132812 190.523438 170.609375 C 190.207031 171.089844 189.84375 171.53125 189.4375 171.9375 C 189.03125 172.34375 188.589844 172.707031 188.109375 173.023438 C 187.632812 173.34375 187.128906 173.613281 186.597656 173.832031 C 186.066406 174.054688 185.519531 174.21875 184.957031 174.332031 C 184.394531 174.445312 183.824219 174.5 183.25 174.5 L 179.5 174.5 C 179.007812 174.5 178.519531 174.449219 178.039062 174.351562 C 177.554688 174.253906 177.085938 174.113281 176.632812 173.921875 C 176.179688 173.734375 175.746094 173.503906 175.335938 173.230469 C 174.929688 172.957031 174.550781 172.644531 174.203125 172.296875 C 173.855469 171.949219 173.542969 171.570312 173.269531 171.160156 C 172.996094 170.753906 172.765625 170.320312 172.574219 169.867188 C 172.386719 169.414062 172.246094 168.945312 172.148438 168.460938 C 172.050781 167.980469 172 167.492188 172 167 C 172 166.667969 172.0625 166.347656 172.191406 166.042969 C 172.316406 165.738281 172.496094 165.464844 172.730469 165.230469 C 172.964844 164.996094 173.238281 164.816406 173.542969 164.691406 C 173.847656 164.5625 174.167969 164.5 174.5 164.5 C 174.832031 164.5 175.148438 164.5625 175.457031 164.691406 C 175.761719 164.816406 176.03125 164.996094 176.265625 165.230469 C 176.5 165.464844 176.683594 165.738281 176.808594 166.042969 C 176.9375 166.347656 177 166.667969 177 167 C 177 167.332031 177.0625 167.652344 177.191406 167.957031 C 177.316406 168.261719 177.496094 168.535156 177.730469 168.769531 C 177.964844 169.003906 178.238281 169.183594 178.542969 169.308594 C 178.847656 169.4375 179.167969 169.5 179.5 169.5 L 183.25 169.5 C 183.746094 169.5 184.226562 169.40625 184.683594 169.214844 C 185.144531 169.023438 185.550781 168.753906 185.902344 168.402344 C 186.253906 168.050781 186.523438 167.644531 186.714844 167.183594 C 186.902344 166.726562 187 166.246094 187 165.75 C 187 165.253906 186.902344 164.773438 186.714844 164.316406 C 186.523438 163.855469 186.253906 163.449219 185.902344 163.097656 C 185.550781 162.746094 185.144531 162.476562 184.683594 162.285156 C 184.226562 162.09375 183.746094 162 183.25 162 Z M 208.25 162 L 205.75 162 C 205.175781 162 204.605469 161.945312 204.042969 161.832031 C 203.480469 161.71875 202.933594 161.554688 202.402344 161.332031 C 201.871094 161.113281 201.367188 160.84375 200.886719 160.523438 C 200.410156 160.207031 199.96875 159.84375 199.5625 159.4375 C 199.15625 159.03125 198.792969 158.589844 198.472656 158.109375 C 198.15625 157.632812 197.886719 157.128906 197.664062 156.597656 C 197.445312 156.066406 197.28125 155.519531 197.167969 154.957031 C 197.054688 154.394531 197 153.824219 197 153.25 C 197 152.675781 197.054688 152.105469 197.167969 151.542969 C 197.28125 150.980469 197.445312 150.433594 197.664062 149.902344 C 197.886719 149.371094 198.15625 148.867188 198.472656 148.390625 C 198.792969 147.910156 199.15625 147.46875 199.5625 147.0625 C 199.96875 146.65625 200.410156 146.292969 200.886719 145.976562 C 201.367188 145.65625 201.871094 145.386719 202.402344 145.167969 C 202.933594 144.945312 203.480469 144.78125 204.042969 144.667969 C 204.605469 144.554688 205.175781 144.5 205.75 144.5 L 209.5 144.5 C 209.992188 144.5 210.480469 144.550781 210.960938 144.648438 C 211.445312 144.746094 211.910156 144.886719 212.367188 145.078125 C 212.820312 145.265625 213.253906 145.496094 213.660156 145.769531 C 214.070312 146.042969 214.449219 146.355469 214.796875 146.703125 C 215.144531 147.050781 215.457031 147.429688 215.730469 147.839844 C 216.003906 148.246094 216.234375 148.679688 216.421875 149.132812 C 216.613281 149.585938 216.753906 150.054688 216.851562 150.539062 C 216.949219 151.019531 216.996094 151.507812 217 152 C 217 152.332031 216.9375 152.652344 216.808594 152.957031 C 216.683594 153.261719 216.5 153.535156 216.265625 153.769531 C 216.03125 154.003906 215.761719 154.183594 215.457031 154.308594 C 215.148438 154.4375 214.832031 154.5 214.5 154.5 C 214.167969 154.5 213.847656 154.4375 213.542969 154.308594 C 213.238281 154.183594 212.964844 154.003906 212.730469 153.769531 C 212.496094 153.535156 212.316406 153.261719 212.191406 152.957031 C 212.0625 152.652344 212 152.332031 212 152 C 212 151.667969 211.9375 151.347656 211.808594 151.042969 C 211.683594 150.738281 211.5 150.464844 211.265625 150.230469 C 211.03125 149.996094 210.761719 149.816406 210.457031 149.691406 C 210.148438 149.5625 209.832031 149.5 209.5 149.5 L 205.75 149.5 C 205.253906 149.5 204.773438 149.59375 204.3125 149.785156 C 203.855469 149.976562 203.449219 150.246094 203.097656 150.597656 C 202.746094 150.949219 202.476562 151.355469 202.285156 151.816406 C 202.09375 152.273438 202 152.753906 202 153.25 C 202 153.746094 202.09375 154.226562 202.285156 154.683594 C 202.476562 155.144531 202.746094 155.550781 203.097656 155.902344 C 203.449219 156.253906 203.855469 156.523438 204.3125 156.714844 C 204.773438 156.90625 205.253906 157 205.75 157 L 208.25 157 C 208.824219 157 209.394531 157.054688 209.957031 157.167969 C 210.519531 157.28125 211.066406 157.445312 211.597656 157.667969 C 212.128906 157.886719 212.632812 158.15625 213.109375 158.476562 C 213.589844 158.792969 214.03125 159.15625 214.4375 159.5625 C 214.84375 159.96875 215.207031 160.410156 215.523438 160.890625 C 215.84375 161.367188 216.113281 161.871094 216.332031 162.402344 C 216.554688 162.933594 216.71875 163.480469 216.832031 164.042969 C 216.945312 164.605469 217 165.175781 217 165.75 C 217 166.324219 216.945312 166.894531 216.832031 167.457031 C 216.71875 168.019531 216.554688 168.566406 216.332031 169.097656 C 216.113281 169.628906 215.84375 170.132812 215.523438 170.609375 C 215.207031 171.089844 214.84375 171.53125 214.4375 171.9375 C 214.03125 172.34375 213.589844 172.707031 213.109375 173.023438 C 212.632812 173.34375 212.128906 173.613281 211.597656 173.832031 C 211.066406 174.054688 210.519531 174.21875 209.957031 174.332031 C 209.394531 174.445312 208.824219 174.5 208.25 174.5 L 204.5 174.5 C 204.007812 174.5 203.519531 174.449219 203.039062 174.351562 C 202.554688 174.253906 202.085938 174.113281 201.632812 173.921875 C 201.179688 173.734375 200.746094 173.503906 200.335938 173.230469 C 199.929688 172.957031 199.550781 172.644531 199.203125 172.296875 C 198.855469 171.949219 198.542969 171.570312 198.269531 171.160156 C 197.996094 170.753906 197.765625 170.320312 197.574219 169.867188 C 197.386719 169.414062 197.246094 168.945312 197.148438 168.460938 C 197.050781 167.980469 197 167.492188 197 167 C 197 166.667969 197.0625 166.347656 197.191406 166.042969 C 197.316406 165.738281 197.496094 165.464844 197.730469 165.230469 C 197.964844 164.996094 198.238281 164.816406 198.542969 164.691406 C 198.847656 164.5625 199.167969 164.5 199.5 164.5 C 199.832031 164.5 200.148438 164.5625 200.457031 164.691406 C 200.761719 164.816406 201.03125 164.996094 201.265625 165.230469 C 201.5 165.464844 201.683594 165.738281 201.808594 166.042969 C 201.9375 166.347656 202 166.667969 202 167 C 202 167.332031 202.0625 167.652344 202.191406 167.957031 C 202.316406 168.261719 202.496094 168.535156 202.730469 168.769531 C 202.964844 169.003906 203.238281 169.183594 203.542969 169.308594 C 203.847656 169.4375 204.167969 169.5 204.5 169.5 L 208.25 169.5 C 208.746094 169.5 209.226562 169.40625 209.683594 169.214844 C 210.144531 169.023438 210.550781 168.753906 210.902344 168.402344 C 211.253906 168.050781 211.523438 167.644531 211.714844 167.183594 C 211.902344 166.726562 212 166.246094 212 165.75 C 212 165.253906 211.902344 164.773438 211.714844 164.316406 C 211.523438 163.855469 211.253906 163.449219 210.902344 163.097656 C 210.550781 162.746094 210.144531 162.476562 209.683594 162.285156 C 209.226562 162.09375 208.746094 162 208.25 162 Z M 229.5 157 L 229.5 143.023438 L 245.972656 159.5 L 232 159.5 C 231.667969 159.5 231.347656 159.4375 231.042969 159.308594 C 230.738281 159.183594 230.464844 159.003906 230.230469 158.769531 C 229.996094 158.535156 229.816406 158.261719 229.691406 157.957031 C 229.5625 157.652344 229.5 157.332031 229.5 157 Z M 259.5 259.5 L 254.5 259.5 L 254.5 162 C 254.496094 161.3125 254.253906 160.71875 253.773438 160.226562 L 228.773438 135.226562 C 228.28125 134.746094 227.6875 134.503906 227 134.5 L 149.5 134.5 L 149.5 129.5 L 259.5 129.5 Z M 259.5 259.5 " fill-opacity="1" fill-rule="nonzero"/></g></svg>