<svg xmlns="http://www.w3.org/2000/svg" xmlns:xlink="http://www.w3.org/1999/xlink" width="500" zoomAndPan="magnify" viewBox="0 0 375 374.999991" height="500" preserveAspectRatio="xMidYMid meet" version="1.0"><defs><clipPath id="42ded01ab6"><path d="M 114 157 L 262.5 157 L 262.5 243 L 114 243 Z M 114 157 " clip-rule="nonzero"/></clipPath></defs><g clip-path="url(#42ded01ab6)"><path fill="#707cfc" d="M 164.433594 242.128906 C 147.371094 242.128906 134.234375 236.859375 125.394531 226.449219 C 116.914062 216.464844 112.714844 201.097656 114.945312 188.203125 C 115.203125 186.722656 116.488281 185.640625 117.988281 185.640625 L 214.414062 185.640625 C 217.082031 185.714844 219.242188 185.265625 220.851562 184.785156 C 217.691406 177.023438 219.550781 167.5625 223.402344 161.773438 L 225.464844 158.683594 C 226.40625 157.273438 228.300781 156.890625 229.726562 157.820312 L 232.832031 159.871094 C 238.042969 163.851562 241.253906 168.160156 242.671875 173.054688 C 248.023438 172.59375 254.519531 173.316406 258.191406 175.773438 L 261.128906 177.722656 C 262.417969 178.582031 262.875 180.265625 262.191406 181.65625 L 261.84375 182.363281 C 261.328125 183.4375 260.566406 184.976562 260.242188 185.554688 C 254.796875 195.84375 244.628906 197.042969 239.308594 197.128906 C 226.382812 226.171875 199.875 242.128906 164.433594 242.128906 Z M 120.679688 191.816406 C 119.65625 202.425781 123.289062 214.445312 130.09375 222.457031 C 137.714844 231.414062 149.265625 235.957031 164.433594 235.957031 C 197.992188 235.957031 222.851562 220.648438 234.425781 192.84375 C 234.914062 191.679688 236.140625 191.0625 237.332031 190.945312 C 243.382812 191.074219 250.808594 190.214844 254.800781 182.628906 C 254.828125 182.585938 254.863281 182.519531 254.890625 182.476562 C 255.007812 182.277344 255.222656 181.859375 255.457031 181.371094 L 254.757812 180.902344 C 252.554688 179.433594 246.140625 178.535156 240.816406 179.519531 C 240 179.667969 239.128906 179.480469 238.445312 178.988281 C 237.757812 178.492188 237.300781 177.742188 237.191406 176.90625 C 236.566406 172.4375 233.976562 168.511719 229.253906 164.894531 L 228.890625 164.660156 L 228.523438 165.199219 C 225.234375 170.136719 223.988281 178.988281 227.722656 184.667969 C 228.199219 185.390625 228.34375 186.277344 228.136719 187.117188 C 227.917969 187.957031 227.363281 188.667969 226.597656 189.074219 C 225.007812 189.933594 220.710938 191.914062 214.351562 191.800781 L 120.679688 191.800781 Z M 120.679688 191.816406 " fill-opacity="1" fill-rule="nonzero"/></g><path fill="#707cfc" d="M 213.117188 191.773438 L 123.617188 191.773438 C 121.914062 191.773438 120.53125 190.390625 120.53125 188.683594 L 120.53125 171.105469 C 120.53125 169.402344 121.914062 168.019531 123.617188 168.019531 L 213.117188 168.019531 C 214.820312 168.019531 216.203125 169.402344 216.203125 171.105469 L 216.203125 188.683594 C 216.203125 190.394531 214.820312 191.773438 213.117188 191.773438 Z M 126.703125 185.597656 L 210.03125 185.597656 L 210.03125 174.191406 L 126.703125 174.191406 Z M 126.703125 185.597656 " fill-opacity="1" fill-rule="nonzero"/><path fill="#707cfc" d="M 194.597656 174.191406 L 139.042969 174.191406 C 137.339844 174.191406 135.957031 172.808594 135.957031 171.105469 L 135.957031 153.523438 C 135.957031 151.820312 137.339844 150.4375 139.042969 150.4375 L 194.597656 150.4375 C 196.300781 150.4375 197.683594 151.820312 197.683594 153.523438 L 197.683594 171.109375 C 197.683594 172.816406 196.300781 174.191406 194.597656 174.191406 Z M 142.128906 168.019531 L 191.511719 168.019531 L 191.511719 156.609375 L 142.128906 156.609375 Z M 142.128906 168.019531 " fill-opacity="1" fill-rule="nonzero"/><path fill="#707cfc" d="M 194.597656 191.773438 L 176.082031 191.773438 C 174.375 191.773438 172.992188 190.390625 172.992188 188.683594 L 172.992188 135.9375 C 172.992188 134.234375 174.375 132.851562 176.082031 132.851562 L 194.597656 132.851562 C 196.300781 132.851562 197.683594 134.234375 197.683594 135.9375 L 197.683594 188.683594 C 197.683594 190.394531 196.300781 191.773438 194.597656 191.773438 Z M 179.167969 185.597656 L 191.511719 185.597656 L 191.511719 139.023438 L 179.167969 139.023438 Z M 179.167969 185.597656 " fill-opacity="1" fill-rule="nonzero"/><path fill="#707cfc" d="M 176.082031 191.773438 L 157.5625 191.773438 C 155.859375 191.773438 154.476562 190.390625 154.476562 188.683594 L 154.476562 153.523438 C 154.476562 151.820312 155.859375 150.4375 157.5625 150.4375 L 176.082031 150.4375 C 177.785156 150.4375 179.167969 151.820312 179.167969 153.523438 L 179.167969 188.691406 C 179.167969 190.394531 177.785156 191.773438 176.082031 191.773438 Z M 160.648438 185.597656 L 172.992188 185.597656 L 172.992188 156.609375 L 160.648438 156.609375 Z M 160.648438 185.597656 " fill-opacity="1" fill-rule="nonzero"/><path fill="#707cfc" d="M 157.5625 191.773438 L 139.042969 191.773438 C 137.339844 191.773438 135.957031 190.390625 135.957031 188.683594 L 135.957031 171.105469 C 135.957031 169.402344 137.339844 168.019531 139.042969 168.019531 L 157.5625 168.019531 C 159.265625 168.019531 160.648438 169.402344 160.648438 171.105469 L 160.648438 188.683594 C 160.648438 190.394531 159.265625 191.773438 157.5625 191.773438 Z M 142.128906 185.597656 L 154.476562 185.597656 L 154.476562 174.191406 L 142.128906 174.191406 Z M 142.128906 185.597656 " fill-opacity="1" fill-rule="nonzero"/></svg>