<svg xmlns="http://www.w3.org/2000/svg" xmlns:xlink="http://www.w3.org/1999/xlink" width="500" zoomAndPan="magnify" viewBox="0 0 375 374.999991" height="500" preserveAspectRatio="xMidYMid meet" version="1.0"><path fill="#707cfc" d="M 231.476562 188.777344 C 231.476562 189.734375 231.382812 190.683594 231.199219 191.625 C 231.011719 192.566406 230.734375 193.476562 230.367188 194.363281 C 230 195.25 229.550781 196.089844 229.019531 196.886719 C 228.484375 197.683594 227.878906 198.421875 227.203125 199.101562 C 226.523438 199.777344 225.785156 200.382812 224.988281 200.914062 C 224.191406 201.449219 223.351562 201.898438 222.464844 202.265625 C 221.582031 202.632812 220.667969 202.910156 219.726562 203.09375 C 218.789062 203.28125 217.839844 203.375 216.878906 203.375 C 215.921875 203.375 214.972656 203.28125 214.03125 203.09375 C 213.089844 202.910156 212.179688 202.632812 211.292969 202.265625 C 210.40625 201.898438 209.566406 201.449219 208.769531 200.914062 C 207.972656 200.382812 207.234375 199.777344 206.558594 199.101562 C 205.878906 198.421875 205.273438 197.683594 204.742188 196.886719 C 204.207031 196.089844 203.757812 195.25 203.390625 194.363281 C 203.027344 193.476562 202.75 192.566406 202.5625 191.625 C 202.375 190.683594 202.28125 189.734375 202.28125 188.777344 C 202.28125 187.820312 202.375 186.871094 202.5625 185.929688 C 202.75 184.988281 203.027344 184.078125 203.390625 183.191406 C 203.757812 182.304688 204.207031 181.464844 204.742188 180.667969 C 205.273438 179.871094 205.878906 179.132812 206.558594 178.453125 C 207.234375 177.777344 207.972656 177.171875 208.769531 176.640625 C 209.566406 176.105469 210.40625 175.65625 211.292969 175.289062 C 212.179688 174.921875 213.089844 174.644531 214.03125 174.460938 C 214.972656 174.273438 215.921875 174.179688 216.878906 174.179688 C 217.839844 174.179688 218.789062 174.273438 219.726562 174.460938 C 220.667969 174.644531 221.582031 174.921875 222.464844 175.289062 C 223.351562 175.65625 224.191406 176.105469 224.988281 176.640625 C 225.785156 177.171875 226.523438 177.777344 227.203125 178.453125 C 227.878906 179.132812 228.484375 179.871094 229.019531 180.667969 C 229.550781 181.464844 230 182.304688 230.367188 183.191406 C 230.734375 184.078125 231.011719 184.988281 231.199219 185.929688 C 231.382812 186.871094 231.476562 187.820312 231.476562 188.777344 Z M 231.476562 188.777344 " fill-opacity="1" fill-rule="nonzero"/><path fill="#707cfc" d="M 202.28125 159.582031 C 202.28125 160.539062 202.1875 161.488281 202 162.429688 C 201.8125 163.367188 201.535156 164.28125 201.167969 165.167969 C 200.804688 166.050781 200.351562 166.894531 199.820312 167.691406 C 199.289062 168.488281 198.683594 169.226562 198.003906 169.902344 C 197.328125 170.582031 196.589844 171.1875 195.792969 171.71875 C 194.996094 172.25 194.15625 172.699219 193.269531 173.066406 C 192.382812 173.433594 191.46875 173.710938 190.53125 173.898438 C 189.589844 174.085938 188.640625 174.179688 187.683594 174.179688 C 186.722656 174.179688 185.773438 174.085938 184.835938 173.898438 C 183.894531 173.710938 182.980469 173.433594 182.097656 173.066406 C 181.210938 172.699219 180.367188 172.25 179.570312 171.71875 C 178.773438 171.1875 178.039062 170.582031 177.359375 169.902344 C 176.683594 169.226562 176.078125 168.488281 175.542969 167.691406 C 175.011719 166.894531 174.5625 166.050781 174.195312 165.167969 C 173.828125 164.28125 173.550781 163.367188 173.363281 162.429688 C 173.175781 161.488281 173.082031 160.539062 173.082031 159.582031 C 173.082031 158.621094 173.175781 157.671875 173.363281 156.730469 C 173.550781 155.792969 173.828125 154.878906 174.195312 153.992188 C 174.5625 153.109375 175.011719 152.265625 175.542969 151.46875 C 176.078125 150.671875 176.683594 149.933594 177.359375 149.257812 C 178.039062 148.578125 178.773438 147.972656 179.570312 147.441406 C 180.367188 146.910156 181.210938 146.460938 182.097656 146.09375 C 182.980469 145.726562 183.894531 145.449219 184.835938 145.261719 C 185.773438 145.074219 186.722656 144.980469 187.683594 144.980469 C 188.640625 144.980469 189.589844 145.074219 190.53125 145.261719 C 191.46875 145.449219 192.382812 145.726562 193.269531 146.09375 C 194.15625 146.460938 194.996094 146.910156 195.792969 147.441406 C 196.589844 147.972656 197.328125 148.578125 198.003906 149.257812 C 198.683594 149.933594 199.289062 150.671875 199.820312 151.46875 C 200.351562 152.265625 200.804688 153.109375 201.167969 153.992188 C 201.535156 154.878906 201.8125 155.792969 202 156.730469 C 202.1875 157.671875 202.28125 158.621094 202.28125 159.582031 Z M 202.28125 159.582031 " fill-opacity="1" fill-rule="nonzero"/><path fill="#707cfc" d="M 202.28125 217.972656 C 202.28125 218.933594 202.1875 219.882812 202 220.824219 C 201.8125 221.761719 201.535156 222.675781 201.167969 223.5625 C 200.804688 224.445312 200.351562 225.289062 199.820312 226.085938 C 199.289062 226.882812 198.683594 227.621094 198.003906 228.296875 C 197.328125 228.976562 196.589844 229.582031 195.792969 230.113281 C 194.996094 230.644531 194.15625 231.09375 193.269531 231.460938 C 192.382812 231.828125 191.46875 232.105469 190.53125 232.292969 C 189.589844 232.480469 188.640625 232.574219 187.683594 232.574219 C 186.722656 232.574219 185.773438 232.480469 184.835938 232.292969 C 183.894531 232.105469 182.980469 231.828125 182.097656 231.460938 C 181.210938 231.09375 180.367188 230.644531 179.570312 230.113281 C 178.773438 229.582031 178.039062 228.976562 177.359375 228.296875 C 176.683594 227.621094 176.078125 226.882812 175.542969 226.085938 C 175.011719 225.289062 174.5625 224.445312 174.195312 223.5625 C 173.828125 222.675781 173.550781 221.761719 173.363281 220.824219 C 173.175781 219.882812 173.082031 218.933594 173.082031 217.972656 C 173.082031 217.015625 173.175781 216.066406 173.363281 215.125 C 173.550781 214.1875 173.828125 213.273438 174.195312 212.386719 C 174.5625 211.503906 175.011719 210.660156 175.542969 209.863281 C 176.078125 209.066406 176.683594 208.328125 177.359375 207.652344 C 178.039062 206.972656 178.773438 206.367188 179.570312 205.835938 C 180.367188 205.304688 181.210938 204.855469 182.097656 204.488281 C 182.980469 204.121094 183.894531 203.84375 184.835938 203.65625 C 185.773438 203.46875 186.722656 203.375 187.683594 203.375 C 188.640625 203.375 189.589844 203.46875 190.53125 203.65625 C 191.46875 203.84375 192.382812 204.121094 193.269531 204.488281 C 194.15625 204.855469 194.996094 205.304688 195.792969 205.835938 C 196.589844 206.367188 197.328125 206.972656 198.003906 207.652344 C 198.683594 208.328125 199.289062 209.066406 199.820312 209.863281 C 200.351562 210.660156 200.804688 211.503906 201.167969 212.386719 C 201.535156 213.273438 201.8125 214.1875 202 215.125 C 202.1875 216.066406 202.28125 217.015625 202.28125 217.972656 Z M 202.28125 217.972656 " fill-opacity="1" fill-rule="nonzero"/><path fill="#707cfc" d="M 187.683594 217.972656 C 187.203125 217.972656 186.730469 217.925781 186.257812 217.835938 C 185.789062 217.742188 185.332031 217.601562 184.890625 217.417969 C 184.445312 217.234375 184.027344 217.011719 183.628906 216.746094 C 183.230469 216.476562 182.859375 216.175781 182.519531 215.835938 C 182.183594 215.496094 181.878906 215.128906 181.613281 214.730469 C 181.347656 214.332031 181.121094 213.910156 180.9375 213.46875 C 180.753906 213.027344 180.617188 212.570312 180.523438 212.097656 C 180.429688 211.628906 180.382812 211.15625 180.382812 210.675781 L 180.382812 166.878906 C 180.382812 166.398438 180.429688 165.925781 180.523438 165.457031 C 180.617188 164.984375 180.753906 164.527344 180.9375 164.085938 C 181.121094 163.644531 181.347656 163.222656 181.613281 162.824219 C 181.878906 162.425781 182.183594 162.058594 182.519531 161.71875 C 182.859375 161.378906 183.230469 161.078125 183.628906 160.808594 C 184.027344 160.542969 184.445312 160.320312 184.890625 160.136719 C 185.332031 159.953125 185.789062 159.8125 186.257812 159.71875 C 186.730469 159.628906 187.203125 159.582031 187.683594 159.582031 C 188.160156 159.582031 188.636719 159.628906 189.105469 159.71875 C 189.578125 159.8125 190.03125 159.953125 190.476562 160.136719 C 190.917969 160.320312 191.339844 160.542969 191.738281 160.808594 C 192.136719 161.078125 192.503906 161.378906 192.84375 161.71875 C 193.183594 162.058594 193.484375 162.425781 193.75 162.824219 C 194.019531 163.222656 194.242188 163.644531 194.425781 164.085938 C 194.609375 164.527344 194.746094 164.984375 194.839844 165.457031 C 194.933594 165.925781 194.980469 166.398438 194.980469 166.878906 L 194.980469 210.675781 C 194.980469 211.15625 194.933594 211.628906 194.839844 212.097656 C 194.746094 212.570312 194.609375 213.027344 194.425781 213.46875 C 194.242188 213.910156 194.019531 214.332031 193.75 214.730469 C 193.484375 215.128906 193.183594 215.496094 192.84375 215.835938 C 192.503906 216.175781 192.136719 216.476562 191.738281 216.746094 C 191.339844 217.011719 190.917969 217.234375 190.476562 217.417969 C 190.03125 217.601562 189.578125 217.742188 189.105469 217.835938 C 188.636719 217.925781 188.160156 217.972656 187.683594 217.972656 Z M 187.683594 217.972656 " fill-opacity="1" fill-rule="nonzero"/><path fill="#707cfc" d="M 209.582031 188.777344 C 208.613281 188.777344 207.679688 188.59375 206.785156 188.222656 C 205.890625 187.851562 205.101562 187.324219 204.417969 186.640625 L 189.820312 172.039062 C 189.492188 171.699219 189.199219 171.328125 188.941406 170.933594 C 188.683594 170.535156 188.46875 170.113281 188.292969 169.675781 C 188.117188 169.234375 187.984375 168.78125 187.898438 168.316406 C 187.808594 167.847656 187.769531 167.378906 187.773438 166.90625 C 187.777344 166.433594 187.828125 165.960938 187.921875 165.5 C 188.015625 165.035156 188.15625 164.582031 188.339844 164.148438 C 188.523438 163.710938 188.746094 163.292969 189.011719 162.902344 C 189.273438 162.507812 189.574219 162.144531 189.910156 161.808594 C 190.246094 161.472656 190.609375 161.171875 191.003906 160.910156 C 191.394531 160.644531 191.8125 160.421875 192.25 160.238281 C 192.6875 160.054688 193.136719 159.914062 193.601562 159.820312 C 194.066406 159.722656 194.535156 159.675781 195.007812 159.671875 C 195.480469 159.667969 195.953125 159.707031 196.417969 159.796875 C 196.882812 159.882812 197.335938 160.015625 197.777344 160.191406 C 198.21875 160.367188 198.636719 160.582031 199.035156 160.839844 C 199.433594 161.097656 199.800781 161.390625 200.140625 161.71875 L 214.742188 176.316406 C 215.25 176.828125 215.675781 177.402344 216.015625 178.039062 C 216.355469 178.675781 216.597656 179.347656 216.738281 180.054688 C 216.878906 180.761719 216.914062 181.476562 216.84375 182.195312 C 216.773438 182.910156 216.597656 183.605469 216.324219 184.269531 C 216.046875 184.9375 215.679688 185.550781 215.222656 186.109375 C 214.765625 186.667969 214.234375 187.144531 213.632812 187.546875 C 213.035156 187.949219 212.390625 188.253906 211.699219 188.460938 C 211.007812 188.671875 210.300781 188.777344 209.582031 188.777344 Z M 209.582031 188.777344 " fill-opacity="1" fill-rule="nonzero"/><path fill="#707cfc" d="M 180.382812 159.582031 C 179.414062 159.582031 178.484375 159.398438 177.589844 159.027344 C 176.695312 158.65625 175.90625 158.128906 175.222656 157.441406 L 161.355469 143.574219 C 161.023438 143.230469 160.730469 142.863281 160.472656 142.464844 C 160.21875 142.066406 160 141.648438 159.824219 141.207031 C 159.648438 140.765625 159.519531 140.3125 159.429688 139.847656 C 159.34375 139.382812 159.300781 138.914062 159.304688 138.4375 C 159.308594 137.964844 159.359375 137.496094 159.453125 137.03125 C 159.550781 136.566406 159.691406 136.117188 159.871094 135.679688 C 160.054688 135.242188 160.28125 134.828125 160.542969 134.433594 C 160.808594 134.039062 161.109375 133.675781 161.441406 133.339844 C 161.777344 133.003906 162.140625 132.707031 162.535156 132.441406 C 162.929688 132.175781 163.34375 131.953125 163.78125 131.769531 C 164.21875 131.585938 164.667969 131.449219 165.132812 131.351562 C 165.597656 131.257812 166.066406 131.207031 166.539062 131.203125 C 167.015625 131.199219 167.484375 131.242188 167.949219 131.328125 C 168.417969 131.414062 168.871094 131.546875 169.308594 131.722656 C 169.75 131.898438 170.167969 132.113281 170.566406 132.371094 C 170.964844 132.628906 171.335938 132.921875 171.675781 133.25 L 185.542969 147.121094 C 186.054688 147.628906 186.480469 148.203125 186.820312 148.839844 C 187.160156 149.476562 187.398438 150.148438 187.539062 150.859375 C 187.679688 151.566406 187.714844 152.277344 187.644531 152.996094 C 187.574219 153.714844 187.402344 154.40625 187.125 155.074219 C 186.847656 155.742188 186.480469 156.351562 186.023438 156.910156 C 185.566406 157.46875 185.039062 157.949219 184.4375 158.351562 C 183.835938 158.75 183.191406 159.054688 182.5 159.265625 C 181.8125 159.476562 181.105469 159.582031 180.382812 159.582031 Z M 180.382812 159.582031 " fill-opacity="1" fill-rule="nonzero"/><path fill="#707cfc" d="M 187.683594 261.667969 C 186.195312 261.683594 184.722656 261.554688 183.257812 261.28125 C 181.796875 261.011719 180.375 260.597656 178.996094 260.046875 C 177.613281 259.5 176.296875 258.820312 175.050781 258.011719 C 173.800781 257.207031 172.640625 256.285156 171.574219 255.25 L 121.207031 204.886719 C 120.699219 204.347656 120.214844 203.789062 119.761719 203.203125 C 119.304688 202.621094 118.878906 202.015625 118.480469 201.390625 C 118.082031 200.769531 117.710938 200.125 117.375 199.46875 C 117.039062 198.808594 116.730469 198.136719 116.457031 197.445312 C 116.183594 196.757812 115.941406 196.058594 115.734375 195.347656 C 115.527344 194.636719 115.355469 193.917969 115.214844 193.191406 C 115.074219 192.464844 114.96875 191.730469 114.902344 190.992188 C 114.832031 190.257812 114.796875 189.519531 114.796875 188.777344 C 114.796875 188.035156 114.832031 187.296875 114.902344 186.5625 C 114.96875 185.824219 115.074219 185.089844 115.214844 184.363281 C 115.355469 183.636719 115.527344 182.917969 115.734375 182.207031 C 115.941406 181.496094 116.183594 180.796875 116.457031 180.109375 C 116.730469 179.417969 117.039062 178.746094 117.375 178.085938 C 117.710938 177.429688 118.082031 176.785156 118.480469 176.164062 C 118.878906 175.539062 119.304688 174.933594 119.761719 174.351562 C 120.214844 173.765625 120.699219 173.207031 121.207031 172.667969 L 171.574219 122.304688 C 172.109375 121.792969 172.671875 121.3125 173.253906 120.855469 C 173.839844 120.398438 174.441406 119.972656 175.066406 119.574219 C 175.691406 119.175781 176.332031 118.804688 176.992188 118.46875 C 177.652344 118.128906 178.324219 117.824219 179.011719 117.550781 C 179.703125 117.277344 180.402344 117.035156 181.113281 116.828125 C 181.824219 116.621094 182.542969 116.445312 183.269531 116.308594 C 183.996094 116.167969 184.730469 116.0625 185.46875 115.992188 C 186.203125 115.921875 186.945312 115.886719 187.683594 115.886719 C 188.425781 115.886719 189.164062 115.921875 189.902344 115.992188 C 190.640625 116.0625 191.371094 116.167969 192.097656 116.308594 C 192.828125 116.445312 193.546875 116.621094 194.257812 116.828125 C 194.96875 117.035156 195.667969 117.277344 196.355469 117.550781 C 197.042969 117.824219 197.71875 118.128906 198.375 118.46875 C 199.035156 118.804688 199.675781 119.175781 200.300781 119.574219 C 200.925781 119.972656 201.53125 120.398438 202.113281 120.855469 C 202.695312 121.3125 203.257812 121.792969 203.796875 122.304688 L 254.160156 172.667969 C 254.667969 173.207031 255.152344 173.765625 255.609375 174.351562 C 256.0625 174.933594 256.492188 175.539062 256.890625 176.164062 C 257.289062 176.785156 257.65625 177.429688 257.992188 178.085938 C 258.332031 178.746094 258.636719 179.417969 258.910156 180.109375 C 259.183594 180.796875 259.425781 181.496094 259.632812 182.207031 C 259.839844 182.917969 260.015625 183.636719 260.152344 184.363281 C 260.292969 185.089844 260.398438 185.824219 260.46875 186.5625 C 260.539062 187.296875 260.574219 188.035156 260.574219 188.777344 C 260.574219 189.519531 260.539062 190.257812 260.46875 190.992188 C 260.398438 191.730469 260.292969 192.464844 260.152344 193.191406 C 260.015625 193.917969 259.839844 194.636719 259.632812 195.347656 C 259.425781 196.058594 259.183594 196.757812 258.910156 197.445312 C 258.636719 198.136719 258.332031 198.808594 257.992188 199.46875 C 257.65625 200.125 257.289062 200.769531 256.890625 201.390625 C 256.492188 202.015625 256.0625 202.621094 255.609375 203.203125 C 255.152344 203.789062 254.667969 204.347656 254.160156 204.886719 L 203.796875 255.25 C 202.726562 256.285156 201.566406 257.207031 200.316406 258.011719 C 199.070312 258.820312 197.753906 259.5 196.371094 260.050781 C 194.992188 260.601562 193.570312 261.011719 192.105469 261.285156 C 190.644531 261.554688 189.167969 261.683594 187.683594 261.667969 Z M 187.683594 130.484375 C 186.617188 130.449219 185.582031 130.617188 184.582031 130.988281 C 183.578125 131.359375 182.683594 131.902344 181.898438 132.625 L 131.53125 182.988281 C 131.191406 183.390625 130.886719 183.816406 130.621094 184.269531 C 130.355469 184.726562 130.128906 185.199219 129.949219 185.691406 C 129.765625 186.1875 129.628906 186.691406 129.535156 187.210938 C 129.445312 187.730469 129.398438 188.25 129.398438 188.777344 C 129.398438 189.304688 129.445312 189.824219 129.535156 190.34375 C 129.628906 190.863281 129.765625 191.367188 129.949219 191.863281 C 130.128906 192.355469 130.355469 192.828125 130.621094 193.285156 C 130.886719 193.738281 131.191406 194.164062 131.53125 194.566406 L 181.898438 244.929688 C 182.304688 245.257812 182.738281 245.546875 183.191406 245.800781 C 183.648438 246.054688 184.125 246.269531 184.617188 246.441406 C 185.109375 246.617188 185.613281 246.746094 186.128906 246.835938 C 186.640625 246.921875 187.160156 246.96875 187.683594 246.96875 C 188.203125 246.96875 188.722656 246.921875 189.238281 246.835938 C 189.753906 246.746094 190.257812 246.617188 190.75 246.441406 C 191.242188 246.269531 191.714844 246.054688 192.171875 245.800781 C 192.628906 245.546875 193.058594 245.257812 193.46875 244.929688 L 243.832031 194.566406 C 244.175781 194.164062 244.476562 193.738281 244.746094 193.285156 C 245.011719 192.828125 245.234375 192.355469 245.417969 191.863281 C 245.597656 191.367188 245.734375 190.863281 245.828125 190.34375 C 245.921875 189.824219 245.96875 189.304688 245.96875 188.777344 C 245.96875 188.25 245.921875 187.730469 245.828125 187.210938 C 245.734375 186.691406 245.597656 186.1875 245.417969 185.691406 C 245.234375 185.199219 245.011719 184.726562 244.746094 184.269531 C 244.476562 183.816406 244.175781 183.390625 243.832031 182.988281 L 193.46875 132.625 C 192.679688 131.90625 191.785156 131.359375 190.785156 130.988281 C 189.78125 130.621094 188.75 130.453125 187.683594 130.484375 Z M 187.683594 130.484375 " fill-opacity="1" fill-rule="nonzero"/></svg>