<svg xmlns="http://www.w3.org/2000/svg" xmlns:xlink="http://www.w3.org/1999/xlink" width="500" zoomAndPan="magnify" viewBox="0 0 375 374.999991" height="500" preserveAspectRatio="xMidYMid meet" version="1.0"><path fill="#707cfc" d="M 192.226562 138.925781 Z M 292.992188 247.417969 C 288.457031 247.417969 283.894531 245.929688 280.070312 242.953125 L 245.433594 216.113281 C 242.785156 214.054688 242.3125 210.277344 244.367188 207.628906 C 246.402344 204.984375 250.203125 204.511719 252.828125 206.542969 L 287.464844 233.382812 C 291.101562 236.21875 296.371094 235.839844 299.535156 232.601562 C 301.59375 230.476562 302.488281 228.019531 302.324219 225.421875 C 302.183594 222.84375 300.929688 220.457031 298.875 218.828125 L 290.652344 212.402344 C 277.539062 202.078125 252.355469 182.347656 230.167969 165.644531 C 230.003906 165.527344 229.816406 165.410156 229.648438 165.292969 C 202.878906 145.113281 195.058594 140.269531 192.769531 139.160156 C 187.546875 139.773438 180.671875 146.273438 174.550781 152.035156 C 166.519531 159.644531 158.203125 167.488281 148.917969 167.488281 C 132.167969 167.488281 122.644531 155.4375 122.242188 154.917969 C 120.449219 152.628906 120.566406 149.390625 122.480469 147.191406 C 125.691406 143.578125 130.394531 136.796875 134.929688 130.230469 C 143.886719 117.257812 149.675781 109.179688 154.28125 106.128906 C 159.480469 102.65625 172.09375 97.386719 186.105469 94.035156 C 195.226562 91.835938 203.847656 90.726562 211.695312 90.726562 C 225.65625 90.726562 246.660156 99.019531 265.183594 106.320312 C 275.390625 110.359375 286.945312 114.917969 290.324219 114.917969 L 322.5 114.917969 C 325.832031 114.917969 328.550781 117.636719 328.550781 120.96875 C 328.550781 124.300781 325.832031 127.015625 322.5 127.015625 L 290.324219 127.015625 C 284.886719 127.015625 276.003906 123.613281 260.742188 117.589844 C 244.085938 110.996094 223.363281 102.824219 211.695312 102.824219 C 204.890625 102.824219 197.019531 103.863281 188.917969 105.800781 C 175.664062 108.964844 164.605469 113.785156 160.96875 116.195312 C 157.941406 118.203125 150.382812 129.117188 144.878906 137.105469 C 141.453125 142.066406 138.144531 146.839844 135.214844 150.691406 C 138.121094 152.886719 142.773438 155.390625 148.917969 155.390625 C 153.382812 155.390625 160.210938 148.941406 166.234375 143.246094 C 174.695312 135.261719 183.4375 127.015625 193.546875 127.015625 C 196.3125 127.015625 198.933594 127.015625 236.453125 155.273438 C 236.644531 155.390625 236.808594 155.507812 236.972656 155.628906 C 259.371094 172.472656 284.886719 192.460938 298.121094 202.878906 L 306.386719 209.332031 C 311.160156 213.160156 314.042969 218.734375 314.375 224.664062 C 314.800781 230.59375 312.648438 236.5 308.421875 240.777344 C 304.167969 245.195312 298.59375 247.417969 292.992188 247.417969 " fill-opacity="1" fill-rule="nonzero"/><path fill="#707cfc" d="M 269.910156 269.886719 C 265.207031 269.886719 260.507812 268.351562 256.632812 265.230469 L 223.765625 238.699219 C 221.191406 236.597656 220.765625 232.792969 222.867188 230.191406 C 224.972656 227.617188 228.777344 227.191406 231.375 229.296875 L 264.238281 255.804688 C 267.757812 258.640625 272.839844 258.425781 276.121094 255.378906 L 277.375 254.199219 C 279.3125 252.378906 280.375 249.804688 280.257812 247.15625 C 280.117188 244.488281 278.839844 242.054688 276.738281 240.398438 L 275.839844 239.714844 C 273.191406 237.660156 272.695312 233.878906 274.730469 231.234375 C 276.785156 228.5625 280.566406 228.089844 283.210938 230.121094 L 284.132812 230.832031 C 289.070312 234.660156 292.046875 240.398438 292.332031 246.589844 C 292.613281 252.804688 290.179688 258.78125 285.644531 263.035156 L 284.390625 264.191406 C 280.351562 267.972656 275.128906 269.886719 269.910156 269.886719 " fill-opacity="1" fill-rule="nonzero"/><path fill="#707cfc" d="M 240.730469 288.195312 C 235.863281 288.195312 230.972656 286.472656 227.003906 283.070312 L 195.296875 255.992188 C 192.746094 253.820312 192.460938 249.992188 194.613281 247.464844 C 196.785156 244.914062 200.613281 244.628906 203.140625 246.777344 L 234.847656 273.878906 C 238.296875 276.808594 243.257812 276.808594 246.683594 273.832031 L 248.667969 272.105469 C 250.652344 270.40625 251.765625 267.925781 251.71875 265.300781 C 251.667969 262.703125 250.488281 260.246094 248.457031 258.617188 C 245.859375 256.511719 245.433594 252.710938 247.535156 250.109375 C 249.636719 247.511719 253.441406 247.085938 256.039062 249.210938 C 260.882812 253.085938 263.695312 258.875 263.8125 265.113281 C 263.90625 271.304688 261.285156 277.210938 256.582031 281.273438 L 254.597656 283 C 250.582031 286.449219 245.667969 288.195312 240.730469 288.195312 " fill-opacity="1" fill-rule="nonzero"/><path fill="#707cfc" d="M 214.292969 302.394531 C 210.109375 302.394531 205.90625 301.167969 202.289062 298.710938 L 183.222656 285.574219 C 180.484375 283.683594 179.773438 279.902344 181.664062 277.164062 C 183.554688 274.398438 187.335938 273.714844 190.074219 275.601562 L 209.140625 288.738281 C 212.472656 291.007812 216.960938 290.820312 220.058594 288.265625 C 221.710938 286.898438 222.679688 284.886719 222.703125 282.738281 C 222.703125 280.660156 221.757812 278.652344 220.152344 277.257812 L 218.449219 275.792969 C 215.921875 273.617188 215.640625 269.816406 217.8125 267.285156 C 219.988281 264.734375 223.8125 264.453125 226.316406 266.625 L 228.019531 268.066406 C 232.320312 271.753906 234.800781 277.140625 234.800781 282.832031 C 234.707031 288.621094 232.152344 293.984375 227.734375 297.597656 C 223.886719 300.789062 219.089844 302.394531 214.292969 302.394531 " fill-opacity="1" fill-rule="nonzero"/><path fill="#707cfc" d="M 233.359375 166.519531 L 233.289062 166.519531 C 229.933594 166.519531 227.238281 163.800781 227.238281 160.472656 C 227.238281 157.117188 229.933594 154.421875 233.289062 154.421875 C 236.621094 154.421875 239.359375 157.117188 239.359375 160.472656 C 239.359375 163.800781 236.691406 166.519531 233.359375 166.519531 " fill-opacity="1" fill-rule="nonzero"/><path fill="#707cfc" d="M 81.890625 247.417969 C 76.359375 247.417969 70.855469 245.21875 66.769531 240.992188 C 62.351562 236.5 60.199219 230.59375 60.625 224.59375 C 60.957031 218.710938 63.839844 213.160156 68.5625 209.378906 L 79.078125 201.132812 C 80.210938 200.210938 81.628906 199.667969 83.046875 199.667969 C 86.378906 199.667969 89.09375 202.359375 89.09375 205.714844 C 89.09375 207.746094 88.078125 209.566406 86.496094 210.675781 L 76.078125 218.875 C 74.070312 220.457031 72.839844 222.84375 72.699219 225.351562 C 72.507812 228.019531 73.40625 230.476562 75.203125 232.320312 C 78.441406 235.652344 83.117188 236.195312 86.710938 233.902344 C 89.070312 232.035156 92.496094 232.203125 94.695312 234.398438 C 97.058594 236.761719 97.058594 240.589844 94.695312 242.953125 C 94.480469 243.164062 94.175781 243.425781 93.890625 243.636719 C 93.773438 243.707031 93.65625 243.800781 93.539062 243.894531 C 89.992188 246.257812 85.929688 247.417969 81.890625 247.417969 " fill-opacity="1" fill-rule="nonzero"/><path fill="#707cfc" d="M 90.183594 244.890625 C 88.648438 244.890625 87.085938 244.320312 85.90625 243.140625 C 83.542969 240.753906 83.542969 236.925781 85.90625 234.5625 C 86.117188 234.351562 86.425781 234.113281 86.710938 233.902344 L 97.152344 225.679688 C 99.160156 224.097656 100.390625 221.710938 100.53125 219.207031 C 100.71875 216.535156 99.820312 214.078125 98.027344 212.238281 C 94.789062 208.90625 90.0625 208.363281 86.496094 210.675781 C 84.699219 212.070312 82.171875 212.378906 80 211.246094 C 77.023438 209.683594 75.886719 206.046875 77.449219 203.09375 C 77.945312 202.101562 78.746094 201.273438 79.691406 200.683594 L 79.691406 200.660156 C 88.125 195.035156 99.375 196.242188 106.4375 203.566406 C 110.855469 208.054688 113.027344 213.960938 112.605469 219.960938 C 112.273438 225.847656 109.390625 231.398438 104.664062 235.179688 L 94.152344 243.425781 C 94.058594 243.496094 93.984375 243.566406 93.914062 243.613281 C 92.804688 244.464844 91.503906 244.890625 90.183594 244.890625 " fill-opacity="1" fill-rule="nonzero"/><path fill="#707cfc" d="M 84.675781 127.015625 L 52.5 127.015625 C 49.144531 127.015625 46.449219 124.300781 46.449219 120.96875 C 46.449219 117.636719 49.144531 114.917969 52.5 114.917969 L 84.675781 114.917969 C 88.054688 114.917969 99.609375 110.359375 109.816406 106.320312 C 128.339844 99.019531 149.34375 90.726562 163.304688 90.726562 C 171.152344 90.726562 179.773438 91.835938 188.917969 94.035156 C 192.15625 94.8125 194.164062 98.097656 193.382812 101.335938 C 192.601562 104.570312 189.296875 106.578125 186.082031 105.800781 C 177.976562 103.863281 170.109375 102.824219 163.304688 102.824219 C 151.636719 102.824219 130.914062 110.996094 114.257812 117.589844 C 98.996094 123.613281 90.113281 127.015625 84.675781 127.015625 " fill-opacity="1" fill-rule="nonzero"/><path fill="#707cfc" d="M 125.953125 243.871094 Z M 105.066406 269.863281 C 99.820312 269.863281 94.625 267.949219 90.585938 264.191406 L 89.332031 263.011719 C 84.796875 258.804688 82.339844 252.78125 82.691406 246.566406 C 82.953125 241.203125 85.195312 236.148438 89.046875 232.414062 L 91.550781 230.289062 C 94.128906 228.136719 97.957031 228.492188 100.082031 231.042969 C 102.230469 233.59375 101.878906 237.421875 99.324219 239.550781 L 97.152344 241.367188 C 95.851562 242.667969 94.882812 244.839844 94.765625 247.179688 C 94.625 249.851562 95.664062 252.378906 97.625 254.199219 L 98.875 255.402344 C 102.136719 258.425781 107.242188 258.617188 110.761719 255.78125 L 124.960938 244.320312 C 125.007812 244.273438 125.195312 244.132812 125.386719 244.015625 C 125.457031 243.945312 125.550781 243.871094 125.621094 243.800781 L 126.519531 243.140625 C 128.527344 240.992188 131.835938 240.566406 134.339844 242.242188 C 137.105469 244.109375 137.835938 247.890625 135.945312 250.652344 C 135.664062 251.078125 135.027344 251.789062 134.625 252.117188 C 134.503906 252.214844 134.222656 252.496094 134.082031 252.589844 L 133.136719 253.300781 C 132.96875 253.417969 132.828125 253.535156 132.6875 253.628906 L 118.367188 265.207031 C 114.46875 268.328125 109.769531 269.863281 105.066406 269.863281 " fill-opacity="1" fill-rule="nonzero"/><path fill="#707cfc" d="M 125.953125 243.847656 C 125.953125 243.871094 125.953125 243.871094 125.953125 243.871094 C 125.953125 243.871094 125.953125 243.871094 125.953125 243.847656 Z M 129 254.8125 C 127.039062 254.8125 125.148438 253.9375 123.992188 252.285156 C 122.125 249.566406 122.574219 245.976562 125.269531 244.0625 C 125.316406 244.039062 125.789062 243.707031 125.859375 243.660156 L 126.210938 243.425781 C 126.285156 243.351562 126.378906 243.28125 126.472656 243.210938 C 126.542969 243.117188 126.636719 243.023438 126.707031 242.929688 C 128.386719 241.320312 129.402344 239.078125 129.496094 236.808594 C 129.636719 234.113281 128.621094 231.585938 126.613281 229.695312 L 125.386719 228.539062 C 122.148438 225.492188 117 225.324219 113.5 228.136719 L 97.152344 241.367188 C 94.601562 243.519531 90.773438 243.1875 88.621094 240.613281 C 86.472656 238.0625 86.828125 234.234375 89.378906 232.082031 L 91.550781 230.289062 L 105.917969 218.710938 C 114.09375 212.140625 126.046875 212.589844 133.679688 219.75 L 134.929688 220.90625 C 139.492188 225.207031 141.925781 231.234375 141.59375 237.421875 C 141.332031 242.738281 139.066406 247.769531 135.191406 251.550781 C 135 251.789062 134.789062 251.976562 134.625 252.117188 C 134.53125 252.214844 134.222656 252.472656 134.105469 252.566406 L 132.542969 253.75 C 131.457031 254.457031 130.230469 254.8125 129 254.8125 " fill-opacity="1" fill-rule="nonzero"/><path fill="#707cfc" d="M 134.246094 288.171875 C 129.332031 288.171875 124.417969 286.425781 120.402344 282.976562 L 118.464844 281.34375 C 113.714844 277.210938 111.09375 271.304688 111.164062 265.136719 C 111.351562 258.828125 114.1875 253.0625 118.984375 249.210938 C 121.605469 247.085938 125.386719 247.511719 127.488281 250.109375 C 129.589844 252.710938 129.167969 256.535156 126.566406 258.617188 C 124.558594 260.269531 123.332031 262.726562 123.257812 265.398438 C 123.234375 267.925781 124.347656 270.429688 126.332031 272.152344 L 128.269531 273.785156 C 131.742188 276.785156 136.703125 276.785156 140.152344 273.855469 L 155.011719 261.167969 C 155.320312 260.90625 155.628906 260.648438 155.886719 260.386719 C 158.25 258.023438 162.078125 258.023438 164.441406 260.386719 C 166.804688 262.773438 166.804688 266.601562 164.441406 268.964844 C 163.96875 269.4375 163.425781 269.910156 162.859375 270.382812 L 147.996094 283.070312 C 144.003906 286.472656 139.136719 288.171875 134.246094 288.171875 " fill-opacity="1" fill-rule="nonzero"/><path fill="#707cfc" d="M 158.960938 271.824219 C 157.234375 271.824219 155.535156 271.089844 154.328125 269.671875 C 152.179688 267.121094 152.484375 263.316406 155.039062 261.144531 C 155.320312 260.90625 155.628906 260.648438 155.886719 260.386719 C 157.445312 258.828125 158.367188 256.632812 158.414062 254.363281 C 158.4375 251.789062 157.304688 249.285156 155.390625 247.628906 L 153.335938 245.832031 C 150.003906 242.929688 144.925781 242.929688 141.523438 245.808594 L 126.707031 258.496094 C 124.179688 260.671875 120.351562 260.386719 118.179688 257.859375 C 116.007812 255.308594 116.3125 251.503906 118.839844 249.332031 L 133.65625 236.621094 C 141.59375 229.863281 153.476562 229.910156 161.296875 236.714844 L 163.304688 238.460938 C 167.960938 242.457031 170.605469 248.316406 170.511719 254.550781 C 170.417969 259.9375 168.195312 265.183594 164.441406 268.964844 C 163.96875 269.4375 163.425781 269.910156 162.859375 270.382812 C 161.722656 271.328125 160.328125 271.824219 158.960938 271.824219 " fill-opacity="1" fill-rule="nonzero"/><path fill="#707cfc" d="M 160.707031 302.394531 C 155.886719 302.394531 151.089844 300.765625 147.242188 297.574219 C 142.847656 293.984375 140.292969 288.644531 140.199219 282.902344 C 140.199219 277.140625 142.679688 271.753906 146.980469 268.066406 L 148.679688 266.625 C 151.210938 264.453125 155.039062 264.734375 157.1875 267.285156 C 159.359375 269.816406 159.078125 273.617188 156.550781 275.792969 L 154.847656 277.257812 C 153.21875 278.652344 152.296875 280.683594 152.296875 282.832031 C 152.320312 284.886719 153.289062 286.898438 154.917969 288.242188 C 158.0625 290.820312 162.550781 290.984375 165.882812 288.714844 L 179.347656 279.429688 C 182.066406 277.515625 185.847656 278.203125 187.761719 280.964844 C 189.648438 283.707031 188.964844 287.464844 186.222656 289.378906 L 172.734375 298.6875 C 169.117188 301.167969 164.890625 302.394531 160.707031 302.394531 " fill-opacity="1" fill-rule="nonzero"/><path fill="#707cfc" d="M 182.773438 290.441406 C 181.074219 290.441406 179.371094 289.730469 178.191406 288.3125 C 176.015625 285.785156 176.300781 281.957031 178.851562 279.808594 L 180.53125 278.34375 C 182.160156 276.949219 183.082031 274.917969 183.082031 272.722656 C 183.058594 270.6875 182.089844 268.703125 180.460938 267.359375 C 177.339844 264.78125 172.851562 264.59375 169.519531 266.886719 L 156.03125 276.195312 C 153.289062 278.058594 149.507812 277.375 147.617188 274.632812 C 145.726562 271.894531 146.414062 268.136719 149.152344 266.246094 L 162.644531 256.914062 C 170.441406 251.597656 180.90625 252.046875 188.136719 258 C 192.53125 261.617188 195.085938 266.933594 195.179688 272.625 C 195.179688 278.4375 192.699219 283.847656 188.421875 287.535156 L 186.71875 288.976562 C 185.5625 289.96875 184.167969 290.441406 182.773438 290.441406 " fill-opacity="1" fill-rule="nonzero"/><path fill="#707cfc" d="M 80.613281 213.703125 C 79.335938 213.703125 78.039062 213.277344 76.929688 212.425781 C 73.3125 209.660156 66.578125 206.683594 43.992188 205.882812 C 40.660156 205.761719 38.039062 202.953125 38.179688 199.621094 C 38.296875 196.289062 41.203125 193.621094 44.417969 193.785156 C 65.375 194.539062 76.929688 197.164062 84.324219 202.855469 C 86.96875 204.890625 87.464844 208.691406 85.410156 211.339844 C 84.226562 212.875 82.433594 213.703125 80.613281 213.703125 " fill-opacity="1" fill-rule="nonzero"/><path fill="#707cfc" d="M 294.386719 213.703125 C 292.566406 213.703125 290.769531 212.875 289.589844 211.339844 C 287.535156 208.691406 288.03125 204.890625 290.675781 202.855469 C 298.070312 197.164062 309.625 194.539062 330.582031 193.785156 C 333.867188 193.644531 336.703125 196.289062 336.84375 199.621094 C 336.960938 202.953125 334.339844 205.761719 331.007812 205.882812 C 308.421875 206.683594 301.6875 209.660156 298.070312 212.425781 C 296.960938 213.277344 295.664062 213.703125 294.386719 213.703125 " fill-opacity="1" fill-rule="nonzero"/><path fill="#707cfc" d="M 368.953125 223.789062 L 332.660156 223.789062 C 329.566406 223.789062 326.96875 221.453125 326.660156 218.378906 L 314.5625 103.460938 C 314.375 101.757812 314.917969 100.058594 316.074219 98.78125 C 317.210938 97.507812 318.863281 96.773438 320.566406 96.773438 L 368.953125 96.773438 C 372.28125 96.773438 375 99.492188 375 102.824219 C 375 106.152344 372.28125 108.871094 368.953125 108.871094 L 327.273438 108.871094 L 338.117188 211.695312 L 368.953125 211.695312 C 372.28125 211.695312 375 214.410156 375 217.742188 C 375 221.074219 372.28125 223.789062 368.953125 223.789062 " fill-opacity="1" fill-rule="nonzero"/><path fill="#707cfc" d="M 42.339844 223.789062 L 6.046875 223.789062 C 2.71875 223.789062 0 221.074219 0 217.742188 C 0 214.410156 2.71875 211.695312 6.046875 211.695312 L 36.90625 211.695312 L 47.726562 108.871094 L 6.046875 108.871094 C 2.71875 108.871094 0 106.152344 0 102.824219 C 0 99.492188 2.71875 96.773438 6.046875 96.773438 L 54.433594 96.773438 C 56.136719 96.773438 57.789062 97.507812 58.925781 98.78125 C 60.082031 100.058594 60.625 101.757812 60.4375 103.460938 L 48.339844 218.378906 C 48.03125 221.453125 45.433594 223.789062 42.339844 223.789062 " fill-opacity="1" fill-rule="nonzero"/><path fill="#707cfc" d="M 187.5 36.289062 C 184.167969 36.289062 181.453125 33.574219 181.453125 30.242188 L 181.453125 6.046875 C 181.453125 2.71875 184.167969 0 187.5 0 C 190.832031 0 193.546875 2.71875 193.546875 6.046875 L 193.546875 30.242188 C 193.546875 33.574219 190.832031 36.289062 187.5 36.289062 " fill-opacity="1" fill-rule="nonzero"/><path fill="#707cfc" d="M 187.5 375 C 184.167969 375 181.453125 372.28125 181.453125 368.953125 L 181.453125 344.757812 C 181.453125 341.425781 184.167969 338.710938 187.5 338.710938 C 190.832031 338.710938 193.546875 341.425781 193.546875 344.757812 L 193.546875 368.953125 C 193.546875 372.28125 190.832031 375 187.5 375 " fill-opacity="1" fill-rule="nonzero"/><path fill="#707cfc" d="M 266.128906 57.363281 C 265.089844 57.363281 264.050781 57.105469 263.105469 56.539062 C 260.222656 54.882812 259.207031 51.175781 260.882812 48.292969 L 272.980469 27.335938 C 274.65625 24.429688 278.367188 23.4375 281.25 25.113281 C 284.132812 26.792969 285.148438 30.476562 283.472656 33.382812 L 271.375 54.339844 C 270.238281 56.277344 268.207031 57.363281 266.128906 57.363281 " fill-opacity="1" fill-rule="nonzero"/><path fill="#707cfc" d="M 96.773438 350.6875 C 95.734375 350.6875 94.695312 350.429688 93.75 349.886719 C 90.867188 348.207031 89.851562 344.523438 91.527344 341.617188 L 103.625 320.660156 C 105.304688 317.777344 109.011719 316.785156 111.894531 318.4375 C 114.777344 320.117188 115.792969 323.824219 114.117188 326.707031 L 102.019531 347.664062 C 100.886719 349.601562 98.851562 350.6875 96.773438 350.6875 " fill-opacity="1" fill-rule="nonzero"/><path fill="#707cfc" d="M 278.226562 350.6875 C 276.148438 350.6875 274.113281 349.601562 272.980469 347.664062 L 260.882812 326.707031 C 259.207031 323.824219 260.222656 320.117188 263.105469 318.4375 C 265.988281 316.785156 269.695312 317.777344 271.375 320.660156 L 283.472656 341.617188 C 285.148438 344.523438 284.132812 348.207031 281.25 349.886719 C 280.304688 350.429688 279.265625 350.6875 278.226562 350.6875 " fill-opacity="1" fill-rule="nonzero"/><path fill="#707cfc" d="M 108.871094 57.363281 C 106.792969 57.363281 104.761719 56.277344 103.625 54.339844 L 91.527344 33.382812 C 89.851562 30.476562 90.867188 26.792969 93.75 25.113281 C 96.632812 23.4375 100.339844 24.429688 102.019531 27.335938 L 114.117188 48.292969 C 115.792969 51.175781 114.777344 54.882812 111.894531 56.539062 C 110.949219 57.105469 109.910156 57.363281 108.871094 57.363281 " fill-opacity="1" fill-rule="nonzero"/></svg>