<svg xmlns="http://www.w3.org/2000/svg" xmlns:xlink="http://www.w3.org/1999/xlink" width="500" zoomAndPan="magnify" viewBox="0 0 375 374.999991" height="500" preserveAspectRatio="xMidYMid meet" version="1.0"><defs><clipPath id="7d374076cc"><path d="M 112.5 112.5 L 262.5 112.5 L 262.5 262.5 L 112.5 262.5 Z M 112.5 112.5 " clip-rule="nonzero"/></clipPath></defs><g clip-path="url(#7d374076cc)"><path fill="#707cfc" d="M 250.5 196.5 L 247.5 196.5 L 247.5 169.5 C 247.5 167.851562 246.148438 166.5 244.5 166.5 C 242.851562 166.5 241.5 167.851562 241.5 169.5 L 241.5 196.5 L 133.5 196.5 L 133.5 142.5 L 154.5 142.5 C 156.148438 142.5 157.5 141.148438 157.5 139.5 L 157.5 118.5 L 241.5 118.5 L 241.5 145.5 C 241.5 147.148438 242.851562 148.5 244.5 148.5 C 246.148438 148.5 247.5 147.148438 247.5 145.5 L 247.5 115.5 C 247.5 113.851562 246.148438 112.5 244.5 112.5 L 154.5 112.5 C 153.691406 112.5 152.941406 112.828125 152.371094 113.371094 L 128.371094 137.371094 C 127.828125 137.941406 127.5 138.691406 127.5 139.5 L 127.5 196.5 L 124.5 196.5 C 117.871094 196.5 112.5 201.871094 112.5 208.5 L 112.5 250.5 C 112.5 257.128906 117.871094 262.5 124.5 262.5 L 145.5 262.5 C 147.148438 262.5 148.5 261.148438 148.5 259.5 L 148.5 244.5 L 226.5 244.5 L 226.5 259.5 C 226.5 261.148438 227.851562 262.5 229.5 262.5 L 250.5 262.5 C 257.128906 262.5 262.5 257.128906 262.5 250.5 L 262.5 208.5 C 262.5 201.871094 257.128906 196.5 250.5 196.5 Z M 151.5 122.730469 L 151.5 136.5 L 137.730469 136.5 Z M 142.5 256.5 L 124.5 256.5 C 121.199219 256.5 118.5 253.800781 118.5 250.5 C 118.5 247.199219 121.199219 244.5 124.5 244.5 L 142.5 244.5 Z M 250.5 256.5 L 232.5 256.5 L 232.5 244.5 L 250.5 244.5 C 253.800781 244.5 256.5 247.199219 256.5 250.5 C 256.5 253.800781 253.800781 256.5 250.5 256.5 Z M 256.5 240.179688 C 254.730469 239.128906 252.691406 238.5 250.5 238.5 L 124.5 238.5 C 122.308594 238.5 120.269531 239.128906 118.5 240.179688 L 118.5 208.5 C 118.5 205.199219 121.199219 202.5 124.5 202.5 L 250.5 202.5 C 253.800781 202.5 256.5 205.199219 256.5 208.5 Z M 256.5 240.179688 " fill-opacity="1" fill-rule="nonzero"/></g><path fill="#707cfc" d="M 193.5 232.5 C 195.15625 232.5 196.5 231.15625 196.5 229.5 L 196.5 221.40625 L 197.003906 222.164062 C 198.117188 223.832031 200.882812 223.832031 201.996094 222.164062 L 202.5 221.40625 L 202.5 229.5 C 202.5 231.15625 203.84375 232.5 205.5 232.5 C 207.15625 232.5 208.5 231.15625 208.5 229.5 L 208.5 211.5 C 208.5 210.179688 207.632812 209.011719 206.367188 208.628906 C 205.105469 208.246094 203.738281 208.738281 203.003906 209.835938 L 199.5 215.089844 L 195.996094 209.835938 C 195.261719 208.738281 193.890625 208.246094 192.632812 208.628906 C 191.367188 209.011719 190.5 210.179688 190.5 211.5 L 190.5 229.5 C 190.5 231.15625 191.84375 232.5 193.5 232.5 Z M 193.5 232.5 " fill-opacity="1" fill-rule="nonzero"/><path fill="#707cfc" d="M 214.5 232.5 L 223.5 232.5 C 225.15625 232.5 226.5 231.15625 226.5 229.5 C 226.5 227.839844 225.15625 226.5 223.5 226.5 L 217.5 226.5 L 217.5 211.5 C 217.5 209.839844 216.15625 208.5 214.5 208.5 C 212.84375 208.5 211.5 209.839844 211.5 211.5 L 211.5 229.5 C 211.5 231.15625 212.84375 232.5 214.5 232.5 Z M 214.5 232.5 " fill-opacity="1" fill-rule="nonzero"/><path fill="#707cfc" d="M 232.5 139.5 C 232.5 137.839844 231.15625 136.5 229.5 136.5 L 169.5 136.5 C 167.84375 136.5 166.5 137.839844 166.5 139.5 C 166.5 141.15625 167.84375 142.5 169.5 142.5 L 229.5 142.5 C 231.15625 142.5 232.5 141.15625 232.5 139.5 Z M 232.5 139.5 " fill-opacity="1" fill-rule="nonzero"/><path fill="#707cfc" d="M 169.5 130.5 L 205.5 130.5 C 207.15625 130.5 208.5 129.15625 208.5 127.5 C 208.5 125.839844 207.15625 124.5 205.5 124.5 L 169.5 124.5 C 167.84375 124.5 166.5 125.839844 166.5 127.5 C 166.5 129.15625 167.84375 130.5 169.5 130.5 Z M 169.5 130.5 " fill-opacity="1" fill-rule="nonzero"/><path fill="#707cfc" d="M 171.621094 155.378906 C 170.449219 154.207031 168.550781 154.207031 167.378906 155.378906 L 155.378906 167.378906 C 154.207031 168.550781 154.207031 170.449219 155.378906 171.621094 C 155.378906 171.621094 167.371094 183.613281 167.378906 183.621094 C 168.492188 184.734375 170.4375 184.804688 171.621094 183.621094 C 172.792969 182.449219 172.792969 180.550781 171.621094 179.378906 L 161.742188 169.5 L 171.621094 159.621094 C 172.792969 158.449219 172.792969 156.550781 171.621094 155.378906 Z M 171.621094 155.378906 " fill-opacity="1" fill-rule="nonzero"/><path fill="#707cfc" d="M 203.378906 183.621094 C 204.542969 184.78125 206.460938 184.78125 207.621094 183.621094 L 219.621094 171.621094 C 220.792969 170.449219 220.792969 168.550781 219.621094 167.378906 L 207.621094 155.378906 C 206.449219 154.207031 204.550781 154.207031 203.378906 155.378906 C 202.207031 156.550781 202.207031 158.449219 203.378906 159.621094 L 213.257812 169.5 L 203.378906 179.378906 C 202.207031 180.550781 202.207031 182.449219 203.378906 183.621094 Z M 203.378906 183.621094 " fill-opacity="1" fill-rule="nonzero"/><path fill="#707cfc" d="M 190.652344 150.550781 L 178.652344 186.550781 C 178.128906 188.125 178.980469 189.824219 180.550781 190.34375 C 182.105469 190.863281 183.828125 190.003906 184.347656 188.449219 C 184.347656 188.449219 196.347656 152.449219 196.347656 152.449219 C 196.871094 150.875 196.019531 149.175781 194.449219 148.65625 C 192.871094 148.128906 191.175781 148.980469 190.652344 150.550781 Z M 190.652344 150.550781 " fill-opacity="1" fill-rule="nonzero"/><path fill="#707cfc" d="M 151.5 232.5 C 153.15625 232.5 154.5 231.15625 154.5 229.5 L 154.5 223.5 L 160.5 223.5 L 160.5 229.5 C 160.5 231.15625 161.84375 232.5 163.5 232.5 C 165.15625 232.5 166.5 231.15625 166.5 229.5 L 166.5 211.5 C 166.5 209.839844 165.15625 208.5 163.5 208.5 C 161.84375 208.5 160.5 209.839844 160.5 211.5 L 160.5 217.5 L 154.5 217.5 L 154.5 211.5 C 154.5 209.839844 153.15625 208.5 151.5 208.5 C 149.84375 208.5 148.5 209.839844 148.5 211.5 L 148.5 229.5 C 148.5 231.15625 149.84375 232.5 151.5 232.5 Z M 151.5 232.5 " fill-opacity="1" fill-rule="nonzero"/><path fill="#707cfc" d="M 172.5 214.5 L 175.5 214.5 L 175.5 229.5 C 175.5 231.15625 176.84375 232.5 178.5 232.5 C 180.15625 232.5 181.5 231.15625 181.5 229.5 L 181.5 214.5 L 184.5 214.5 C 186.15625 214.5 187.5 213.15625 187.5 211.5 C 187.5 209.839844 186.15625 208.5 184.5 208.5 L 172.5 208.5 C 170.84375 208.5 169.5 209.839844 169.5 211.5 C 169.5 213.15625 170.84375 214.5 172.5 214.5 Z M 172.5 214.5 " fill-opacity="1" fill-rule="nonzero"/><path fill="#707cfc" d="M 247.5 157.5 C 247.5 157.898438 247.425781 158.28125 247.273438 158.648438 C 247.121094 159.015625 246.902344 159.339844 246.621094 159.621094 C 246.339844 159.902344 246.015625 160.121094 245.648438 160.273438 C 245.28125 160.425781 244.898438 160.5 244.5 160.5 C 244.101562 160.5 243.71875 160.425781 243.351562 160.273438 C 242.984375 160.121094 242.660156 159.902344 242.378906 159.621094 C 242.097656 159.339844 241.878906 159.015625 241.726562 158.648438 C 241.574219 158.28125 241.5 157.898438 241.5 157.5 C 241.5 157.101562 241.574219 156.71875 241.726562 156.351562 C 241.878906 155.984375 242.097656 155.660156 242.378906 155.378906 C 242.660156 155.097656 242.984375 154.878906 243.351562 154.726562 C 243.71875 154.574219 244.101562 154.5 244.5 154.5 C 244.898438 154.5 245.28125 154.574219 245.648438 154.726562 C 246.015625 154.878906 246.339844 155.097656 246.621094 155.378906 C 246.902344 155.660156 247.121094 155.984375 247.273438 156.351562 C 247.425781 156.71875 247.5 157.101562 247.5 157.5 Z M 247.5 157.5 " fill-opacity="1" fill-rule="nonzero"/></svg>