<svg xmlns="http://www.w3.org/2000/svg" xmlns:xlink="http://www.w3.org/1999/xlink" width="500" zoomAndPan="magnify" viewBox="0 0 375 374.999991" height="500" preserveAspectRatio="xMidYMid meet" version="1.0"><defs><clipPath id="27af4d7f72"><path d="M 122.53125 112.5 L 252.28125 112.5 L 252.28125 262.5 L 122.53125 262.5 Z M 122.53125 112.5 " clip-rule="nonzero"/></clipPath></defs><path fill="#707cfc" d="M 160.011719 162.511719 C 160.667969 162.511719 161.320312 162.449219 161.964844 162.320312 C 162.605469 162.191406 163.230469 162.003906 163.839844 161.75 C 164.445312 161.5 165.019531 161.191406 165.566406 160.828125 C 166.113281 160.464844 166.617188 160.046875 167.082031 159.585938 C 167.546875 159.121094 167.960938 158.617188 168.324219 158.070312 C 168.6875 157.523438 168.996094 156.949219 169.246094 156.34375 C 169.5 155.734375 169.6875 155.109375 169.816406 154.464844 C 169.945312 153.824219 170.007812 153.171875 170.007812 152.515625 L 170.007812 135.023438 C 170.007812 134.695312 169.945312 134.375 169.816406 134.070312 C 169.691406 133.761719 169.511719 133.492188 169.277344 133.257812 C 169.042969 133.023438 168.773438 132.84375 168.464844 132.714844 C 168.160156 132.589844 167.839844 132.527344 167.507812 132.527344 C 167.179688 132.527344 166.859375 132.589844 166.554688 132.714844 C 166.246094 132.84375 165.976562 133.023438 165.742188 133.257812 C 165.507812 133.492188 165.328125 133.761719 165.199219 134.070312 C 165.074219 134.375 165.011719 134.695312 165.011719 135.023438 L 165.011719 152.515625 C 165.011719 152.84375 164.980469 153.171875 164.914062 153.492188 C 164.851562 153.8125 164.757812 154.125 164.628906 154.429688 C 164.503906 154.734375 164.351562 155.019531 164.167969 155.292969 C 163.984375 155.566406 163.777344 155.820312 163.546875 156.050781 C 163.316406 156.28125 163.0625 156.488281 162.789062 156.671875 C 162.515625 156.855469 162.230469 157.007812 161.925781 157.132812 C 161.621094 157.257812 161.308594 157.355469 160.988281 157.417969 C 160.667969 157.480469 160.339844 157.515625 160.011719 157.515625 C 159.683594 157.515625 159.359375 157.480469 159.039062 157.417969 C 158.714844 157.355469 158.402344 157.257812 158.101562 157.132812 C 157.796875 157.007812 157.507812 156.855469 157.238281 156.671875 C 156.964844 156.488281 156.710938 156.28125 156.480469 156.050781 C 156.246094 155.820312 156.039062 155.566406 155.859375 155.292969 C 155.675781 155.019531 155.523438 154.734375 155.394531 154.429688 C 155.269531 154.125 155.175781 153.8125 155.113281 153.492188 C 155.046875 153.171875 155.015625 152.84375 155.015625 152.515625 C 155.015625 152.183594 154.953125 151.867188 154.824219 151.5625 C 154.699219 151.253906 154.519531 150.984375 154.285156 150.75 C 154.050781 150.515625 153.777344 150.335938 153.472656 150.207031 C 153.167969 150.082031 152.847656 150.019531 152.515625 150.019531 C 152.183594 150.019531 151.867188 150.082031 151.5625 150.207031 C 151.253906 150.335938 150.984375 150.515625 150.75 150.75 C 150.515625 150.984375 150.335938 151.253906 150.207031 151.5625 C 150.082031 151.867188 150.019531 152.183594 150.019531 152.515625 C 150.019531 153.171875 150.082031 153.824219 150.210938 154.464844 C 150.339844 155.109375 150.527344 155.734375 150.777344 156.34375 C 151.03125 156.949219 151.339844 157.523438 151.703125 158.070312 C 152.066406 158.617188 152.480469 159.121094 152.945312 159.585938 C 153.410156 160.046875 153.914062 160.464844 154.460938 160.828125 C 155.007812 161.191406 155.582031 161.5 156.1875 161.75 C 156.792969 162.003906 157.417969 162.191406 158.0625 162.320312 C 158.707031 162.449219 159.355469 162.511719 160.011719 162.511719 Z M 160.011719 162.511719 " fill-opacity="1" fill-rule="nonzero"/><path fill="#707cfc" d="M 214.988281 212.488281 C 214.660156 212.488281 214.332031 212.457031 214.011719 212.390625 C 213.691406 212.328125 213.378906 212.234375 213.074219 212.109375 C 212.769531 211.980469 212.484375 211.828125 212.210938 211.644531 C 211.9375 211.464844 211.683594 211.257812 211.453125 211.023438 C 211.222656 210.792969 211.015625 210.539062 210.832031 210.265625 C 210.648438 209.992188 210.496094 209.707031 210.371094 209.402344 C 210.242188 209.101562 210.148438 208.789062 210.085938 208.464844 C 210.019531 208.144531 209.988281 207.820312 209.988281 207.492188 L 209.988281 202.492188 C 209.988281 201.835938 209.925781 201.1875 209.796875 200.542969 C 209.667969 199.898438 209.480469 199.273438 209.226562 198.667969 C 208.976562 198.0625 208.667969 197.484375 208.304688 196.941406 C 207.941406 196.394531 207.527344 195.890625 207.0625 195.425781 C 206.597656 194.960938 206.09375 194.546875 205.546875 194.183594 C 205 193.816406 204.425781 193.507812 203.820312 193.257812 C 203.210938 193.007812 202.585938 192.816406 201.945312 192.691406 C 201.300781 192.5625 200.648438 192.496094 199.992188 192.496094 C 199.664062 192.496094 199.34375 192.5625 199.039062 192.6875 C 198.730469 192.816406 198.460938 192.996094 198.226562 193.230469 C 197.992188 193.464844 197.8125 193.734375 197.683594 194.039062 C 197.558594 194.347656 197.496094 194.664062 197.496094 194.996094 C 197.496094 195.328125 197.558594 195.648438 197.683594 195.953125 C 197.8125 196.257812 197.992188 196.527344 198.226562 196.761719 C 198.460938 196.996094 198.730469 197.179688 199.039062 197.304688 C 199.34375 197.433594 199.664062 197.496094 199.992188 197.496094 C 200.320312 197.496094 200.648438 197.527344 200.96875 197.589844 C 201.289062 197.65625 201.601562 197.75 201.90625 197.875 C 202.210938 198 202.496094 198.15625 202.769531 198.335938 C 203.042969 198.519531 203.296875 198.726562 203.527344 198.957031 C 203.761719 199.191406 203.96875 199.445312 204.148438 199.714844 C 204.332031 199.988281 204.484375 200.277344 204.609375 200.582031 C 204.738281 200.882812 204.832031 201.195312 204.894531 201.519531 C 204.960938 201.839844 204.992188 202.164062 204.992188 202.492188 L 204.992188 207.492188 C 204.992188 208.925781 205.285156 210.296875 205.878906 211.605469 C 206.46875 212.914062 207.304688 214.039062 208.382812 214.988281 C 207.304688 215.933594 206.46875 217.0625 205.878906 218.367188 C 205.285156 219.675781 204.992188 221.046875 204.992188 222.484375 L 204.992188 227.480469 C 204.992188 227.808594 204.960938 228.132812 204.894531 228.457031 C 204.832031 228.777344 204.738281 229.089844 204.609375 229.394531 C 204.484375 229.695312 204.332031 229.984375 204.148438 230.257812 C 203.96875 230.53125 203.761719 230.78125 203.527344 231.015625 C 203.296875 231.246094 203.042969 231.453125 202.769531 231.636719 C 202.496094 231.820312 202.210938 231.972656 201.90625 232.097656 C 201.601562 232.222656 201.289062 232.316406 200.96875 232.382812 C 200.648438 232.445312 200.320312 232.476562 199.992188 232.476562 C 199.664062 232.476562 199.34375 232.542969 199.039062 232.667969 C 198.730469 232.796875 198.460938 232.976562 198.226562 233.210938 C 197.992188 233.445312 197.8125 233.714844 197.683594 234.019531 C 197.558594 234.328125 197.496094 234.644531 197.496094 234.976562 C 197.496094 235.308594 197.558594 235.628906 197.683594 235.933594 C 197.8125 236.238281 197.992188 236.507812 198.226562 236.742188 C 198.460938 236.976562 198.730469 237.160156 199.039062 237.285156 C 199.34375 237.414062 199.664062 237.476562 199.992188 237.476562 C 200.648438 237.476562 201.300781 237.410156 201.945312 237.285156 C 202.585938 237.15625 203.210938 236.964844 203.820312 236.714844 C 204.425781 236.464844 205 236.15625 205.546875 235.792969 C 206.09375 235.425781 206.597656 235.011719 207.0625 234.546875 C 207.527344 234.085938 207.941406 233.578125 208.304688 233.035156 C 208.667969 232.488281 208.976562 231.910156 209.226562 231.304688 C 209.480469 230.699219 209.667969 230.074219 209.796875 229.429688 C 209.925781 228.785156 209.988281 228.136719 209.988281 227.480469 L 209.988281 222.484375 C 209.988281 222.15625 210.019531 221.828125 210.085938 221.507812 C 210.148438 221.1875 210.242188 220.875 210.371094 220.570312 C 210.496094 220.265625 210.648438 219.980469 210.832031 219.707031 C 211.015625 219.433594 211.222656 219.179688 211.453125 218.949219 C 211.683594 218.71875 211.9375 218.511719 212.210938 218.328125 C 212.484375 218.144531 212.769531 217.992188 213.074219 217.867188 C 213.378906 217.742188 213.691406 217.644531 214.011719 217.582031 C 214.332031 217.519531 214.660156 217.484375 214.988281 217.484375 C 215.316406 217.484375 215.636719 217.421875 215.941406 217.296875 C 216.25 217.167969 216.519531 216.988281 216.753906 216.753906 C 216.988281 216.519531 217.167969 216.25 217.296875 215.941406 C 217.421875 215.636719 217.484375 215.316406 217.484375 214.988281 C 217.484375 214.65625 217.421875 214.335938 217.296875 214.03125 C 217.167969 213.722656 216.988281 213.453125 216.753906 213.21875 C 216.519531 212.984375 216.25 212.804688 215.941406 212.679688 C 215.636719 212.550781 215.316406 212.488281 214.988281 212.488281 Z M 214.988281 212.488281 " fill-opacity="1" fill-rule="nonzero"/><path fill="#707cfc" d="M 160.011719 202.492188 C 160.011719 202.164062 160.046875 201.839844 160.109375 201.519531 C 160.171875 201.195312 160.269531 200.882812 160.394531 200.582031 C 160.519531 200.277344 160.671875 199.988281 160.855469 199.714844 C 161.039062 199.445312 161.246094 199.191406 161.476562 198.957031 C 161.710938 198.726562 161.960938 198.519531 162.234375 198.335938 C 162.507812 198.15625 162.796875 198 163.097656 197.875 C 163.402344 197.75 163.714844 197.65625 164.035156 197.589844 C 164.359375 197.527344 164.683594 197.496094 165.011719 197.496094 C 165.34375 197.496094 165.660156 197.433594 165.96875 197.304688 C 166.273438 197.179688 166.542969 196.996094 166.777344 196.761719 C 167.011719 196.527344 167.191406 196.257812 167.320312 195.953125 C 167.445312 195.648438 167.507812 195.328125 167.507812 194.996094 C 167.507812 194.664062 167.445312 194.347656 167.320312 194.039062 C 167.191406 193.734375 167.011719 193.464844 166.777344 193.230469 C 166.542969 192.996094 166.273438 192.816406 165.96875 192.6875 C 165.660156 192.5625 165.34375 192.496094 165.011719 192.496094 C 164.355469 192.496094 163.703125 192.5625 163.0625 192.691406 C 162.417969 192.816406 161.792969 193.007812 161.1875 193.257812 C 160.578125 193.507812 160.003906 193.816406 159.457031 194.183594 C 158.910156 194.546875 158.40625 194.960938 157.941406 195.425781 C 157.480469 195.890625 157.066406 196.394531 156.699219 196.941406 C 156.335938 197.484375 156.027344 198.0625 155.777344 198.667969 C 155.523438 199.273438 155.335938 199.898438 155.207031 200.542969 C 155.078125 201.1875 155.015625 201.835938 155.015625 202.492188 L 155.015625 207.492188 C 155.015625 207.820312 154.984375 208.144531 154.917969 208.464844 C 154.855469 208.789062 154.761719 209.101562 154.636719 209.402344 C 154.507812 209.707031 154.355469 209.992188 154.171875 210.265625 C 153.992188 210.539062 153.785156 210.792969 153.550781 211.023438 C 153.320312 211.257812 153.066406 211.464844 152.792969 211.644531 C 152.523438 211.828125 152.234375 211.980469 151.929688 212.109375 C 151.628906 212.234375 151.316406 212.328125 150.992188 212.390625 C 150.671875 212.457031 150.347656 212.488281 150.019531 212.488281 C 149.6875 212.488281 149.367188 212.550781 149.0625 212.679688 C 148.753906 212.804688 148.484375 212.984375 148.25 213.21875 C 148.015625 213.453125 147.835938 213.722656 147.710938 214.03125 C 147.582031 214.335938 147.519531 214.65625 147.519531 214.988281 C 147.519531 215.316406 147.582031 215.636719 147.710938 215.941406 C 147.835938 216.25 148.015625 216.519531 148.25 216.753906 C 148.484375 216.988281 148.753906 217.167969 149.0625 217.296875 C 149.367188 217.421875 149.6875 217.484375 150.019531 217.484375 C 150.347656 217.484375 150.671875 217.519531 150.992188 217.582031 C 151.316406 217.644531 151.628906 217.742188 151.929688 217.867188 C 152.234375 217.992188 152.523438 218.144531 152.792969 218.328125 C 153.066406 218.511719 153.320312 218.71875 153.550781 218.949219 C 153.785156 219.179688 153.992188 219.433594 154.171875 219.707031 C 154.355469 219.980469 154.507812 220.265625 154.636719 220.570312 C 154.761719 220.875 154.855469 221.1875 154.917969 221.507812 C 154.984375 221.828125 155.015625 222.15625 155.015625 222.484375 L 155.015625 227.480469 C 155.015625 228.136719 155.078125 228.785156 155.207031 229.429688 C 155.335938 230.074219 155.523438 230.699219 155.777344 231.304688 C 156.027344 231.910156 156.335938 232.488281 156.699219 233.035156 C 157.066406 233.578125 157.480469 234.085938 157.941406 234.546875 C 158.40625 235.011719 158.910156 235.425781 159.457031 235.792969 C 160.003906 236.15625 160.578125 236.464844 161.1875 236.714844 C 161.792969 236.964844 162.417969 237.15625 163.0625 237.285156 C 163.703125 237.410156 164.355469 237.476562 165.011719 237.476562 C 165.34375 237.476562 165.660156 237.414062 165.96875 237.285156 C 166.273438 237.160156 166.542969 236.976562 166.777344 236.742188 C 167.011719 236.507812 167.191406 236.238281 167.320312 235.933594 C 167.445312 235.628906 167.507812 235.308594 167.507812 234.976562 C 167.507812 234.644531 167.445312 234.328125 167.320312 234.019531 C 167.191406 233.714844 167.011719 233.445312 166.777344 233.210938 C 166.542969 232.976562 166.273438 232.796875 165.96875 232.667969 C 165.660156 232.542969 165.34375 232.476562 165.011719 232.476562 C 164.683594 232.476562 164.359375 232.445312 164.035156 232.382812 C 163.714844 232.316406 163.402344 232.222656 163.097656 232.097656 C 162.796875 231.972656 162.507812 231.820312 162.234375 231.636719 C 161.960938 231.453125 161.710938 231.246094 161.476562 231.015625 C 161.246094 230.78125 161.039062 230.53125 160.855469 230.257812 C 160.671875 229.984375 160.519531 229.695312 160.394531 229.394531 C 160.269531 229.089844 160.171875 228.777344 160.109375 228.457031 C 160.046875 228.132812 160.011719 227.808594 160.011719 227.480469 L 160.011719 222.484375 C 160.015625 221.046875 159.71875 219.675781 159.125 218.367188 C 158.535156 217.0625 157.699219 215.933594 156.621094 214.988281 C 157.699219 214.039062 158.535156 212.914062 159.125 211.605469 C 159.71875 210.296875 160.015625 208.925781 160.011719 207.492188 Z M 160.011719 202.492188 " fill-opacity="1" fill-rule="nonzero"/><path fill="#707cfc" d="M 185 207.492188 C 185 207.820312 184.9375 208.140625 184.8125 208.445312 C 184.683594 208.753906 184.503906 209.023438 184.269531 209.257812 C 184.035156 209.492188 183.765625 209.671875 183.457031 209.800781 C 183.152344 209.925781 182.832031 209.988281 182.503906 209.988281 C 182.171875 209.988281 181.851562 209.925781 181.546875 209.800781 C 181.238281 209.671875 180.96875 209.492188 180.734375 209.257812 C 180.5 209.023438 180.320312 208.753906 180.195312 208.445312 C 180.066406 208.140625 180.003906 207.820312 180.003906 207.492188 C 180.003906 207.160156 180.066406 206.839844 180.195312 206.535156 C 180.320312 206.226562 180.5 205.957031 180.734375 205.722656 C 180.96875 205.488281 181.238281 205.308594 181.546875 205.183594 C 181.851562 205.054688 182.171875 204.992188 182.503906 204.992188 C 182.832031 204.992188 183.152344 205.054688 183.457031 205.183594 C 183.765625 205.308594 184.035156 205.488281 184.269531 205.722656 C 184.503906 205.957031 184.683594 206.226562 184.8125 206.535156 C 184.9375 206.839844 185 207.160156 185 207.492188 Z M 185 207.492188 " fill-opacity="1" fill-rule="nonzero"/><path fill="#707cfc" d="M 182.503906 219.984375 C 182.171875 219.984375 181.851562 220.046875 181.546875 220.175781 C 181.238281 220.300781 180.96875 220.480469 180.734375 220.714844 C 180.5 220.949219 180.320312 221.222656 180.195312 221.527344 C 180.066406 221.832031 180.003906 222.152344 180.003906 222.484375 C 180.003906 222.816406 179.941406 223.132812 179.8125 223.4375 C 179.6875 223.746094 179.507812 224.015625 179.273438 224.25 C 179.039062 224.484375 178.765625 224.664062 178.460938 224.792969 C 178.15625 224.917969 177.835938 224.980469 177.503906 224.980469 C 177.171875 224.980469 176.855469 225.046875 176.546875 225.171875 C 176.242188 225.300781 175.972656 225.480469 175.738281 225.714844 C 175.503906 225.949219 175.324219 226.21875 175.195312 226.523438 C 175.070312 226.832031 175.007812 227.148438 175.007812 227.480469 C 175.007812 227.8125 175.070312 228.128906 175.195312 228.4375 C 175.324219 228.742188 175.503906 229.011719 175.738281 229.246094 C 175.972656 229.480469 176.242188 229.664062 176.546875 229.789062 C 176.855469 229.917969 177.171875 229.980469 177.503906 229.980469 C 177.996094 229.980469 178.484375 229.929688 178.96875 229.835938 C 179.449219 229.738281 179.917969 229.597656 180.375 229.410156 C 180.828125 229.21875 181.261719 228.988281 181.667969 228.714844 C 182.078125 228.441406 182.457031 228.132812 182.804688 227.785156 C 183.152344 227.4375 183.464844 227.058594 183.738281 226.648438 C 184.011719 226.238281 184.242188 225.808594 184.429688 225.351562 C 184.617188 224.898438 184.761719 224.429688 184.855469 223.945312 C 184.953125 223.460938 185 222.976562 185 222.484375 C 185 222.152344 184.9375 221.832031 184.8125 221.527344 C 184.683594 221.222656 184.503906 220.949219 184.269531 220.714844 C 184.035156 220.480469 183.765625 220.300781 183.457031 220.175781 C 183.152344 220.046875 182.832031 219.984375 182.503906 219.984375 Z M 182.503906 219.984375 " fill-opacity="1" fill-rule="nonzero"/><path fill="#707cfc" d="M 186.25 157.515625 L 182.503906 157.515625 C 182.171875 157.515625 181.851562 157.449219 181.546875 157.324219 C 181.238281 157.199219 180.96875 157.015625 180.734375 156.78125 C 180.5 156.546875 180.320312 156.277344 180.195312 155.972656 C 180.066406 155.664062 180.003906 155.347656 180.003906 155.015625 C 180.003906 154.683594 179.941406 154.367188 179.8125 154.058594 C 179.6875 153.753906 179.507812 153.484375 179.273438 153.25 C 179.039062 153.015625 178.765625 152.832031 178.460938 152.707031 C 178.15625 152.582031 177.835938 152.515625 177.503906 152.515625 C 177.171875 152.515625 176.855469 152.582031 176.546875 152.707031 C 176.242188 152.832031 175.972656 153.015625 175.738281 153.25 C 175.503906 153.484375 175.324219 153.753906 175.195312 154.058594 C 175.070312 154.367188 175.007812 154.683594 175.007812 155.015625 C 175.007812 155.507812 175.054688 155.996094 175.148438 156.476562 C 175.246094 156.960938 175.386719 157.429688 175.578125 157.882812 C 175.765625 158.339844 175.996094 158.769531 176.269531 159.179688 C 176.542969 159.589844 176.855469 159.96875 177.203125 160.316406 C 177.550781 160.664062 177.929688 160.976562 178.335938 161.25 C 178.746094 161.523438 179.179688 161.753906 179.632812 161.941406 C 180.089844 162.128906 180.558594 162.273438 181.039062 162.367188 C 181.523438 162.464844 182.011719 162.511719 182.503906 162.511719 L 186.25 162.511719 C 186.824219 162.511719 187.394531 162.457031 187.957031 162.34375 C 188.519531 162.230469 189.066406 162.066406 189.597656 161.847656 C 190.128906 161.625 190.632812 161.355469 191.109375 161.039062 C 191.585938 160.71875 192.027344 160.355469 192.433594 159.949219 C 192.839844 159.542969 193.203125 159.101562 193.523438 158.625 C 193.839844 158.148438 194.109375 157.644531 194.332031 157.113281 C 194.550781 156.582031 194.714844 156.035156 194.828125 155.472656 C 194.941406 154.910156 194.996094 154.339844 194.996094 153.765625 C 194.996094 153.191406 194.941406 152.625 194.828125 152.058594 C 194.714844 151.496094 194.550781 150.949219 194.332031 150.417969 C 194.109375 149.890625 193.839844 149.386719 193.523438 148.90625 C 193.203125 148.429688 192.839844 147.988281 192.433594 147.582031 C 192.027344 147.175781 191.585938 146.8125 191.109375 146.496094 C 190.632812 146.175781 190.128906 145.90625 189.597656 145.6875 C 189.066406 145.464844 188.519531 145.300781 187.957031 145.1875 C 187.394531 145.078125 186.824219 145.019531 186.25 145.019531 L 183.75 145.019531 C 183.253906 145.019531 182.777344 144.925781 182.316406 144.734375 C 181.859375 144.542969 181.453125 144.273438 181.101562 143.921875 C 180.75 143.570312 180.480469 143.164062 180.289062 142.707031 C 180.097656 142.246094 180.003906 141.769531 180.003906 141.273438 C 180.003906 140.773438 180.097656 140.296875 180.289062 139.835938 C 180.480469 139.378906 180.75 138.972656 181.101562 138.621094 C 181.453125 138.269531 181.859375 138 182.316406 137.808594 C 182.777344 137.617188 183.253906 137.523438 183.75 137.523438 L 187.5 137.523438 C 187.832031 137.523438 188.148438 137.585938 188.457031 137.714844 C 188.761719 137.839844 189.03125 138.023438 189.265625 138.257812 C 189.5 138.488281 189.683594 138.761719 189.808594 139.066406 C 189.933594 139.371094 190 139.691406 190 140.023438 C 190 140.355469 190.0625 140.671875 190.1875 140.980469 C 190.316406 141.285156 190.496094 141.554688 190.730469 141.789062 C 190.964844 142.023438 191.234375 142.203125 191.542969 142.332031 C 191.847656 142.457031 192.167969 142.523438 192.496094 142.523438 C 192.828125 142.523438 193.148438 142.457031 193.453125 142.332031 C 193.761719 142.203125 194.03125 142.023438 194.265625 141.789062 C 194.5 141.554688 194.679688 141.285156 194.804688 140.980469 C 194.933594 140.671875 194.996094 140.355469 194.996094 140.023438 C 194.996094 139.53125 194.949219 139.042969 194.851562 138.558594 C 194.757812 138.078125 194.613281 137.609375 194.425781 137.152344 C 194.238281 136.699219 194.007812 136.265625 193.734375 135.859375 C 193.460938 135.449219 193.148438 135.070312 192.800781 134.722656 C 192.453125 134.375 192.074219 134.0625 191.664062 133.789062 C 191.253906 133.515625 190.824219 133.285156 190.367188 133.097656 C 189.914062 132.910156 189.445312 132.765625 188.960938 132.671875 C 188.480469 132.574219 187.992188 132.527344 187.5 132.527344 L 183.75 132.527344 C 183.175781 132.527344 182.609375 132.582031 182.046875 132.695312 C 181.480469 132.804688 180.933594 132.972656 180.40625 133.191406 C 179.875 133.410156 179.371094 133.679688 178.894531 134 C 178.414062 134.320312 177.972656 134.683594 177.566406 135.089844 C 177.160156 135.492188 176.800781 135.9375 176.480469 136.414062 C 176.160156 136.890625 175.890625 137.394531 175.671875 137.925781 C 175.453125 138.457031 175.285156 139.003906 175.175781 139.566406 C 175.0625 140.128906 175.007812 140.699219 175.007812 141.273438 C 175.007812 141.847656 175.0625 142.414062 175.175781 142.976562 C 175.285156 143.542969 175.453125 144.089844 175.671875 144.617188 C 175.890625 145.148438 176.160156 145.652344 176.480469 146.132812 C 176.800781 146.609375 177.160156 147.050781 177.566406 147.457031 C 177.972656 147.863281 178.414062 148.226562 178.894531 148.542969 C 179.371094 148.863281 179.875 149.132812 180.40625 149.351562 C 180.933594 149.570312 181.480469 149.738281 182.046875 149.851562 C 182.609375 149.960938 183.175781 150.019531 183.75 150.019531 L 186.25 150.019531 C 186.746094 150.019531 187.226562 150.113281 187.683594 150.304688 C 188.144531 150.492188 188.550781 150.765625 188.902344 151.117188 C 189.253906 151.46875 189.523438 151.871094 189.714844 152.332031 C 189.902344 152.792969 190 153.269531 190 153.765625 C 190 154.261719 189.902344 154.742188 189.714844 155.199219 C 189.523438 155.660156 189.253906 156.066406 188.902344 156.417969 C 188.550781 156.769531 188.144531 157.039062 187.683594 157.230469 C 187.226562 157.417969 186.746094 157.515625 186.25 157.515625 Z M 186.25 157.515625 " fill-opacity="1" fill-rule="nonzero"/><path fill="#707cfc" d="M 242.472656 214.988281 C 242.472656 215.316406 242.410156 215.636719 242.285156 215.941406 C 242.15625 216.25 241.976562 216.519531 241.742188 216.753906 C 241.507812 216.988281 241.238281 217.167969 240.929688 217.296875 C 240.625 217.421875 240.304688 217.484375 239.976562 217.484375 C 239.644531 217.484375 239.324219 217.421875 239.019531 217.296875 C 238.710938 217.167969 238.441406 216.988281 238.207031 216.753906 C 237.972656 216.519531 237.792969 216.25 237.667969 215.941406 C 237.539062 215.636719 237.476562 215.316406 237.476562 214.988281 C 237.476562 214.65625 237.539062 214.335938 237.667969 214.03125 C 237.792969 213.722656 237.972656 213.453125 238.207031 213.21875 C 238.441406 212.984375 238.710938 212.804688 239.019531 212.679688 C 239.324219 212.550781 239.644531 212.488281 239.976562 212.488281 C 240.304688 212.488281 240.625 212.550781 240.929688 212.679688 C 241.238281 212.804688 241.507812 212.984375 241.742188 213.21875 C 241.976562 213.453125 242.15625 213.722656 242.285156 214.03125 C 242.410156 214.335938 242.472656 214.65625 242.472656 214.988281 Z M 242.472656 214.988281 " fill-opacity="1" fill-rule="nonzero"/><g clip-path="url(#27af4d7f72)"><path fill="#707cfc" d="M 249.96875 112.535156 L 135.023438 112.535156 C 134.695312 112.535156 134.375 112.597656 134.070312 112.726562 C 133.761719 112.851562 133.492188 113.035156 133.257812 113.269531 C 133.023438 113.503906 132.84375 113.773438 132.714844 114.078125 C 132.589844 114.382812 132.527344 114.703125 132.527344 115.035156 L 132.527344 122.53125 L 125.03125 122.53125 C 124.699219 122.53125 124.378906 122.59375 124.074219 122.722656 C 123.769531 122.847656 123.496094 123.027344 123.261719 123.261719 C 123.027344 123.496094 122.847656 123.769531 122.722656 124.074219 C 122.59375 124.378906 122.53125 124.699219 122.53125 125.03125 L 122.53125 259.964844 C 122.53125 260.296875 122.59375 260.613281 122.722656 260.921875 C 122.847656 261.226562 123.027344 261.496094 123.261719 261.730469 C 123.496094 261.964844 123.769531 262.148438 124.074219 262.273438 C 124.378906 262.402344 124.699219 262.464844 125.03125 262.464844 L 239.976562 262.464844 C 240.304688 262.464844 240.625 262.402344 240.929688 262.273438 C 241.238281 262.148438 241.507812 261.964844 241.742188 261.730469 C 241.976562 261.496094 242.15625 261.226562 242.285156 260.921875 C 242.410156 260.613281 242.472656 260.296875 242.472656 259.964844 L 242.472656 252.46875 L 249.96875 252.46875 C 250.300781 252.46875 250.621094 252.40625 250.925781 252.277344 C 251.230469 252.152344 251.503906 251.972656 251.738281 251.738281 C 251.972656 251.503906 252.152344 251.230469 252.277344 250.925781 C 252.40625 250.621094 252.46875 250.300781 252.46875 249.96875 L 252.46875 115.035156 C 252.46875 114.703125 252.40625 114.382812 252.277344 114.078125 C 252.152344 113.773438 251.972656 113.503906 251.738281 113.269531 C 251.503906 113.035156 251.230469 112.851562 250.925781 112.726562 C 250.621094 112.597656 250.300781 112.535156 249.96875 112.535156 Z M 212.488281 127.527344 L 212.488281 145.019531 C 212.488281 145.511719 212.535156 146 212.632812 146.484375 C 212.726562 146.964844 212.871094 147.433594 213.058594 147.890625 C 213.246094 148.34375 213.476562 148.777344 213.75 149.183594 C 214.023438 149.59375 214.335938 149.972656 214.683594 150.320312 C 215.03125 150.667969 215.410156 150.980469 215.820312 151.253906 C 216.230469 151.527344 216.660156 151.757812 217.117188 151.945312 C 217.570312 152.132812 218.039062 152.277344 218.523438 152.371094 C 219.003906 152.46875 219.492188 152.515625 219.984375 152.515625 L 237.476562 152.515625 L 237.476562 167.507812 L 127.527344 167.507812 L 127.527344 127.527344 Z M 217.484375 131.0625 L 233.941406 147.519531 L 219.984375 147.519531 C 219.652344 147.519531 219.335938 147.457031 219.027344 147.328125 C 218.722656 147.203125 218.453125 147.023438 218.21875 146.789062 C 217.984375 146.554688 217.800781 146.28125 217.675781 145.976562 C 217.550781 145.671875 217.484375 145.351562 217.484375 145.019531 Z M 247.472656 247.472656 L 242.472656 247.472656 L 242.472656 224.980469 C 242.472656 224.652344 242.410156 224.332031 242.285156 224.027344 C 242.15625 223.71875 241.976562 223.449219 241.742188 223.214844 C 241.507812 222.980469 241.238281 222.800781 240.929688 222.671875 C 240.625 222.546875 240.304688 222.484375 239.976562 222.484375 C 239.644531 222.484375 239.324219 222.546875 239.019531 222.671875 C 238.710938 222.800781 238.441406 222.980469 238.207031 223.214844 C 237.972656 223.449219 237.792969 223.71875 237.667969 224.027344 C 237.539062 224.332031 237.476562 224.652344 237.476562 224.980469 L 237.476562 257.464844 L 127.527344 257.464844 L 127.527344 172.507812 L 237.476562 172.507812 L 237.476562 204.992188 C 237.476562 205.324219 237.539062 205.640625 237.667969 205.949219 C 237.792969 206.253906 237.972656 206.523438 238.207031 206.757812 C 238.441406 206.992188 238.710938 207.171875 239.019531 207.300781 C 239.324219 207.425781 239.644531 207.492188 239.976562 207.492188 C 240.304688 207.492188 240.625 207.425781 240.929688 207.300781 C 241.238281 207.171875 241.507812 206.992188 241.742188 206.757812 C 241.976562 206.523438 242.15625 206.253906 242.285156 205.949219 C 242.410156 205.640625 242.472656 205.324219 242.472656 204.992188 L 242.472656 150.019531 C 242.472656 149.328125 242.230469 148.738281 241.742188 148.25 L 216.753906 123.261719 C 216.265625 122.773438 215.675781 122.53125 214.988281 122.53125 L 137.523438 122.53125 L 137.523438 117.535156 L 247.472656 117.535156 Z M 247.472656 247.472656 " fill-opacity="1" fill-rule="nonzero"/></g></svg>