<svg xmlns="http://www.w3.org/2000/svg" xmlns:xlink="http://www.w3.org/1999/xlink" width="6912" zoomAndPan="magnify" viewBox="0 0 5184 2592.000001" height="3456" preserveAspectRatio="xMidYMid meet" version="1.0"><defs><g/><clipPath id="e731ba6521"><path d="M 1 660 L 5183 660 L 5183 1920 L 1 1920 Z M 1 660 " clip-rule="nonzero"/></clipPath></defs><g clip-path="url(#e731ba6521)"><path stroke-linecap="butt" transform="matrix(0.697633, 0, 0, 0.697633, 31.043864, 774.71842)" fill="none" stroke-linejoin="miter" d="M 150.518904 744.521632 L 452.34318 896.083288 L 452.34318 1009.105012 L 17.188545 783.061564 L 17.188545 709.363673 L 452.34318 476.808247 L 452.34318 595.30048 Z M 866.181307 372.381437 C 920.169688 372.381437 964.96403 384.447913 1000.553135 408.580865 C 1036.142239 432.713817 1062.968451 463.873881 1081.02617 502.072256 C 1099.251868 540.091454 1108.367516 580.02001 1108.367516 621.863525 C 1108.367516 663.180706 1099.251868 702.851695 1081.02617 740.876492 C 1062.968451 778.89569 1036.142239 810.055754 1000.553135 834.362284 C 964.96403 858.495236 920.169688 870.561712 866.181307 870.561712 L 701.853264 870.561712 L 701.853264 1119.002331 L 593.003013 1119.002331 L 593.003013 372.381437 Z M 866.181307 763.788798 C 896.736648 763.788798 921.911068 756.845675 941.698969 742.959429 C 961.666047 729.067584 976.593761 711.536198 986.493311 690.354074 C 996.560839 668.998371 1001.594603 646.517211 1001.594603 622.904993 C 1001.594603 598.772042 996.560839 576.027715 986.493311 554.677611 C 976.593761 533.321909 961.666047 515.784924 941.698969 502.072256 C 921.911068 488.180411 896.736648 481.237288 866.181307 481.237288 L 701.853264 481.237288 L 701.853264 763.788798 Z M 1781.290519 805.458735 C 1781.984831 808.235984 1782.331987 811.097223 1782.331987 814.053649 C 1782.331987 816.830898 1782.331987 819.955304 1782.331987 823.426865 C 1782.331987 834.883018 1781.290519 845.560869 1779.207582 855.45482 L 1290.66369 855.45482 C 1290.66369 893.132461 1300.736818 925.507571 1320.871875 952.59135 C 1341.186109 979.675129 1366.444518 1000.510098 1396.652703 1015.090656 C 1427.034465 1029.676813 1456.374759 1036.967093 1484.673585 1036.967093 C 1520.268289 1036.967093 1553.51129 1029.156079 1584.413786 1013.528453 C 1615.489861 997.732848 1639.538823 973.515907 1656.549475 940.872031 L 1764.363857 940.872031 C 1750.130454 982.889123 1728.427596 1017.957494 1699.26088 1046.082741 C 1670.094164 1074.034411 1636.845564 1094.953368 1599.520678 1108.845214 C 1562.195793 1122.73146 1523.566272 1129.674583 1483.632116 1129.674583 C 1446.654387 1129.674583 1410.37097 1123.515361 1374.781865 1111.185718 C 1339.360739 1098.688097 1307.416774 1080.025654 1278.944371 1055.19839 C 1250.471967 1030.197548 1227.906817 999.031884 1211.237723 961.706999 C 1194.568628 924.382113 1186.236881 880.802818 1186.236881 830.980311 C 1186.236881 781.152205 1194.568628 737.746488 1211.237723 700.768758 C 1227.906817 663.791029 1250.471967 632.888532 1278.944371 608.061268 C 1307.416774 583.234004 1339.360739 564.571562 1374.781865 552.068341 C 1410.37097 539.57072 1447.438288 533.321909 1485.97822 533.321909 C 1533.549811 533.321909 1579.206444 543.479026 1622.959318 563.787661 C 1666.706592 584.101895 1703.163587 614.399668 1732.330303 654.67538 C 1761.497019 694.777515 1777.818957 745.042366 1781.290519 805.458735 Z M 1671.3932 769.259307 C 1664.970811 734.364515 1652.299612 706.412845 1633.374002 685.404299 C 1614.621971 664.395753 1592.230399 649.120882 1566.188088 639.574088 C 1540.319356 630.021695 1513.582733 625.251097 1485.97822 625.251097 C 1458.200129 625.251097 1430.942771 630.021695 1404.206149 639.574088 C 1377.643104 649.120882 1354.551621 664.569331 1334.937298 685.925033 C 1315.317376 707.280736 1301.951865 735.058827 1294.829564 769.259307 Z M 2486.336663 372.381437 L 2486.336663 1119.002331 L 2381.904254 1119.002331 L 2381.904254 1041.132966 C 2361.248463 1072.382619 2332.949638 1094.606212 2297.007778 1107.803745 C 2261.071517 1120.995679 2224.961678 1127.938802 2188.678261 1128.633114 C 2121.833904 1128.633114 2065.49942 1115.52517 2019.663609 1089.314881 C 1973.833398 1062.925414 1939.369751 1026.983554 1916.278268 981.500499 C 1893.192384 935.838266 1881.646642 884.621536 1881.646642 827.855906 C 1881.646642 772.299723 1893.53954 722.298039 1917.319737 677.850853 C 1941.105532 633.409267 1975.916335 598.077729 2021.746546 571.861841 C 2067.755935 545.472374 2123.048951 532.28044 2187.636792 532.28044 C 2223.225897 532.28044 2258.294268 537.834939 2292.841904 548.943936 C 2327.38954 559.884954 2357.082589 582.455703 2381.904254 616.656183 L 2381.904254 372.381437 Z M 2381.904254 829.938843 C 2381.904254 783.755876 2372.447049 745.5631 2353.521439 715.354916 C 2334.769408 685.146732 2310.636456 662.402404 2281.122584 647.121935 C 2251.608712 631.673486 2220.448648 623.946462 2187.636792 623.946462 C 2145.098965 623.946462 2108.899538 633.930001 2079.03851 653.897079 C 2049.177481 673.858557 2026.175587 699.469722 2010.032826 730.719375 C 1994.058044 761.969028 1986.073452 795.038451 1986.073452 829.938843 C 1986.073452 868.999509 1993.884466 904.241457 2009.512092 935.664688 C 2025.134118 966.914341 2048.052024 991.484038 2078.260208 1009.362579 C 2108.64197 1027.073142 2144.751809 1035.925624 2186.595324 1035.925624 C 2219.407179 1035.925624 2250.740822 1028.461767 2280.60185 1013.528453 C 2310.462878 998.427161 2334.769408 975.598844 2353.521439 945.043504 C 2372.447049 914.488163 2381.904254 876.11621 2381.904254 829.938843 Z M 2752.12949 613.268611 C 2772.617303 584.275473 2796.923832 563.182937 2825.04908 549.985404 C 2853.174327 536.79347 2883.208934 530.197503 2915.152899 530.197503 C 2926.609052 530.197503 2937.981215 530.891816 2949.269389 532.28044 C 2960.725542 533.669065 2972.097706 535.835991 2983.380281 538.792418 L 2983.380281 630.458439 C 2966.369629 625.424675 2948.659067 622.904993 2930.259791 622.904993 C 2898.136648 622.904993 2868.538787 630.979174 2841.455008 647.121935 C 2814.544807 663.096717 2792.931537 684.799575 2776.609598 712.230511 C 2760.293259 739.482268 2752.12949 770.911099 2752.12949 806.500203 L 2752.12949 1119.002331 L 2648.486582 1119.002331 L 2648.486582 542.958292 L 2752.12949 542.958292 Z M 3693.885736 830.980311 C 3693.885736 880.802818 3685.117243 924.382113 3667.580259 961.706999 C 3650.222451 999.031884 3626.610233 1030.197548 3596.749205 1055.19839 C 3566.888177 1080.025654 3533.292421 1098.688097 3495.967535 1111.185718 C 3458.64265 1123.515361 3420.444275 1129.674583 3381.383608 1129.674583 C 3343.017255 1129.674583 3305.339614 1123.515361 3268.361884 1111.185718 C 3231.384155 1098.688097 3198.135555 1080.025654 3168.621683 1055.19839 C 3139.107811 1030.197548 3115.585182 999.031884 3098.048197 961.706999 C 3080.68479 924.382113 3072.005886 880.802818 3072.005886 830.980311 C 3072.005886 781.152205 3080.68479 737.57291 3098.048197 700.248024 C 3115.585182 662.923139 3139.281389 631.847064 3169.142417 607.0198 C 3199.003445 582.192536 3232.599202 563.530093 3269.924087 551.026872 C 3307.248972 538.529251 3345.447348 532.28044 3384.508014 532.28044 C 3423.56868 532.28044 3461.419899 538.529251 3498.050472 551.026872 C 3534.681045 563.530093 3567.756067 582.192536 3597.26994 607.0198 C 3626.783812 631.847064 3650.222451 662.923139 3667.580259 700.248024 C 3685.117243 737.57291 3693.885736 781.152205 3693.885736 830.980311 Z M 3176.432696 830.980311 C 3176.432696 876.463366 3186.589813 914.314585 3206.904047 944.522769 C 3227.218281 974.730954 3253.171003 997.55927 3284.767812 1013.007719 C 3316.364621 1028.288189 3349.266065 1035.925624 3383.466545 1035.925624 C 3418.361338 1035.925624 3451.43636 1028.288189 3482.686013 1013.007719 C 3513.935666 997.55927 3539.714809 974.557376 3560.029043 944.002035 C 3580.343278 913.441095 3590.500395 875.769054 3590.500395 830.980311 C 3590.500395 785.491657 3580.516856 747.472459 3560.549778 716.917119 C 3540.5827 686.361778 3514.803556 663.443873 3483.206747 648.163403 C 3451.609938 632.888532 3418.708494 625.251097 3384.508014 625.251097 C 3349.613221 625.251097 3316.364621 632.888532 3284.767812 648.163403 C 3253.171003 663.443873 3227.218281 686.1882 3206.904047 716.396384 C 3186.589813 746.604569 3176.432696 784.797345 3176.432696 830.980311 Z M 4120.607836 740.355758 C 4151.163176 740.355758 4176.337597 733.92777 4196.131096 721.082992 C 4216.092575 708.232616 4231.025889 691.916277 4240.919839 672.122777 C 4250.992967 652.155699 4256.026731 631.499908 4256.026731 610.144205 C 4256.026731 588.788503 4250.992967 567.522389 4240.919839 546.340264 C 4231.025889 524.990161 4216.092575 507.19001 4196.131096 492.956607 C 4176.337597 478.717606 4151.163176 471.600905 4120.607836 471.600905 L 3955.243923 471.600905 L 3955.243923 1119.002331 L 3848.47101 1119.002331 L 3848.47101 362.745055 L 4120.607836 362.745055 C 4161.062726 362.745055 4196.562242 370.040933 4227.117583 384.621491 C 4257.672923 399.207649 4283.11051 418.390826 4303.419145 442.176621 C 4323.733379 465.962417 4338.840271 492.435873 4348.734221 521.602589 C 4358.801749 550.769305 4363.841113 580.283177 4363.841113 610.144205 C 4363.841113 645.038998 4356.718812 678.718744 4342.48541 711.183443 C 4328.246409 743.480163 4306.722727 770.82151 4277.903168 793.218681 C 4249.083608 815.615852 4213.315326 830.717144 4170.60952 838.528158 L 4406.289351 1119.002331 L 4266.704582 1119.002331 L 3994.567756 791.656478 L 3994.567756 740.355758 Z M 5038.897445 805.458735 C 5039.591758 808.235984 5039.938914 811.097223 5039.938914 814.053649 C 5039.938914 816.830898 5039.938914 819.955304 5039.938914 823.426865 C 5039.938914 834.883018 5038.897445 845.560869 5036.814509 855.45482 L 4548.270617 855.45482 C 4548.270617 893.132461 4558.338146 925.507571 4578.478802 952.59135 C 4598.793036 979.675129 4624.051445 1000.510098 4654.25963 1015.090656 C 4684.641392 1029.676813 4713.981686 1036.967093 4742.280512 1036.967093 C 4777.869616 1036.967093 4811.118217 1029.156079 4842.020713 1013.528453 C 4873.096788 997.732848 4897.140151 973.515907 4914.156402 940.872031 L 5021.970783 940.872031 C 5007.731782 982.889123 4986.028923 1017.957494 4956.862207 1046.082741 C 4927.695491 1074.034411 4894.45249 1094.953368 4857.127605 1108.845214 C 4819.79712 1122.73146 4781.1676 1129.674583 4741.239043 1129.674583 C 4704.261314 1129.674583 4667.977897 1123.515361 4632.383193 1111.185718 C 4596.967666 1098.688097 4565.023701 1080.025654 4536.551297 1055.19839 C 4508.078894 1030.197548 4485.508145 999.031884 4468.84465 961.706999 C 4452.175555 924.382113 4443.843808 880.802818 4443.843808 830.980311 C 4443.843808 781.152205 4452.175555 737.746488 4468.84465 700.768758 C 4485.508145 663.791029 4508.078894 632.888532 4536.551297 608.061268 C 4565.023701 583.234004 4596.967666 564.571562 4632.383193 552.068341 C 4667.977897 539.57072 4705.039615 533.321909 4743.585147 533.321909 C 4791.151139 533.321909 4836.813371 543.479026 4880.560645 563.787661 C 4924.313519 584.101895 4960.770514 614.399668 4989.93723 654.67538 C 5019.103946 694.777515 5035.425884 745.042366 5038.897445 805.458735 Z M 4929.000127 769.259307 C 4922.577738 734.364515 4909.900939 706.412845 4890.980929 685.404299 C 4872.228898 664.395753 4849.831727 649.120882 4823.789416 639.574088 C 4797.920684 630.021695 4771.18966 625.251097 4743.585147 625.251097 C 4715.807055 625.251097 4688.549698 630.021695 4661.813075 639.574088 C 4635.250031 649.120882 4612.158547 664.569331 4592.538626 685.925033 C 4572.924303 707.280736 4559.553192 735.058827 4552.436491 769.259307 Z M 5773.888608 830.980311 C 5773.888608 880.802818 5765.120115 924.382113 5747.58313 961.706999 C 5730.225323 999.031884 5706.613105 1030.197548 5676.752077 1055.19839 C 5646.891049 1080.025654 5613.295292 1098.688097 5575.970407 1111.185718 C 5538.645521 1123.515361 5500.447146 1129.674583 5461.38648 1129.674583 C 5423.020126 1129.674583 5385.342485 1123.515361 5348.364756 1111.185718 C 5311.387027 1098.688097 5278.138427 1080.025654 5248.624554 1055.19839 C 5219.110682 1030.197548 5195.588054 999.031884 5178.051069 961.706999 C 5160.687662 924.382113 5152.008758 880.802818 5152.008758 830.980311 C 5152.008758 781.152205 5160.687662 737.57291 5178.051069 700.248024 C 5195.588054 662.923139 5219.28426 631.847064 5249.145289 607.0198 C 5279.006317 582.192536 5312.602073 563.530093 5349.926959 551.026872 C 5387.251844 538.529251 5425.450219 532.28044 5464.510886 532.28044 C 5503.571552 532.28044 5541.422771 538.529251 5578.053344 551.026872 C 5614.683917 563.530093 5647.758939 582.192536 5677.272811 607.0198 C 5706.786683 631.847064 5730.225323 662.923139 5747.58313 700.248024 C 5765.120115 737.57291 5773.888608 781.152205 5773.888608 830.980311 Z M 5256.435568 830.980311 C 5256.435568 876.463366 5266.592685 914.314585 5286.906919 944.522769 C 5307.221153 974.730954 5333.173875 997.55927 5364.770684 1013.007719 C 5396.367493 1028.288189 5429.268937 1035.925624 5463.469417 1035.925624 C 5498.364209 1035.925624 5531.439232 1028.288189 5562.688885 1013.007719 C 5593.938537 997.55927 5619.717681 974.557376 5640.031915 944.002035 C 5660.346149 913.441095 5670.503266 875.769054 5670.503266 830.980311 C 5670.503266 785.491657 5660.519727 747.472459 5640.552649 716.917119 C 5620.585572 686.361778 5594.806428 663.443873 5563.209619 648.163403 C 5531.61281 632.888532 5498.711366 625.251097 5464.510886 625.251097 C 5429.616093 625.251097 5396.367493 632.888532 5364.770684 648.163403 C 5333.173875 663.443873 5307.221153 686.1882 5286.906919 716.396384 C 5266.592685 746.604569 5256.435568 784.797345 5256.435568 830.980311 Z M 5916.754562 1119.002331 L 5916.754562 372.381437 L 6021.444538 372.381437 L 6021.444538 1119.002331 Z M 6175.038738 393.73714 C 6175.038738 373.770062 6181.897871 358.842348 6195.610539 348.942798 C 6209.502385 338.87527 6224.693266 333.841505 6241.188782 333.841505 C 6257.505121 333.841505 6272.175268 338.701692 6285.199223 348.422064 C 6298.391157 357.974457 6304.987124 373.07575 6304.987124 393.73714 C 6304.987124 413.53064 6298.217579 428.631932 6284.678489 439.052216 C 6271.307378 449.293323 6256.379663 454.416675 6239.884147 454.416675 C 6224.256521 454.416675 6209.502385 449.293323 6195.610539 439.052216 C 6181.897871 428.631932 6175.038738 413.53064 6175.038738 393.73714 Z M 6187.799526 535.404846 L 6187.799526 1119.002331 L 6292.226336 1119.002331 L 6292.226336 535.404846 Z M 6397.912986 1188.271181 L 6705.202172 289.047164 L 6808.587513 289.047164 L 6502.339796 1188.271181 Z M 7293.805425 720.041524 L 7293.805425 793.739415 L 6857.603722 1019.782863 L 6857.603722 903.636734 L 7159.427998 754.152415 L 6857.603722 607.0198 L 6857.603722 487.486098 Z M 7293.805425 720.041524 " stroke="#002f79" stroke-width="80.000252" stroke-opacity="1" stroke-miterlimit="4"/></g><g fill="#3a81f2" fill-opacity="1"><g transform="translate(31.043864, 1555.369468)"><g><path d="M 104.921875 -261.1875 L 315.515625 -155.53125 L 315.515625 -76.640625 L 11.90625 -234.40625 L 11.90625 -285.75 L 315.515625 -447.96875 L 315.515625 -365.375 Z M 104.921875 -261.1875 "/></g></g></g><g fill="#3a81f2" fill-opacity="1"><g transform="translate(380.791021, 1555.369468)"><g><path d="M 254.5 -520.90625 C 292.195312 -520.90625 323.445312 -512.46875 348.25 -495.59375 C 373.0625 -478.726562 391.789062 -457.023438 404.4375 -430.484375 C 417.09375 -403.941406 423.421875 -376.035156 423.421875 -346.765625 C 423.421875 -317.992188 417.09375 -290.335938 404.4375 -263.796875 C 391.789062 -237.253906 373.0625 -215.550781 348.25 -198.6875 C 323.445312 -181.820312 292.195312 -173.390625 254.5 -173.390625 L 139.90625 -173.390625 L 139.90625 0 L 64 0 L 64 -520.90625 Z M 254.5 -247.796875 C 275.832031 -247.796875 293.441406 -252.632812 307.328125 -262.3125 C 321.222656 -271.988281 331.640625 -284.265625 338.578125 -299.140625 C 345.523438 -314.023438 349 -329.65625 349 -346.03125 C 349 -362.894531 345.523438 -378.765625 338.578125 -393.640625 C 331.640625 -408.523438 321.222656 -420.804688 307.328125 -430.484375 C 293.441406 -440.160156 275.832031 -445 254.5 -445 L 139.90625 -445 L 139.90625 -247.796875 Z M 254.5 -247.796875 "/></g></g></g><g fill="#3a81f2" fill-opacity="1"><g transform="translate(822.811711, 1555.369468)"><g><path d="M 450.953125 -218.78125 C 451.441406 -216.789062 451.6875 -214.800781 451.6875 -212.8125 C 451.6875 -210.832031 451.6875 -208.601562 451.6875 -206.125 C 451.6875 -198.1875 450.945312 -190.742188 449.46875 -183.796875 L 108.640625 -183.796875 C 108.640625 -157.503906 115.707031 -134.929688 129.84375 -116.078125 C 143.988281 -97.234375 161.601562 -82.722656 182.6875 -72.546875 C 203.769531 -62.378906 224.234375 -57.296875 244.078125 -57.296875 C 268.878906 -57.296875 292.070312 -62.753906 313.65625 -73.671875 C 335.238281 -84.585938 351.984375 -101.453125 363.890625 -124.265625 L 439.046875 -124.265625 C 429.117188 -95.003906 413.984375 -70.570312 393.640625 -50.96875 C 373.304688 -31.375 350.113281 -16.738281 324.0625 -7.0625 C 298.019531 2.601562 271.109375 7.4375 243.328125 7.4375 C 217.535156 7.4375 192.234375 3.097656 167.421875 -5.578125 C 142.617188 -14.265625 120.296875 -27.285156 100.453125 -44.640625 C 80.609375 -62.003906 64.859375 -83.707031 53.203125 -109.75 C 41.546875 -135.800781 35.71875 -166.191406 35.71875 -200.921875 C 35.71875 -235.648438 41.546875 -265.910156 53.203125 -291.703125 C 64.859375 -317.503906 80.609375 -339.082031 100.453125 -356.4375 C 120.296875 -373.800781 142.617188 -386.820312 167.421875 -395.5 C 192.234375 -404.1875 218.035156 -408.53125 244.828125 -408.53125 C 278.066406 -408.53125 309.9375 -401.460938 340.4375 -387.328125 C 370.945312 -373.191406 396.375 -352.109375 416.71875 -324.078125 C 437.0625 -296.046875 448.472656 -260.945312 450.953125 -218.78125 Z M 374.296875 -244.078125 C 369.835938 -268.390625 361.035156 -287.863281 347.890625 -302.5 C 334.742188 -317.132812 319.113281 -327.796875 301 -334.484375 C 282.894531 -341.179688 264.171875 -344.53125 244.828125 -344.53125 C 225.472656 -344.53125 206.492188 -341.179688 187.890625 -334.484375 C 169.285156 -327.796875 153.160156 -317.007812 139.515625 -302.125 C 125.878906 -287.238281 116.582031 -267.890625 111.625 -244.078125 Z M 374.296875 -244.078125 "/></g></g></g><g fill="#3a81f2" fill-opacity="1"><g transform="translate(1313.945852, 1555.369468)"><g><path d="M 451.6875 -520.90625 L 451.6875 0 L 378.765625 0 L 378.765625 -54.328125 C 364.378906 -32.492188 344.660156 -16.988281 319.609375 -7.8125 C 294.554688 1.363281 269.378906 6.203125 244.078125 6.703125 C 197.441406 6.703125 158.125 -2.472656 126.125 -20.828125 C 94.132812 -39.191406 70.078125 -64.25 53.953125 -96 C 37.828125 -127.75 29.765625 -163.46875 29.765625 -203.15625 C 29.765625 -241.84375 38.070312 -276.691406 54.6875 -307.703125 C 71.3125 -338.710938 95.625 -363.394531 127.625 -381.75 C 159.625 -400.101562 198.191406 -409.28125 243.328125 -409.28125 C 268.140625 -409.28125 292.570312 -405.429688 316.625 -397.734375 C 340.6875 -390.046875 361.398438 -374.296875 378.765625 -350.484375 L 378.765625 -520.90625 Z M 378.765625 -201.65625 C 378.765625 -233.90625 372.191406 -260.570312 359.046875 -281.65625 C 345.898438 -302.738281 329.03125 -318.613281 308.4375 -329.28125 C 287.851562 -339.945312 266.148438 -345.28125 243.328125 -345.28125 C 213.566406 -345.28125 188.265625 -338.332031 167.421875 -324.4375 C 146.585938 -310.550781 130.585938 -292.691406 119.421875 -270.859375 C 108.265625 -249.035156 102.6875 -225.96875 102.6875 -201.65625 C 102.6875 -174.375 108.144531 -149.816406 119.0625 -127.984375 C 129.976562 -106.160156 145.976562 -89.046875 167.0625 -76.640625 C 188.144531 -64.242188 213.320312 -58.046875 242.59375 -58.046875 C 265.414062 -58.046875 287.242188 -63.253906 308.078125 -73.671875 C 328.910156 -84.085938 345.898438 -99.960938 359.046875 -121.296875 C 372.191406 -142.628906 378.765625 -169.414062 378.765625 -201.65625 Z M 378.765625 -201.65625 "/></g></g></g><g fill="#3a81f2" fill-opacity="1"><g transform="translate(1822.939453, 1555.369468)"><g><path d="M 128 -352.71875 C 142.382812 -373.0625 159.375 -387.820312 178.96875 -397 C 198.5625 -406.175781 219.519531 -410.765625 241.84375 -410.765625 C 249.78125 -410.765625 257.71875 -410.269531 265.65625 -409.28125 C 273.59375 -408.289062 281.53125 -406.800781 289.46875 -404.8125 L 289.46875 -340.8125 C 277.5625 -344.289062 265.160156 -346.03125 252.265625 -346.03125 C 229.941406 -346.03125 209.351562 -340.445312 190.5 -329.28125 C 171.644531 -318.125 156.515625 -302.992188 145.109375 -283.890625 C 133.703125 -264.785156 128 -242.832031 128 -218.03125 L 128 0 L 55.8125 0 L 55.8125 -401.84375 L 128 -401.84375 Z M 128 -352.71875 "/></g></g></g><g fill="#3a81f2" fill-opacity="1"><g transform="translate(2135.479435, 1555.369468)"><g><path d="M 472.53125 -200.921875 C 472.53125 -166.191406 466.453125 -135.800781 454.296875 -109.75 C 442.140625 -83.707031 425.644531 -62.003906 404.8125 -44.640625 C 383.976562 -27.285156 360.535156 -14.265625 334.484375 -5.578125 C 308.441406 3.097656 281.78125 7.4375 254.5 7.4375 C 227.707031 7.4375 201.410156 3.097656 175.609375 -5.578125 C 149.816406 -14.265625 126.625 -27.285156 106.03125 -44.640625 C 85.445312 -62.003906 69.078125 -83.707031 56.921875 -109.75 C 44.773438 -135.800781 38.703125 -166.191406 38.703125 -200.921875 C 38.703125 -235.648438 44.773438 -266.035156 56.921875 -292.078125 C 69.078125 -318.117188 85.570312 -339.820312 106.40625 -357.1875 C 127.25 -374.550781 150.691406 -387.570312 176.734375 -396.25 C 202.773438 -404.9375 229.441406 -409.28125 256.734375 -409.28125 C 284.015625 -409.28125 310.425781 -404.9375 335.96875 -396.25 C 361.519531 -387.570312 384.585938 -374.550781 405.171875 -357.1875 C 425.765625 -339.820312 442.140625 -318.117188 454.296875 -292.078125 C 466.453125 -266.035156 472.53125 -235.648438 472.53125 -200.921875 Z M 111.625 -200.921875 C 111.625 -169.171875 118.691406 -142.753906 132.828125 -121.671875 C 146.960938 -100.585938 165.066406 -84.710938 187.140625 -74.046875 C 209.222656 -63.378906 232.171875 -58.046875 255.984375 -58.046875 C 280.296875 -58.046875 303.363281 -63.378906 325.1875 -74.046875 C 347.019531 -84.710938 365.003906 -100.707031 379.140625 -122.03125 C 393.273438 -143.363281 400.34375 -169.660156 400.34375 -200.921875 C 400.34375 -232.671875 393.394531 -259.210938 379.5 -280.546875 C 365.613281 -301.878906 347.632812 -317.875 325.5625 -328.53125 C 303.488281 -339.195312 280.546875 -344.53125 256.734375 -344.53125 C 232.421875 -344.53125 209.222656 -339.195312 187.140625 -328.53125 C 165.066406 -317.875 146.960938 -302 132.828125 -280.90625 C 118.691406 -259.820312 111.625 -233.160156 111.625 -200.921875 Z M 111.625 -200.921875 "/></g></g></g><g fill="#3a81f2" fill-opacity="1"><g transform="translate(2651.91451, 1555.369468)"><g><path d="M 253.75 -264.171875 C 275.082031 -264.171875 292.691406 -268.632812 306.578125 -277.5625 C 320.472656 -286.488281 330.894531 -297.894531 337.84375 -311.78125 C 344.789062 -325.675781 348.265625 -340.066406 348.265625 -354.953125 C 348.265625 -369.835938 344.789062 -384.71875 337.84375 -399.59375 C 330.894531 -414.476562 320.472656 -426.878906 306.578125 -436.796875 C 292.691406 -446.722656 275.082031 -451.6875 253.75 -451.6875 L 138.40625 -451.6875 L 138.40625 0 L 64 0 L 64 -527.59375 L 253.75 -527.59375 C 282.03125 -527.59375 306.835938 -522.507812 328.171875 -512.34375 C 349.503906 -502.175781 367.238281 -488.78125 381.375 -472.15625 C 395.507812 -455.539062 406.050781 -437.0625 413 -416.71875 C 419.945312 -396.375 423.421875 -375.785156 423.421875 -354.953125 C 423.421875 -330.648438 418.457031 -307.210938 408.53125 -284.640625 C 398.613281 -262.066406 383.609375 -242.960938 363.515625 -227.328125 C 343.421875 -211.703125 318.492188 -201.160156 288.734375 -195.703125 L 453.1875 0 L 355.703125 0 L 165.9375 -228.453125 L 165.9375 -264.171875 Z M 253.75 -264.171875 "/></g></g></g><g fill="#3a81f2" fill-opacity="1"><g transform="translate(3095.423634, 1555.369468)"><g><path d="M 450.953125 -218.78125 C 451.441406 -216.789062 451.6875 -214.800781 451.6875 -212.8125 C 451.6875 -210.832031 451.6875 -208.601562 451.6875 -206.125 C 451.6875 -198.1875 450.945312 -190.742188 449.46875 -183.796875 L 108.640625 -183.796875 C 108.640625 -157.503906 115.707031 -134.929688 129.84375 -116.078125 C 143.988281 -97.234375 161.601562 -82.722656 182.6875 -72.546875 C 203.769531 -62.378906 224.234375 -57.296875 244.078125 -57.296875 C 268.878906 -57.296875 292.070312 -62.753906 313.65625 -73.671875 C 335.238281 -84.585938 351.984375 -101.453125 363.890625 -124.265625 L 439.046875 -124.265625 C 429.117188 -95.003906 413.984375 -70.570312 393.640625 -50.96875 C 373.304688 -31.375 350.113281 -16.738281 324.0625 -7.0625 C 298.019531 2.601562 271.109375 7.4375 243.328125 7.4375 C 217.535156 7.4375 192.234375 3.097656 167.421875 -5.578125 C 142.617188 -14.265625 120.296875 -27.285156 100.453125 -44.640625 C 80.609375 -62.003906 64.859375 -83.707031 53.203125 -109.75 C 41.546875 -135.800781 35.71875 -166.191406 35.71875 -200.921875 C 35.71875 -235.648438 41.546875 -265.910156 53.203125 -291.703125 C 64.859375 -317.503906 80.609375 -339.082031 100.453125 -356.4375 C 120.296875 -373.800781 142.617188 -386.820312 167.421875 -395.5 C 192.234375 -404.1875 218.035156 -408.53125 244.828125 -408.53125 C 278.066406 -408.53125 309.9375 -401.460938 340.4375 -387.328125 C 370.945312 -373.191406 396.375 -352.109375 416.71875 -324.078125 C 437.0625 -296.046875 448.472656 -260.945312 450.953125 -218.78125 Z M 374.296875 -244.078125 C 369.835938 -268.390625 361.035156 -287.863281 347.890625 -302.5 C 334.742188 -317.132812 319.113281 -327.796875 301 -334.484375 C 282.894531 -341.179688 264.171875 -344.53125 244.828125 -344.53125 C 225.472656 -344.53125 206.492188 -341.179688 187.890625 -334.484375 C 169.285156 -327.796875 153.160156 -317.007812 139.515625 -302.125 C 125.878906 -287.238281 116.582031 -267.890625 111.625 -244.078125 Z M 374.296875 -244.078125 "/></g></g></g><g fill="#3a81f2" fill-opacity="1"><g transform="translate(3586.557775, 1555.369468)"><g><path d="M 472.53125 -200.921875 C 472.53125 -166.191406 466.453125 -135.800781 454.296875 -109.75 C 442.140625 -83.707031 425.644531 -62.003906 404.8125 -44.640625 C 383.976562 -27.285156 360.535156 -14.265625 334.484375 -5.578125 C 308.441406 3.097656 281.78125 7.4375 254.5 7.4375 C 227.707031 7.4375 201.410156 3.097656 175.609375 -5.578125 C 149.816406 -14.265625 126.625 -27.285156 106.03125 -44.640625 C 85.445312 -62.003906 69.078125 -83.707031 56.921875 -109.75 C 44.773438 -135.800781 38.703125 -166.191406 38.703125 -200.921875 C 38.703125 -235.648438 44.773438 -266.035156 56.921875 -292.078125 C 69.078125 -318.117188 85.570312 -339.820312 106.40625 -357.1875 C 127.25 -374.550781 150.691406 -387.570312 176.734375 -396.25 C 202.773438 -404.9375 229.441406 -409.28125 256.734375 -409.28125 C 284.015625 -409.28125 310.425781 -404.9375 335.96875 -396.25 C 361.519531 -387.570312 384.585938 -374.550781 405.171875 -357.1875 C 425.765625 -339.820312 442.140625 -318.117188 454.296875 -292.078125 C 466.453125 -266.035156 472.53125 -235.648438 472.53125 -200.921875 Z M 111.625 -200.921875 C 111.625 -169.171875 118.691406 -142.753906 132.828125 -121.671875 C 146.960938 -100.585938 165.066406 -84.710938 187.140625 -74.046875 C 209.222656 -63.378906 232.171875 -58.046875 255.984375 -58.046875 C 280.296875 -58.046875 303.363281 -63.378906 325.1875 -74.046875 C 347.019531 -84.710938 365.003906 -100.707031 379.140625 -122.03125 C 393.273438 -143.363281 400.34375 -169.660156 400.34375 -200.921875 C 400.34375 -232.671875 393.394531 -259.210938 379.5 -280.546875 C 365.613281 -301.878906 347.632812 -317.875 325.5625 -328.53125 C 303.488281 -339.195312 280.546875 -344.53125 256.734375 -344.53125 C 232.421875 -344.53125 209.222656 -339.195312 187.140625 -328.53125 C 165.066406 -317.875 146.960938 -302 132.828125 -280.90625 C 118.691406 -259.820312 111.625 -233.160156 111.625 -200.921875 Z M 111.625 -200.921875 "/></g></g></g><g fill="#3a81f2" fill-opacity="1"><g transform="translate(4102.992683, 1555.369468)"><g><path d="M 55.8125 0 L 55.8125 -520.90625 L 128.734375 -520.90625 L 128.734375 0 Z M 55.8125 0 "/></g></g></g><g fill="#3a81f2" fill-opacity="1"><g transform="translate(4287.540049, 1555.369468)"><g><path d="M 51.34375 -506.015625 C 51.34375 -519.910156 56.179688 -530.328125 65.859375 -537.265625 C 75.535156 -544.210938 86.078125 -547.6875 97.484375 -547.6875 C 108.890625 -547.6875 119.179688 -544.335938 128.359375 -537.640625 C 137.535156 -530.941406 142.125 -520.398438 142.125 -506.015625 C 142.125 -492.128906 137.410156 -481.585938 127.984375 -474.390625 C 118.566406 -467.191406 108.148438 -463.59375 96.734375 -463.59375 C 85.828125 -463.59375 75.535156 -467.191406 65.859375 -474.390625 C 56.179688 -481.585938 51.34375 -492.128906 51.34375 -506.015625 Z M 60.28125 -407.046875 L 60.28125 0 L 133.203125 0 L 133.203125 -407.046875 Z M 60.28125 -407.046875 "/></g></g></g><g fill="#3a81f2" fill-opacity="1"><g transform="translate(4487.714318, 1555.369468)"><g><path d="M 6.703125 48.375 L 221.015625 -578.9375 L 293.1875 -578.9375 L 79.625 48.375 Z M 6.703125 48.375 "/></g></g></g><g fill="#3a81f2" fill-opacity="1"><g transform="translate(4799.51017, 1555.369468)"><g><path d="M 319.984375 -278.3125 L 319.984375 -226.96875 L 15.625 -69.203125 L 15.625 -150.3125 L 226.21875 -254.5 L 15.625 -357.1875 L 15.625 -440.53125 Z M 319.984375 -278.3125 "/></g></g></g></svg>