<svg xmlns="http://www.w3.org/2000/svg" xmlns:xlink="http://www.w3.org/1999/xlink" width="500" zoomAndPan="magnify" viewBox="0 0 375 374.999991" height="500" preserveAspectRatio="xMidYMid meet" version="1.0"><defs><clipPath id="58b4d80099"><path d="M 112.5 142.265625 L 262.5 142.265625 L 262.5 233 L 112.5 233 Z M 112.5 142.265625 " clip-rule="nonzero"/></clipPath></defs><g clip-path="url(#58b4d80099)"><path fill="#707cfc" d="M 147.90625 165.859375 L 176.1875 165.859375 L 176.1875 168.109375 L 150.5 168.109375 L 150.5 185.023438 L 174.65625 185.023438 L 174.65625 187.273438 L 150.5 187.273438 L 150.5 205.847656 L 176.480469 205.847656 L 176.480469 208.097656 L 147.90625 208.097656 Z M 178.722656 165.859375 L 181.726562 165.859375 L 195.042969 184.433594 L 208.652344 165.859375 L 227.167969 142.265625 L 196.75 186.386719 L 212.425781 208.097656 L 209.300781 208.097656 L 195.042969 188.335938 L 180.726562 208.097656 L 177.664062 208.097656 L 193.453125 186.386719 Z M 213.546875 168.109375 L 213.546875 165.859375 L 245.777344 165.859375 L 245.777344 168.109375 L 230.925781 168.109375 L 230.925781 208.097656 L 228.335938 208.097656 L 228.335938 168.109375 L 213.546875 168.105469 Z M 112.523438 165.859375 L 115.765625 165.859375 L 160.453125 232.730469 L 141.984375 208.097656 L 115.234375 169.054688 L 115.117188 208.097656 L 112.527344 208.097656 L 112.527344 165.859375 Z M 245.511719 205.171875 C 244.984375 205.171875 244.585938 204.757812 244.585938 204.230469 C 244.585938 203.699219 244.984375 203.289062 245.511719 203.289062 C 246.046875 203.289062 246.441406 203.699219 246.441406 204.230469 C 246.441406 204.757812 246.046875 205.171875 245.511719 205.171875 Z M 248.058594 202.695312 L 249.449219 202.695312 C 249.464844 203.445312 250.015625 203.949219 250.820312 203.949219 C 251.722656 203.949219 252.234375 203.410156 252.234375 202.394531 L 252.234375 195.953125 L 253.648438 195.953125 L 253.648438 202.398438 C 253.648438 204.230469 252.589844 205.285156 250.835938 205.285156 C 249.191406 205.285156 248.058594 204.261719 248.058594 202.695312 Z M 255.496094 202.613281 L 256.894531 202.613281 C 257.011719 203.480469 257.859375 204.027344 259.078125 204.027344 C 260.210938 204.027344 261.042969 203.441406 261.042969 202.632812 C 261.042969 201.9375 260.511719 201.519531 259.308594 201.234375 L 258.136719 200.953125 C 256.492188 200.566406 255.742188 199.773438 255.742188 198.433594 C 255.742188 196.8125 257.066406 195.734375 259.050781 195.734375 C 260.898438 195.734375 262.246094 196.8125 262.328125 198.34375 L 260.957031 198.34375 C 260.824219 197.503906 260.089844 196.980469 259.03125 196.980469 C 257.914062 196.980469 257.171875 197.519531 257.171875 198.339844 C 257.171875 198.988281 257.652344 199.363281 258.839844 199.640625 L 259.839844 199.886719 C 261.707031 200.324219 262.476562 201.082031 262.476562 202.449219 C 262.476562 204.191406 261.125 205.285156 258.96875 205.285156 C 256.953125 205.285156 255.597656 204.242188 255.496094 202.613281 Z M 255.496094 202.613281 " fill-opacity="1" fill-rule="nonzero"/></g></svg>