<svg xmlns="http://www.w3.org/2000/svg" xmlns:xlink="http://www.w3.org/1999/xlink" width="500" zoomAndPan="magnify" viewBox="0 0 375 374.999991" height="500" preserveAspectRatio="xMidYMid meet" version="1.0"><defs><clipPath id="ac7b3a2573"><path d="M 57.128906 188.53125 L 317.261719 188.53125 L 317.261719 337.59375 L 57.128906 337.59375 Z M 57.128906 188.53125 " clip-rule="nonzero"/></clipPath><clipPath id="c5f447968c"><path d="M 0.222656 325.710938 L 374.816406 325.710938 L 374.816406 337.59375 L 0.222656 337.59375 Z M 0.222656 325.710938 " clip-rule="nonzero"/></clipPath><clipPath id="de304c907a"><path d="M 88.628906 304 L 286.777344 304 L 286.777344 337.59375 L 88.628906 337.59375 Z M 88.628906 304 " clip-rule="nonzero"/></clipPath></defs><path fill="#707cfc" d="M 237.089844 112.277344 C 235.472656 112.277344 233.898438 111.609375 232.777344 110.429688 C 231.878906 109.480469 231.332031 108.382812 230.417969 106.574219 C 228.84375 103.445312 225.925781 97.628906 219.886719 89.980469 C 217.390625 86.816406 216.40625 85.753906 215.710938 85.074219 C 215.238281 84.617188 214.136719 83.578125 212.546875 82.355469 C 211.085938 83.941406 209.445312 85.304688 207.648438 86.429688 C 201.484375 90.277344 195.253906 90.125 190.707031 90.011719 L 190.382812 90.003906 C 190.238281 90 176.050781 89.679688 160.90625 90.726562 L 160.179688 90.777344 C 155.277344 91.109375 150.203125 91.457031 146.402344 93.484375 C 142.777344 95.414062 140.648438 99.480469 139.28125 107.078125 C 138.875 109.308594 137.3125 111.160156 135.1875 111.910156 C 132.597656 112.820312 129.828125 111.957031 128.128906 109.703125 C 125.210938 105.824219 124.640625 100.667969 124.230469 96.902344 L 124.214844 96.773438 C 123.628906 91.460938 122.5 78.566406 124.59375 73.574219 C 125.730469 70.875 129.136719 63.84375 136.257812 56.960938 C 150.25 43.441406 173.273438 38.125 177.75 37.199219 C 186.484375 35.382812 194.839844 34.738281 202.582031 35.277344 C 208.03125 35.652344 212.648438 36.335938 216.6875 37.359375 C 222.097656 38.730469 226.34375 41.394531 228.972656 45.0625 C 230.328125 46.957031 231.164062 48.898438 231.894531 50.613281 C 232.570312 52.195312 233.152344 53.554688 233.949219 54.40625 C 235.058594 55.589844 236.566406 56.664062 238.160156 57.800781 C 239.9375 59.070312 241.949219 60.5 243.761719 62.351562 C 248.191406 66.867188 253.195312 74.433594 253.972656 82.125 C 254.695312 89.320312 251.574219 95.539062 248.78125 100.15625 C 248.457031 100.683594 246.914062 103.082031 245.378906 105.335938 C 242.261719 109.886719 240.757812 111.917969 237.710938 112.246094 C 237.507812 112.265625 237.296875 112.277344 237.089844 112.277344 Z M 211.277344 68.957031 C 213.898438 68.957031 216.058594 70.46875 217.4375 71.433594 L 217.570312 71.523438 C 220.660156 73.675781 222.859375 75.695312 223.894531 76.707031 C 225.023438 77.808594 226.332031 79.257812 229.074219 82.730469 C 233.074219 87.796875 235.855469 92.144531 237.820312 95.570312 C 238.242188 94.933594 238.578125 94.398438 238.769531 94.085938 C 241.519531 89.546875 242.613281 86.214844 242.324219 83.296875 C 241.949219 79.5625 239.101562 74.320312 235.402344 70.542969 C 234.316406 69.4375 232.886719 68.417969 231.371094 67.335938 C 229.464844 65.980469 227.308594 64.441406 225.402344 62.40625 C 223.199219 60.054688 222.054688 57.371094 221.132812 55.214844 C 220.5625 53.878906 220.070312 52.734375 219.457031 51.875 C 218.472656 50.507812 216.472656 49.378906 213.8125 48.707031 C 210.457031 47.855469 206.515625 47.285156 201.765625 46.953125 C 195.09375 46.488281 187.8125 47.0625 180.128906 48.65625 C 169.300781 50.902344 153.445312 56.632812 144.394531 65.378906 C 138.804688 70.777344 136.171875 76.265625 135.433594 77.996094 C 135.191406 78.921875 134.945312 82.199219 135.207031 87.589844 C 136.761719 85.878906 138.632812 84.355469 140.898438 83.15625 C 146.910156 79.949219 153.539062 79.496094 159.386719 79.097656 L 160.101562 79.050781 C 175.808594 77.960938 190.0625 78.289062 190.660156 78.304688 L 190.992188 78.3125 C 194.894531 78.40625 198.261719 78.488281 201.449219 76.5 C 203.109375 75.460938 204.53125 73.976562 205.6875 72.082031 C 206.613281 70.542969 208.089844 69.492188 209.847656 69.109375 C 210.335938 69.003906 210.8125 68.957031 211.277344 68.957031 Z M 215.734375 78.089844 C 215.726562 78.101562 215.71875 78.121094 215.707031 78.132812 C 215.71875 78.121094 215.726562 78.101562 215.734375 78.089844 Z M 215.734375 78.089844 " fill-opacity="1" fill-rule="evenodd"/><path fill="#707cfc" d="M 188.082031 192.304688 C 184.785156 192.304688 181.039062 191.984375 177.007812 191.097656 C 173.410156 190.304688 164.054688 187.648438 154.871094 180.128906 C 150.476562 176.523438 142.40625 168.574219 137.820312 155.820312 C 136.652344 152.578125 135.867188 149.117188 135.390625 146.601562 C 132.308594 145.132812 129.476562 143 127.0625 140.300781 C 123.824219 136.679688 121.566406 132.296875 120.53125 127.625 C 118.421875 118.089844 121.648438 108.75 129.390625 101.996094 C 131.824219 99.871094 135.523438 100.121094 137.644531 102.558594 C 139.773438 104.988281 139.523438 108.6875 137.085938 110.8125 C 131.347656 115.820312 131.132812 121.34375 131.960938 125.09375 C 133.164062 130.53125 137.394531 135.316406 142.25 136.726562 C 144.476562 137.371094 146.109375 139.269531 146.417969 141.5625 C 146.78125 144.210938 147.625 148.492188 148.835938 151.859375 C 152.601562 162.339844 159.5 168.789062 162.292969 171.070312 C 169.515625 176.988281 176.75 179.054688 179.527344 179.664062 C 187.421875 181.40625 193.929688 180.261719 196.359375 179.683594 C 202.992188 178.121094 207.480469 175.03125 209.398438 173.710938 C 210.785156 172.761719 214.398438 170.078125 218.089844 165.707031 C 223.417969 159.398438 227.363281 150.785156 229.492188 140.800781 C 229.992188 138.457031 231.878906 136.648438 234.242188 136.25 C 238.027344 135.613281 242.84375 129.070312 243.386719 121.589844 C 243.757812 116.429688 242.027344 113.195312 238.238281 111.976562 C 235.160156 110.988281 233.464844 107.6875 234.457031 104.613281 C 235.445312 101.535156 238.742188 99.839844 241.820312 100.835938 C 246.644531 102.382812 250.394531 105.472656 252.671875 109.777344 C 254.574219 113.359375 255.394531 117.738281 255.058594 122.429688 C 254.363281 132.058594 248.742188 142.792969 240.15625 146.59375 C 237.476562 157.160156 233.070312 166.117188 227.027344 173.265625 C 222.589844 178.519531 218.234375 181.84375 216.03125 183.355469 C 213.78125 184.90625 207.816406 189.007812 199.050781 191.078125 C 196.691406 191.636719 192.859375 192.304688 188.082031 192.304688 " fill-opacity="1" fill-rule="evenodd"/><path fill="#707cfc" d="M 157.292969 211.132812 C 156.421875 211.132812 155.535156 210.9375 154.699219 210.523438 C 151.804688 209.085938 150.621094 205.578125 152.058594 202.679688 C 153.578125 199.609375 156.15625 193.460938 156.332031 186.71875 C 156.402344 184.132812 156.0625 182.941406 155.5 180.960938 C 155.339844 180.398438 155.164062 179.765625 154.984375 179.066406 C 154.179688 175.933594 156.066406 172.746094 159.199219 171.945312 C 162.328125 171.140625 165.519531 173.027344 166.320312 176.15625 C 166.464844 176.710938 166.609375 177.222656 166.761719 177.765625 C 167.445312 180.167969 168.148438 182.65625 168.035156 187.027344 C 167.800781 196.015625 164.496094 203.953125 162.542969 207.882812 C 161.523438 209.941406 159.449219 211.132812 157.292969 211.132812 " fill-opacity="1" fill-rule="evenodd"/><path fill="#707cfc" d="M 217.625 212.960938 C 215.574219 212.960938 213.585938 211.878906 212.511719 209.96875 C 209.558594 204.691406 205.980469 196.429688 205.730469 187.027344 C 205.621094 182.652344 206.324219 180.167969 207.003906 177.769531 C 207.066406 177.542969 207.128906 177.316406 207.195312 177.085938 C 208.0625 173.96875 211.289062 172.144531 214.402344 173.007812 C 217.515625 173.875 219.339844 177.101562 218.472656 180.214844 C 218.40625 180.46875 218.335938 180.714844 218.265625 180.949219 C 217.707031 182.9375 217.367188 184.128906 217.433594 186.722656 C 217.621094 193.730469 220.410156 200.117188 222.726562 204.242188 C 224.304688 207.0625 223.300781 210.628906 220.476562 212.210938 C 219.574219 212.71875 218.59375 212.960938 217.625 212.960938 " fill-opacity="1" fill-rule="evenodd"/><g clip-path="url(#ac7b3a2573)"><path fill="#707cfc" d="M 311.28125 337.589844 L 63.757812 337.589844 C 60.535156 337.589844 57.914062 334.980469 57.90625 331.757812 C 57.851562 314.117188 58.671875 270.023438 67.476562 241.644531 C 69.820312 234.070312 72.675781 227.878906 76.453125 222.171875 C 79.613281 217.390625 88.730469 205.359375 105.050781 197.066406 C 119.976562 189.476562 134.261719 188.34375 143.613281 188.730469 C 145.015625 188.785156 146.355469 189.351562 147.378906 190.3125 L 173.269531 214.617188 C 175.628906 216.832031 175.742188 220.539062 173.53125 222.894531 C 171.320312 225.25 167.617188 225.367188 165.261719 223.152344 L 140.992188 200.371094 C 133.085938 200.292969 121.9375 201.613281 110.355469 207.5 C 96.527344 214.53125 88.871094 224.617188 86.21875 228.625 C 83.027344 233.453125 80.695312 238.539062 78.652344 245.117188 C 71.085938 269.519531 69.796875 308.074219 69.632812 325.882812 L 305.410156 325.882812 C 305.242188 308.074219 303.957031 269.515625 296.382812 245.117188 C 294.347656 238.539062 292.011719 233.453125 288.820312 228.628906 C 286.171875 224.617188 278.511719 214.53125 264.683594 207.5 C 253.058594 201.589844 241.875 200.296875 233.960938 200.371094 L 208.300781 223.257812 C 205.886719 225.40625 202.191406 225.191406 200.035156 222.785156 C 197.882812 220.371094 198.097656 216.671875 200.507812 214.519531 L 227.773438 190.207031 C 228.785156 189.304688 230.074219 188.78125 231.429688 188.726562 C 240.78125 188.34375 255.0625 189.476562 269.992188 197.066406 C 286.308594 205.359375 295.421875 217.390625 298.585938 222.171875 C 302.363281 227.878906 305.214844 234.070312 307.566406 241.644531 C 316.367188 270.023438 317.191406 314.113281 317.136719 331.757812 C 317.125 334.980469 314.507812 337.589844 311.28125 337.589844 " fill-opacity="1" fill-rule="evenodd"/></g><g clip-path="url(#c5f447968c)"><path fill="#707cfc" d="M 368.960938 337.59375 L 6.078125 337.59375 C 2.84375 337.59375 0.222656 334.972656 0.222656 331.738281 C 0.222656 328.507812 2.84375 325.886719 6.078125 325.886719 L 368.960938 325.886719 C 372.199219 325.886719 374.816406 328.507812 374.816406 331.738281 C 374.816406 334.972656 372.199219 337.59375 368.960938 337.59375 " fill-opacity="1" fill-rule="evenodd"/></g><g clip-path="url(#de304c907a)"><path fill="#707cfc" d="M 261.742188 337.59375 L 113.292969 337.59375 C 99.695312 337.59375 88.628906 326.527344 88.628906 312.921875 L 88.628906 310.167969 C 88.628906 306.9375 91.25 304.316406 94.484375 304.316406 L 280.558594 304.316406 C 283.792969 304.316406 286.414062 306.9375 286.414062 310.167969 L 286.414062 312.921875 C 286.414062 326.527344 275.347656 337.59375 261.742188 337.59375 Z M 100.707031 316.023438 C 102.101562 321.679688 107.21875 325.886719 113.292969 325.886719 L 261.742188 325.886719 C 267.824219 325.886719 272.941406 321.675781 274.328125 316.023438 L 100.707031 316.023438 " fill-opacity="1" fill-rule="evenodd"/></g><path fill="#707cfc" d="M 267.785156 316.023438 L 107.257812 316.023438 C 104.027344 316.023438 101.40625 313.402344 101.40625 310.167969 L 101.40625 228.644531 C 101.40625 220.035156 108.40625 213.035156 117.011719 213.035156 L 258.027344 213.035156 C 266.632812 213.035156 273.636719 220.035156 273.636719 228.644531 L 273.636719 310.167969 C 273.636719 313.402344 271.015625 316.023438 267.785156 316.023438 Z M 113.113281 304.316406 L 261.929688 304.316406 L 261.929688 228.644531 C 261.929688 226.492188 260.179688 224.742188 258.027344 224.742188 L 117.011719 224.742188 C 114.863281 224.742188 113.113281 226.492188 113.113281 228.644531 L 113.113281 304.316406 " fill-opacity="1" fill-rule="evenodd"/><path fill="#707cfc" d="M 164.410156 286.867188 C 163.171875 286.867188 161.925781 286.476562 160.867188 285.667969 L 139.277344 269.175781 C 137.828125 268.070312 136.976562 266.351562 136.976562 264.53125 C 136.976562 262.703125 137.828125 260.984375 139.277344 259.878906 L 160.867188 243.390625 C 163.433594 241.429688 167.105469 241.921875 169.066406 244.488281 C 171.03125 247.054688 170.539062 250.730469 167.96875 252.691406 L 152.472656 264.53125 L 167.972656 276.367188 C 170.539062 278.328125 171.03125 282 169.066406 284.570312 C 167.917969 286.074219 166.171875 286.867188 164.410156 286.867188 " fill-opacity="1" fill-rule="evenodd"/><path fill="#707cfc" d="M 210.625 286.867188 C 208.863281 286.867188 207.125 286.074219 205.96875 284.566406 C 204.007812 282 204.5 278.328125 207.070312 276.367188 L 222.566406 264.53125 L 207.070312 252.691406 C 204.5 250.730469 204.007812 247.054688 205.96875 244.488281 C 207.933594 241.921875 211.605469 241.429688 214.175781 243.390625 L 235.765625 259.878906 C 237.210938 260.984375 238.0625 262.703125 238.0625 264.53125 C 238.0625 266.351562 237.210938 268.070312 235.765625 269.175781 L 214.175781 285.667969 C 213.113281 286.476562 211.863281 286.867188 210.625 286.867188 " fill-opacity="1" fill-rule="evenodd"/><path fill="#707cfc" d="M 180.472656 295.625 C 179.945312 295.625 179.417969 295.554688 178.890625 295.40625 C 175.78125 294.539062 173.960938 291.304688 174.828125 288.195312 L 188.9375 237.710938 C 189.808594 234.597656 193.035156 232.777344 196.148438 233.648438 C 199.261719 234.519531 201.078125 237.75 200.210938 240.859375 L 186.105469 291.347656 C 185.382812 293.929688 183.027344 295.625 180.472656 295.625 " fill-opacity="1" fill-rule="evenodd"/></svg>