<svg xmlns="http://www.w3.org/2000/svg" xmlns:xlink="http://www.w3.org/1999/xlink" width="500" zoomAndPan="magnify" viewBox="0 0 375 374.999991" height="500" preserveAspectRatio="xMidYMid meet" version="1.0"><defs><clipPath id="dab7275115"><path d="M 124.5 112.5 L 250.5 112.5 L 250.5 262.5 L 124.5 262.5 Z M 124.5 112.5 " clip-rule="nonzero"/></clipPath></defs><path fill="#707cfc" d="M 177.753906 202.5 C 176.09375 202.5 174.753906 203.839844 174.753906 205.5 L 174.753906 223.5 C 174.753906 225.15625 176.09375 226.5 177.753906 226.5 C 179.410156 226.5 180.753906 225.15625 180.753906 223.5 L 180.753906 219 L 183.003906 219 C 187.554688 219 191.253906 215.300781 191.253906 210.75 C 191.253906 206.199219 187.554688 202.5 183.003906 202.5 Z M 185.253906 210.75 C 185.253906 211.988281 184.242188 213 183.003906 213 L 180.753906 213 L 180.753906 208.5 L 183.003906 208.5 C 184.242188 208.5 185.253906 209.511719 185.253906 210.75 Z M 185.253906 210.75 " fill-opacity="1" fill-rule="nonzero"/><path fill="#707cfc" d="M 203.253906 226.5 C 204.910156 226.5 206.253906 225.15625 206.253906 223.5 L 206.253906 215.40625 L 211.75 207.164062 C 212.667969 205.785156 212.296875 203.921875 210.917969 203.003906 C 209.535156 202.082031 207.675781 202.457031 206.757812 203.835938 L 203.253906 209.089844 L 199.75 203.835938 C 198.832031 202.457031 196.96875 202.082031 195.589844 203.003906 C 194.210938 203.921875 193.835938 205.785156 194.757812 207.164062 L 200.253906 215.40625 L 200.253906 223.5 C 200.253906 225.15625 201.59375 226.5 203.253906 226.5 Z M 203.253906 226.5 " fill-opacity="1" fill-rule="nonzero"/><path fill="#707cfc" d="M 199.503906 238.5 L 235.503906 238.5 C 237.160156 238.5 238.503906 237.15625 238.503906 235.5 L 238.503906 193.5 C 238.503906 191.839844 237.160156 190.5 235.503906 190.5 L 151.503906 190.5 C 149.84375 190.5 148.503906 191.839844 148.503906 193.5 L 148.503906 235.5 C 148.503906 237.15625 149.84375 238.5 151.503906 238.5 L 187.503906 238.5 C 189.160156 238.5 190.503906 237.15625 190.503906 235.5 C 190.503906 233.839844 189.160156 232.5 187.503906 232.5 L 154.503906 232.5 L 154.503906 196.5 L 232.503906 196.5 L 232.503906 232.5 L 199.503906 232.5 C 197.84375 232.5 196.503906 233.839844 196.503906 235.5 C 196.503906 237.15625 197.84375 238.5 199.503906 238.5 Z M 199.503906 238.5 " fill-opacity="1" fill-rule="nonzero"/><path fill="#707cfc" d="M 177.882812 152.121094 C 179.042969 153.28125 180.96875 153.277344 182.125 152.121094 C 183.296875 150.949219 183.296875 149.050781 182.125 147.878906 L 179.746094 145.5 L 182.125 143.121094 C 183.296875 141.949219 183.296875 140.050781 182.125 138.878906 C 180.953125 137.707031 179.054688 137.707031 177.882812 138.878906 L 173.382812 143.378906 C 172.210938 144.550781 172.210938 146.449219 173.382812 147.621094 C 173.382812 147.621094 177.878906 152.117188 177.882812 152.121094 Z M 177.882812 152.121094 " fill-opacity="1" fill-rule="nonzero"/><path fill="#707cfc" d="M 204.882812 152.121094 C 206.042969 153.28125 207.96875 153.277344 209.125 152.121094 L 213.625 147.621094 C 214.796875 146.449219 214.796875 144.550781 213.625 143.378906 L 209.125 138.878906 C 207.953125 137.707031 206.054688 137.707031 204.882812 138.878906 C 203.710938 140.050781 203.710938 141.949219 204.882812 143.121094 L 207.261719 145.5 L 204.882812 147.878906 C 203.710938 149.050781 203.710938 150.949219 204.882812 152.121094 Z M 204.882812 152.121094 " fill-opacity="1" fill-rule="nonzero"/><path fill="#707cfc" d="M 189.160156 154.183594 C 190.628906 154.917969 192.457031 154.304688 193.1875 152.839844 L 199.1875 140.839844 C 199.929688 139.359375 199.328125 137.558594 197.84375 136.816406 C 196.363281 136.074219 194.558594 136.675781 193.820312 138.15625 L 187.820312 150.15625 C 187.078125 151.640625 187.679688 153.441406 189.160156 154.183594 Z M 189.160156 154.183594 " fill-opacity="1" fill-rule="nonzero"/><g clip-path="url(#dab7275115)"><path fill="#707cfc" d="M 247.503906 181.5 C 249.160156 181.5 250.503906 180.15625 250.503906 178.5 L 250.503906 121.5 C 250.503906 116.535156 246.464844 112.5 241.503906 112.5 L 178.503906 112.5 C 167.09375 112.5 156.742188 117.089844 149.164062 124.5 L 133.503906 124.5 C 128.539062 124.5 124.503906 128.535156 124.503906 133.5 L 124.503906 199.5 C 124.503906 201.15625 125.84375 202.5 127.503906 202.5 C 129.160156 202.5 130.503906 201.15625 130.503906 199.5 L 130.503906 133.5 C 130.503906 131.847656 131.847656 130.5 133.503906 130.5 L 144.085938 130.5 C 139.320312 137.308594 136.503906 145.578125 136.503906 154.5 L 136.503906 241.5 C 136.503906 246.460938 140.539062 250.5 145.503906 250.5 L 232.503906 250.5 L 232.503906 253.5 C 232.503906 255.152344 231.160156 256.5 229.503906 256.5 L 133.503906 256.5 C 131.847656 256.5 130.503906 255.152344 130.503906 253.5 L 130.503906 211.5 C 130.503906 209.84375 129.160156 208.5 127.503906 208.5 C 125.84375 208.5 124.503906 209.84375 124.503906 211.5 L 124.503906 253.5 C 124.503906 258.460938 128.539062 262.5 133.503906 262.5 L 229.503906 262.5 C 234.464844 262.5 238.503906 258.460938 238.503906 253.5 L 238.503906 250.5 L 241.503906 250.5 C 246.464844 250.5 250.503906 246.460938 250.503906 241.5 L 250.503906 190.5 C 250.503906 188.84375 249.160156 187.5 247.503906 187.5 C 245.84375 187.5 244.503906 188.84375 244.503906 190.5 L 244.503906 241.5 C 244.503906 243.152344 243.160156 244.5 241.503906 244.5 L 145.503906 244.5 C 143.847656 244.5 142.503906 243.152344 142.503906 241.5 L 142.503906 160.5 C 142.503906 155.621094 144.882812 151.316406 148.503906 148.578125 L 148.503906 163.5 C 148.503906 165.15625 149.847656 166.5 151.503906 166.5 L 235.503906 166.5 C 237.160156 166.5 238.503906 165.15625 238.503906 163.5 L 238.503906 127.5 C 238.503906 125.84375 237.160156 124.5 235.503906 124.5 L 172.582031 124.5 C 175.320312 120.878906 179.625 118.5 184.503906 118.5 L 241.503906 118.5 C 243.160156 118.5 244.503906 119.847656 244.503906 121.5 L 244.503906 178.5 C 244.503906 180.15625 245.84375 181.5 247.503906 181.5 Z M 143.949219 144.488281 C 147.375 132.679688 156.683594 123.375 168.492188 119.945312 C 165.386719 123.605469 163.503906 128.335938 163.503906 133.5 L 163.503906 136.5 C 163.503906 138.152344 162.160156 139.5 160.503906 139.5 L 157.503906 139.5 C 152.339844 139.5 147.609375 141.382812 143.949219 144.488281 Z M 232.503906 130.5 L 232.503906 160.5 L 154.503906 160.5 L 154.503906 145.804688 C 155.472656 145.605469 156.476562 145.5 157.503906 145.5 L 160.503906 145.5 C 165.464844 145.5 169.503906 141.460938 169.503906 136.5 L 169.503906 133.5 C 169.503906 132.472656 169.609375 131.46875 169.808594 130.5 Z M 232.503906 130.5 " fill-opacity="1" fill-rule="nonzero"/></g></svg>