<svg xmlns="http://www.w3.org/2000/svg" xmlns:xlink="http://www.w3.org/1999/xlink" width="500" zoomAndPan="magnify" viewBox="0 0 375 374.999991" height="500" preserveAspectRatio="xMidYMid meet" version="1.0"><defs><clipPath id="0771f8cacf"><path d="M 112.5 120 L 262.5 120 L 262.5 255 L 112.5 255 Z M 112.5 120 " clip-rule="nonzero"/></clipPath></defs><g clip-path="url(#0771f8cacf)"><path fill="#707cfc" d="M 235.726562 164.0625 C 234.175781 163.527344 232.570312 163.023438 230.910156 162.542969 C 231.183594 161.433594 231.433594 160.335938 231.65625 159.257812 C 235.300781 141.550781 232.917969 127.289062 224.773438 122.59375 C 216.964844 118.089844 204.191406 122.785156 191.292969 134.007812 C 190.054688 135.089844 188.808594 136.230469 187.570312 137.429688 C 186.738281 136.636719 185.914062 135.871094 185.089844 135.136719 C 171.574219 123.136719 158.023438 118.078125 149.886719 122.789062 C 142.085938 127.304688 139.777344 140.714844 143.058594 157.492188 C 143.375 159.113281 143.746094 160.769531 144.164062 162.453125 C 142.25 162.996094 140.398438 163.574219 138.625 164.195312 C 122.777344 169.71875 112.65625 178.378906 112.65625 187.359375 C 112.65625 196.632812 123.523438 205.941406 140.027344 211.585938 C 141.332031 212.03125 142.683594 212.449219 144.074219 212.847656 C 143.625 214.667969 143.230469 216.449219 142.902344 218.191406 C 139.769531 234.679688 142.214844 247.773438 149.996094 252.257812 C 158.03125 256.894531 171.519531 252.128906 184.652344 240.652344 C 185.691406 239.746094 186.734375 238.78125 187.773438 237.773438 C 189.132812 239.070312 190.480469 240.304688 191.820312 241.464844 C 204.542969 252.410156 217.109375 256.828125 224.878906 252.332031 C 232.90625 247.683594 235.523438 233.617188 232.128906 216.507812 C 231.875 215.199219 231.570312 213.867188 231.234375 212.507812 C 232.183594 212.226562 233.113281 211.9375 234.019531 211.636719 C 251.179688 205.949219 262.34375 196.761719 262.34375 187.359375 C 262.34375 178.34375 251.894531 169.628906 235.726562 164.0625 Z M 232.007812 205.570312 C 231.1875 205.835938 230.347656 206.101562 229.492188 206.351562 C 227.597656 200.359375 225.042969 193.980469 221.910156 187.390625 C 224.898438 180.957031 227.351562 174.664062 229.195312 168.707031 C 230.726562 169.148438 232.210938 169.617188 233.644531 170.109375 C 247.496094 174.878906 255.945312 181.929688 255.945312 187.359375 C 255.945312 193.144531 246.824219 200.65625 232.007812 205.570312 Z M 225.855469 217.746094 C 227.359375 225.3125 227.570312 232.15625 226.574219 237.503906 C 225.6875 242.3125 223.890625 245.515625 221.675781 246.796875 C 216.957031 249.527344 206.871094 245.976562 195.996094 236.617188 C 194.746094 235.539062 193.488281 234.394531 192.230469 233.183594 C 196.445312 228.570312 200.660156 223.207031 204.777344 217.25 C 212.011719 216.613281 218.847656 215.5625 225.050781 214.128906 C 225.355469 215.363281 225.621094 216.566406 225.855469 217.746094 Z M 163.691406 246.320312 C 159.082031 247.953125 155.410156 248 153.191406 246.71875 C 148.472656 243.996094 146.507812 233.480469 149.183594 219.386719 C 149.492188 217.769531 149.855469 216.109375 150.277344 214.414062 C 156.410156 215.769531 163.195312 216.746094 170.449219 217.332031 C 174.59375 223.160156 178.929688 228.519531 183.296875 233.207031 C 182.34375 234.132812 181.390625 235.007812 180.445312 235.832031 C 174.640625 240.914062 168.820312 244.515625 163.691406 246.320312 Z M 142.097656 205.535156 C 134.800781 203.035156 128.773438 199.796875 124.640625 196.253906 C 120.929688 193.078125 119.054688 189.921875 119.054688 187.359375 C 119.054688 181.910156 127.179688 174.957031 140.734375 170.230469 C 142.378906 169.660156 144.097656 169.117188 145.886719 168.609375 C 147.757812 174.703125 150.214844 181.074219 153.179688 187.511719 C 150.175781 194.050781 147.683594 200.523438 145.792969 206.691406 C 144.519531 206.324219 143.285156 205.9375 142.097656 205.535156 Z M 149.335938 156.265625 C 146.523438 141.886719 148.390625 131.042969 153.09375 128.320312 C 158.101562 125.421875 169.175781 129.554688 180.84375 139.917969 C 181.589844 140.582031 182.339844 141.273438 183.09375 141.992188 C 178.742188 146.664062 174.445312 151.980469 170.339844 157.773438 C 163.300781 158.425781 156.5625 159.472656 150.367188 160.875 C 149.976562 159.308594 149.632812 157.769531 149.335938 156.265625 Z M 213.898438 172.207031 C 212.421875 169.648438 210.902344 167.152344 209.351562 164.722656 C 214.128906 165.324219 218.699219 166.128906 222.996094 167.109375 C 221.710938 171.242188 220.105469 175.566406 218.210938 180 C 216.851562 177.417969 215.414062 174.820312 213.898438 172.207031 Z M 187.570312 146.5625 C 190.523438 149.757812 193.476562 153.324219 196.382812 157.195312 C 193.453125 157.058594 190.488281 156.984375 187.5 156.984375 C 184.542969 156.984375 181.601562 157.054688 178.6875 157.191406 C 181.59375 153.355469 184.578125 149.792969 187.570312 146.5625 Z M 161.074219 172.253906 C 159.59375 174.816406 158.183594 177.402344 156.847656 179.992188 C 154.984375 175.578125 153.390625 171.234375 152.089844 167.039062 C 156.363281 166.085938 160.917969 165.304688 165.660156 164.710938 C 164.089844 167.164062 162.554688 169.679688 161.074219 172.253906 Z M 165.796875 210.460938 C 160.894531 209.917969 156.273438 209.175781 152.003906 208.246094 C 153.324219 203.976562 154.953125 199.546875 156.855469 195.03125 C 158.195312 197.621094 159.609375 200.207031 161.097656 202.78125 C 162.613281 205.398438 164.1875 207.960938 165.796875 210.460938 Z M 187.746094 228.605469 C 184.71875 225.335938 181.695312 221.71875 178.742188 217.828125 C 181.605469 217.941406 184.53125 218 187.5 218 C 190.550781 218 193.570312 217.929688 196.535156 217.800781 C 193.621094 221.757812 190.675781 225.382812 187.746094 228.605469 Z M 218.269531 194.804688 C 220.265625 199.363281 221.957031 203.773438 223.296875 207.972656 C 218.957031 208.960938 214.269531 209.753906 209.332031 210.351562 C 210.890625 207.890625 212.421875 205.347656 213.929688 202.734375 C 215.457031 200.089844 216.898438 197.441406 218.269531 194.804688 Z M 208.386719 199.539062 C 206.046875 203.597656 203.644531 207.46875 201.207031 211.125 C 196.769531 211.4375 192.179688 211.601562 187.5 211.601562 C 182.839844 211.601562 178.308594 211.460938 173.945312 211.175781 C 171.410156 207.472656 168.957031 203.59375 166.632812 199.574219 C 164.3125 195.570312 162.179688 191.53125 160.246094 187.511719 C 162.179688 183.488281 164.308594 179.445312 166.613281 175.445312 C 168.925781 171.4375 171.355469 167.574219 173.871094 163.890625 C 178.320312 163.554688 182.886719 163.378906 187.5 163.378906 C 192.136719 163.378906 196.703125 163.558594 201.152344 163.898438 C 203.632812 167.550781 206.046875 171.402344 208.367188 175.414062 C 210.714844 179.46875 212.871094 183.484375 214.816406 187.425781 C 212.875 191.429688 210.726562 195.488281 208.386719 199.539062 Z M 221.578125 128.128906 C 226.59375 131.019531 228.539062 142.679688 225.390625 157.964844 C 225.191406 158.941406 224.960938 159.933594 224.71875 160.941406 C 218.507812 159.507812 211.765625 158.441406 204.707031 157.78125 C 200.59375 151.921875 196.328125 146.597656 192.050781 141.988281 C 193.203125 140.882812 194.351562 139.824219 195.492188 138.832031 C 206.542969 129.214844 216.875 125.417969 221.578125 128.128906 Z M 187.5 173.992188 C 194.878906 173.992188 200.867188 179.972656 200.867188 187.359375 C 200.867188 194.738281 194.878906 200.726562 187.5 200.726562 C 180.121094 200.726562 174.132812 194.738281 174.132812 187.359375 C 174.132812 179.972656 180.121094 173.992188 187.5 173.992188 Z M 187.5 173.992188 " fill-opacity="1" fill-rule="nonzero"/></g></svg>