<svg xmlns="http://www.w3.org/2000/svg" xmlns:xlink="http://www.w3.org/1999/xlink" width="500" zoomAndPan="magnify" viewBox="0 0 375 374.999991" height="500" preserveAspectRatio="xMidYMid meet" version="1.0"><defs><clipPath id="8b499016be"><path d="M 128.4375 112.5 L 246.9375 112.5 L 246.9375 262.5 L 128.4375 262.5 Z M 128.4375 112.5 " clip-rule="nonzero"/></clipPath><clipPath id="566afdbe7a"><path d="M 208 112.5 L 246.9375 112.5 L 246.9375 148 L 208 148 Z M 208 112.5 " clip-rule="nonzero"/></clipPath></defs><g clip-path="url(#8b499016be)"><path fill="#707cfc" d="M 243.296875 262.488281 L 131.558594 262.488281 C 129.898438 262.488281 128.550781 261.140625 128.550781 259.480469 L 128.550781 115.636719 C 128.550781 113.976562 129.902344 112.628906 131.558594 112.628906 L 209.835938 112.628906 C 210.304688 112.628906 210.75 112.8125 211.082031 113.144531 C 211.40625 113.472656 211.59375 113.917969 211.59375 114.386719 L 211.59375 144.210938 L 244.546875 144.210938 C 245.519531 144.210938 246.300781 145 246.300781 145.96875 L 246.300781 259.480469 C 246.300781 261.140625 244.957031 262.488281 243.296875 262.488281 Z M 132.0625 258.976562 L 242.792969 258.976562 L 242.792969 147.726562 L 209.835938 147.726562 C 208.867188 147.726562 208.082031 146.9375 208.082031 145.96875 L 208.082031 116.140625 L 132.0625 116.140625 Z M 132.0625 258.976562 " fill-opacity="1" fill-rule="evenodd"/></g><g clip-path="url(#566afdbe7a)"><path fill="#707cfc" d="M 244.550781 147.726562 L 209.839844 147.726562 C 208.867188 147.726562 208.082031 146.9375 208.082031 145.96875 L 208.082031 114.386719 C 208.082031 113.691406 208.492188 113.0625 209.128906 112.78125 C 209.761719 112.5 210.507812 112.621094 211.019531 113.089844 L 245.730469 144.667969 C 246.265625 145.15625 246.445312 145.929688 246.1875 146.605469 C 245.925781 147.28125 245.273438 147.726562 244.550781 147.726562 Z M 211.59375 144.210938 L 240.007812 144.210938 L 211.59375 118.359375 Z M 211.59375 144.210938 " fill-opacity="1" fill-rule="evenodd"/></g><path fill="#707cfc" d="M 231.3125 249.492188 L 143.542969 249.492188 C 141.597656 249.492188 140.015625 247.910156 140.015625 245.964844 L 140.015625 200.722656 C 140.015625 198.777344 141.597656 197.199219 143.542969 197.199219 L 231.3125 197.199219 C 233.253906 197.199219 234.839844 198.777344 234.839844 200.722656 L 234.839844 245.964844 C 234.839844 247.910156 233.253906 249.492188 231.3125 249.492188 Z M 143.542969 200.707031 L 143.527344 245.964844 L 231.3125 245.976562 L 231.324219 200.722656 Z M 143.542969 200.707031 " fill-opacity="1" fill-rule="evenodd"/><path fill="#707cfc" d="M 155.476562 238.976562 C 150.683594 238.976562 146.78125 235.074219 146.78125 230.28125 C 146.78125 229.3125 147.570312 228.527344 148.539062 228.527344 C 149.507812 228.527344 150.296875 229.3125 150.296875 230.28125 C 150.296875 233.140625 152.621094 235.464844 155.476562 235.464844 C 158.335938 235.464844 160.660156 233.140625 160.660156 230.28125 C 160.660156 227.425781 158.335938 225.097656 155.476562 225.097656 C 150.683594 225.097656 146.78125 221.199219 146.78125 216.40625 C 146.78125 211.609375 150.683594 207.710938 155.476562 207.710938 C 160.273438 207.710938 164.171875 211.609375 164.171875 216.40625 C 164.171875 217.375 163.386719 218.160156 162.414062 218.160156 C 161.445312 218.160156 160.660156 217.375 160.660156 216.40625 C 160.660156 213.546875 158.335938 211.222656 155.476562 211.222656 C 152.621094 211.222656 150.296875 213.546875 150.296875 216.40625 C 150.296875 219.261719 152.621094 221.585938 155.476562 221.585938 C 160.273438 221.585938 164.171875 225.488281 164.171875 230.28125 C 164.171875 235.074219 160.273438 238.976562 155.476562 238.976562 Z M 155.476562 238.976562 " fill-opacity="1" fill-rule="evenodd"/><path fill="#707cfc" d="M 187.972656 239.003906 C 187.253906 239.003906 186.582031 238.558594 186.320312 237.847656 L 177.839844 214.574219 L 169.363281 237.847656 C 169.027344 238.757812 168.019531 239.230469 167.109375 238.894531 C 166.199219 238.566406 165.730469 237.554688 166.058594 236.644531 L 176.191406 208.839844 C 176.441406 208.148438 177.101562 207.683594 177.839844 207.683594 C 178.578125 207.683594 179.238281 208.148438 179.492188 208.839844 L 189.621094 236.644531 C 189.953125 237.554688 189.480469 238.566406 188.570312 238.894531 C 188.371094 238.96875 188.171875 239.003906 187.972656 239.003906 Z M 187.972656 239.003906 " fill-opacity="1" fill-rule="evenodd"/><path fill="#707cfc" d="M 184.050781 228.242188 L 171.628906 228.242188 C 170.660156 228.242188 169.875 227.457031 169.875 226.488281 C 169.875 225.515625 170.660156 224.730469 171.628906 224.730469 L 184.050781 224.730469 C 185.019531 224.730469 185.804688 225.515625 185.804688 226.488281 C 185.804688 227.457031 185.019531 228.242188 184.050781 228.242188 Z M 184.050781 228.242188 " fill-opacity="1" fill-rule="evenodd"/><path fill="#707cfc" d="M 200.203125 238.976562 C 195.410156 238.976562 191.511719 235.074219 191.511719 230.28125 C 191.511719 229.3125 192.296875 228.527344 193.265625 228.527344 C 194.234375 228.527344 195.019531 229.3125 195.019531 230.28125 C 195.019531 233.140625 197.347656 235.464844 200.203125 235.464844 C 203.0625 235.464844 205.386719 233.140625 205.386719 230.28125 C 205.386719 227.425781 203.0625 225.097656 200.203125 225.097656 C 195.410156 225.097656 191.511719 221.199219 191.511719 216.40625 C 191.511719 211.609375 195.410156 207.710938 200.203125 207.710938 C 204.996094 207.710938 208.898438 211.609375 208.898438 216.40625 C 208.898438 217.375 208.113281 218.160156 207.144531 218.160156 C 206.175781 218.160156 205.386719 217.375 205.386719 216.40625 C 205.386719 213.546875 203.0625 211.222656 200.203125 211.222656 C 197.347656 211.222656 195.019531 213.546875 195.019531 216.40625 C 195.019531 219.261719 197.347656 221.585938 200.203125 221.585938 C 204.996094 221.585938 208.898438 225.488281 208.898438 230.28125 C 208.898438 235.074219 204.996094 238.976562 200.203125 238.976562 Z M 200.203125 238.976562 " fill-opacity="1" fill-rule="evenodd"/><path fill="#707cfc" d="M 219.375 238.976562 C 214.582031 238.976562 210.683594 235.074219 210.683594 230.28125 C 210.683594 229.3125 211.46875 228.527344 212.4375 228.527344 C 213.40625 228.527344 214.195312 229.3125 214.195312 230.28125 C 214.195312 233.140625 216.519531 235.464844 219.375 235.464844 C 222.234375 235.464844 224.558594 233.140625 224.558594 230.28125 C 224.558594 227.425781 222.234375 225.097656 219.375 225.097656 C 214.582031 225.097656 210.683594 221.199219 210.683594 216.40625 C 210.683594 211.609375 214.582031 207.710938 219.375 207.710938 C 224.171875 207.710938 228.070312 211.609375 228.070312 216.40625 C 228.070312 217.375 227.285156 218.160156 226.3125 218.160156 C 225.34375 218.160156 224.558594 217.375 224.558594 216.40625 C 224.558594 213.546875 222.234375 211.222656 219.375 211.222656 C 216.519531 211.222656 214.195312 213.546875 214.195312 216.40625 C 214.195312 219.261719 216.519531 221.585938 219.375 221.585938 C 224.171875 221.585938 228.070312 225.488281 228.070312 230.28125 C 228.070312 235.074219 224.171875 238.976562 219.375 238.976562 Z M 219.375 238.976562 " fill-opacity="1" fill-rule="evenodd"/><path fill="#707cfc" d="M 223.558594 160.722656 L 151.296875 160.722656 C 150.328125 160.722656 149.539062 159.9375 149.539062 158.964844 C 149.539062 157.996094 150.328125 157.210938 151.296875 157.210938 L 223.558594 157.210938 C 224.527344 157.210938 225.3125 157.996094 225.3125 158.964844 C 225.3125 159.9375 224.527344 160.722656 223.558594 160.722656 Z M 223.558594 160.722656 " fill-opacity="1" fill-rule="evenodd"/><path fill="#707cfc" d="M 223.558594 173.832031 L 151.296875 173.832031 C 150.328125 173.832031 149.539062 173.046875 149.539062 172.074219 C 149.539062 171.105469 150.328125 170.320312 151.296875 170.320312 L 223.558594 170.320312 C 224.527344 170.320312 225.3125 171.105469 225.3125 172.074219 C 225.3125 173.046875 224.527344 173.832031 223.558594 173.832031 Z M 223.558594 173.832031 " fill-opacity="1" fill-rule="evenodd"/><path fill="#707cfc" d="M 223.558594 186.945312 L 151.296875 186.945312 C 150.328125 186.945312 149.539062 186.15625 149.539062 185.1875 C 149.539062 184.214844 150.328125 183.429688 151.296875 183.429688 L 223.558594 183.429688 C 224.527344 183.429688 225.3125 184.214844 225.3125 185.1875 C 225.3125 186.15625 224.527344 186.945312 223.558594 186.945312 Z M 223.558594 186.945312 " fill-opacity="1" fill-rule="evenodd"/><path fill="#707cfc" d="M 191.792969 126.507812 L 148.347656 126.507812 C 147.378906 126.507812 146.59375 125.71875 146.59375 124.75 C 146.59375 123.78125 147.378906 122.996094 148.347656 122.996094 L 191.792969 122.996094 C 192.761719 122.996094 193.550781 123.78125 193.550781 124.75 C 193.550781 125.71875 192.761719 126.507812 191.792969 126.507812 Z M 191.792969 126.507812 " fill-opacity="1" fill-rule="evenodd"/><path fill="#707cfc" d="M 191.792969 138.703125 L 148.347656 138.703125 C 147.378906 138.703125 146.59375 137.914062 146.59375 136.945312 C 146.59375 135.976562 147.378906 135.191406 148.347656 135.191406 L 191.792969 135.191406 C 192.761719 135.191406 193.550781 135.976562 193.550781 136.945312 C 193.550781 137.914062 192.761719 138.703125 191.792969 138.703125 Z M 191.792969 138.703125 " fill-opacity="1" fill-rule="evenodd"/></svg>