<svg xmlns="http://www.w3.org/2000/svg" xmlns:xlink="http://www.w3.org/1999/xlink" width="500" zoomAndPan="magnify" viewBox="0 0 375 374.999991" height="500" preserveAspectRatio="xMidYMid meet" version="1.0"><defs><clipPath id="67ad06b3f1"><path d="M 112.5 112.5 L 262.5 112.5 L 262.5 262.5 L 112.5 262.5 Z M 112.5 112.5 " clip-rule="nonzero"/></clipPath></defs><g clip-path="url(#67ad06b3f1)"><path fill="#707cfc" d="M 257.5 255 C 257.5 256.375 256.375 257.5 255 257.5 L 170 257.5 C 168.621094 257.5 167.5 256.375 167.5 255 L 167.5 200 C 167.5 198.621094 168.621094 197.5 170 197.5 L 255 197.5 C 256.375 197.5 257.5 198.621094 257.5 200 Z M 117.5 225 L 117.5 202.792969 C 126.101562 208.808594 144.539062 211.953125 162.5 212.429688 L 162.5 237.402344 C 134.570312 236.640625 117.5 229.792969 117.5 225 Z M 117.5 170.242188 C 126.6875 176.667969 147.175781 180 167.5 180 C 187.820312 180 208.320312 176.667969 217.5 170.242188 L 217.5 192.5 L 170 192.5 C 165.859375 192.5 162.5 195.859375 162.5 200 L 162.5 207.410156 C 134.570312 206.648438 117.5 199.792969 117.5 195 Z M 117.5 137.742188 C 126.6875 144.167969 147.175781 147.5 167.5 147.5 C 187.820312 147.5 208.320312 144.167969 217.5 137.742188 L 217.5 162.5 C 217.5 167.597656 198.027344 175 167.5 175 C 136.980469 175 117.5 167.597656 117.5 162.5 Z M 167.5 117.5 C 198.027344 117.5 217.5 124.902344 217.5 130 C 217.5 135.097656 198.027344 142.5 167.5 142.5 C 136.980469 142.5 117.5 135.097656 117.5 130 C 117.5 124.902344 136.980469 117.5 167.5 117.5 Z M 255 192.5 L 222.5 192.5 L 222.5 130 C 222.5 118.515625 194.832031 112.5 167.5 112.5 C 140.164062 112.5 112.5 118.515625 112.5 130 L 112.5 225 C 112.5 235.664062 137.253906 241.738281 162.5 242.421875 L 162.5 255 C 162.5 259.140625 165.859375 262.5 170 262.5 L 255 262.5 C 259.140625 262.5 262.5 259.140625 262.5 255 L 262.5 200 C 262.5 195.859375 259.140625 192.5 255 192.5 " fill-opacity="1" fill-rule="nonzero"/></g><path fill="#707cfc" d="M 216.765625 235.730469 C 215.789062 234.753906 214.207031 234.753906 213.230469 235.730469 C 212.253906 236.707031 212.253906 238.289062 213.230469 239.265625 L 213.777344 239.8125 C 213.367188 239.921875 212.9375 240 212.5 240 C 209.746094 240 207.5 237.753906 207.5 235 L 207.5 220 C 207.5 217.246094 209.746094 215 212.5 215 C 215.253906 215 217.5 217.246094 217.5 220 L 217.5 235 C 217.5 235.4375 217.421875 235.867188 217.3125 236.277344 Z M 212.5 210 C 206.980469 210 202.5 214.480469 202.5 220 L 202.5 235 C 202.5 240.515625 206.980469 245 212.5 245 C 214.34375 245 216.0625 244.460938 217.546875 243.582031 L 218.230469 244.265625 C 218.71875 244.753906 219.355469 245 220 245 C 220.644531 245 221.277344 244.753906 221.765625 244.265625 C 222.742188 243.289062 222.742188 241.707031 221.765625 240.730469 L 221.082031 240.046875 C 221.960938 238.5625 222.5 236.84375 222.5 235 L 222.5 220 C 222.5 214.480469 218.015625 210 212.5 210 " fill-opacity="1" fill-rule="nonzero"/><path fill="#707cfc" d="M 187.5 215 C 190.253906 215 192.5 217.246094 192.5 220 C 192.5 221.375 193.621094 222.5 195 222.5 C 196.375 222.5 197.5 221.375 197.5 220 C 197.5 214.480469 193.015625 210 187.5 210 C 181.980469 210 177.5 214.480469 177.5 220 C 177.5 225.515625 181.980469 230 187.5 230 C 190.253906 230 192.5 232.246094 192.5 235 C 192.5 237.753906 190.253906 240 187.5 240 C 184.746094 240 182.5 237.753906 182.5 235 C 182.5 233.621094 181.375 232.5 180 232.5 C 178.621094 232.5 177.5 233.621094 177.5 235 C 177.5 240.515625 181.980469 245 187.5 245 C 193.015625 245 197.5 240.515625 197.5 235 C 197.5 229.480469 193.015625 225 187.5 225 C 184.746094 225 182.5 222.753906 182.5 220 C 182.5 217.246094 184.746094 215 187.5 215 " fill-opacity="1" fill-rule="nonzero"/><path fill="#707cfc" d="M 245 240 L 232.5 240 L 232.5 212.5 C 232.5 211.121094 231.375 210 230 210 C 228.621094 210 227.5 211.121094 227.5 212.5 L 227.5 242.5 C 227.5 243.875 228.621094 245 230 245 L 245 245 C 246.375 245 247.5 243.875 247.5 242.5 C 247.5 241.121094 246.375 240 245 240 " fill-opacity="1" fill-rule="nonzero"/></svg>