<svg xmlns="http://www.w3.org/2000/svg" xmlns:xlink="http://www.w3.org/1999/xlink" width="500" zoomAndPan="magnify" viewBox="0 0 375 374.999991" height="500" preserveAspectRatio="xMidYMid meet" version="1.0"><defs><clipPath id="7908c45818"><path d="M 112.5 142.40625 L 262.5 142.40625 L 262.5 232.40625 L 112.5 232.40625 Z M 112.5 142.40625 " clip-rule="nonzero"/></clipPath></defs><g clip-path="url(#7908c45818)"><path fill="#707cfc" d="M 187.503906 142.472656 C 167.476562 142.472656 155.023438 152.449219 150 172.476562 C 157.5 162.5 166.273438 158.75 176.25 161.226562 C 181.953125 162.652344 186.078125 166.777344 190.578125 171.351562 C 197.929688 178.851562 206.253906 187.476562 225.003906 187.476562 C 245.03125 187.476562 257.484375 177.503906 262.507812 157.476562 C 255.007812 167.453125 246.230469 171.203125 236.257812 168.726562 C 230.554688 167.300781 226.503906 163.175781 221.929688 158.601562 C 214.578125 151.101562 206.253906 142.472656 187.503906 142.472656 Z M 150 187.476562 C 129.972656 187.476562 117.519531 197.453125 112.496094 217.480469 C 119.996094 207.503906 128.773438 203.753906 138.746094 206.230469 C 144.449219 207.65625 148.5 211.78125 153.074219 216.355469 C 160.425781 223.855469 168.75 232.480469 187.503906 232.480469 C 207.527344 232.480469 219.980469 222.507812 225.003906 202.480469 C 217.503906 212.457031 208.730469 216.207031 198.753906 213.730469 C 193.050781 212.304688 189.003906 208.179688 184.425781 203.605469 C 177.078125 196.105469 168.75 187.476562 150 187.476562 Z M 150 187.476562 " fill-opacity="1" fill-rule="nonzero"/></g></svg>