<svg xmlns="http://www.w3.org/2000/svg" xmlns:xlink="http://www.w3.org/1999/xlink" width="500" zoomAndPan="magnify" viewBox="0 0 375 374.999991" height="500" preserveAspectRatio="xMidYMid meet" version="1.0"><defs><clipPath id="1e509ba576"><path d="M 121.3125 112.5 L 254 112.5 L 254 262.5 L 121.3125 262.5 Z M 121.3125 112.5 " clip-rule="nonzero"/></clipPath></defs><g clip-path="url(#1e509ba576)"><path fill="#707cfc" d="M 140.664062 259.226562 C 140.664062 259.648438 140.746094 260.058594 140.910156 260.449219 C 141.070312 260.84375 141.300781 261.1875 141.601562 261.488281 C 141.902344 261.789062 142.25 262.019531 142.640625 262.183594 C 143.03125 262.347656 143.441406 262.425781 143.867188 262.425781 L 250.421875 262.425781 C 250.847656 262.425781 251.253906 262.347656 251.648438 262.183594 C 252.039062 262.019531 252.386719 261.789062 252.6875 261.488281 C 252.984375 261.1875 253.21875 260.84375 253.378906 260.449219 C 253.542969 260.058594 253.625 259.648438 253.625 259.226562 L 253.625 139.558594 C 253.625 138.679688 253.316406 137.929688 252.695312 137.304688 L 229.101562 113.675781 C 228.476562 113.046875 227.71875 112.730469 226.828125 112.734375 L 143.867188 112.734375 C 143.441406 112.734375 143.03125 112.8125 142.640625 112.976562 C 142.25 113.140625 141.902344 113.371094 141.601562 113.671875 C 141.300781 113.972656 141.070312 114.316406 140.910156 114.710938 C 140.746094 115.101562 140.664062 115.507812 140.664062 115.933594 L 140.664062 138.839844 L 124.433594 138.839844 C 124.007812 138.839844 123.601562 138.921875 123.207031 139.082031 C 122.816406 139.246094 122.46875 139.476562 122.171875 139.777344 C 121.871094 140.078125 121.636719 140.421875 121.476562 140.816406 C 121.3125 141.207031 121.234375 141.617188 121.234375 142.042969 L 121.234375 182.058594 C 121.234375 182.480469 121.3125 182.890625 121.476562 183.28125 C 121.636719 183.675781 121.871094 184.019531 122.171875 184.320312 C 122.46875 184.621094 122.816406 184.851562 123.207031 185.015625 C 123.601562 185.179688 124.007812 185.257812 124.433594 185.257812 L 140.679688 185.257812 C 140.679688 185.339844 140.679688 185.402344 140.679688 185.5 Z M 245.203125 138.839844 L 227.164062 138.839844 L 227.164062 120.800781 Z M 127.636719 145.242188 L 203.84375 145.242188 L 203.84375 178.855469 L 127.636719 178.855469 Z M 207.042969 185.257812 C 207.46875 185.257812 207.878906 185.179688 208.269531 185.015625 C 208.660156 184.851562 209.007812 184.621094 209.308594 184.320312 C 209.609375 184.019531 209.839844 183.675781 210 183.28125 C 210.164062 182.890625 210.246094 182.480469 210.246094 182.058594 L 210.246094 142.042969 C 210.246094 141.617188 210.164062 141.207031 210 140.816406 C 209.839844 140.421875 209.609375 140.078125 209.308594 139.777344 C 209.007812 139.476562 208.660156 139.246094 208.269531 139.082031 C 207.878906 138.921875 207.46875 138.839844 207.042969 138.839844 L 147.066406 138.839844 L 147.066406 119.136719 L 220.699219 119.136719 L 220.699219 142.042969 C 220.699219 142.464844 220.777344 142.875 220.941406 143.265625 C 221.105469 143.660156 221.335938 144.003906 221.636719 144.304688 C 221.9375 144.605469 222.28125 144.835938 222.675781 145 C 223.066406 145.160156 223.472656 145.242188 223.898438 145.242188 L 247.222656 145.242188 L 247.222656 256.023438 L 147.066406 256.023438 L 147.066406 185.433594 C 147.074219 185.355469 147.074219 185.273438 147.066406 185.195312 Z M 207.042969 185.257812 " fill-opacity="1" fill-rule="nonzero"/></g><path fill="#707cfc" d="M 165.796875 147.644531 L 147.433594 147.273438 C 147.011719 147.273438 146.601562 147.355469 146.210938 147.519531 C 145.816406 147.679688 145.472656 147.914062 145.171875 148.214844 C 144.871094 148.511719 144.640625 148.859375 144.476562 149.25 C 144.316406 149.644531 144.234375 150.050781 144.234375 150.476562 C 144.234375 150.902344 144.316406 151.308594 144.476562 151.703125 C 144.640625 152.09375 144.871094 152.441406 145.171875 152.742188 C 145.472656 153.039062 145.816406 153.273438 146.210938 153.433594 C 146.601562 153.597656 147.011719 153.679688 147.433594 153.679688 L 153.519531 153.789062 L 153.839844 174.773438 C 153.839844 175.199219 153.917969 175.609375 154.082031 176 C 154.246094 176.390625 154.476562 176.738281 154.777344 177.039062 C 155.074219 177.339844 155.421875 177.570312 155.8125 177.730469 C 156.207031 177.894531 156.613281 177.976562 157.039062 177.976562 L 157.167969 177.976562 C 157.585938 177.964844 157.984375 177.875 158.367188 177.710938 C 158.75 177.542969 159.089844 177.308594 159.378906 177.011719 C 159.671875 176.710938 159.894531 176.367188 160.054688 175.980469 C 160.210938 175.59375 160.289062 175.191406 160.289062 174.773438 L 159.855469 153.964844 L 165.730469 154.09375 C 166.15625 154.09375 166.5625 154.011719 166.957031 153.851562 C 167.347656 153.6875 167.695312 153.457031 167.996094 153.15625 C 168.292969 152.855469 168.527344 152.511719 168.6875 152.117188 C 168.851562 151.726562 168.933594 151.316406 168.933594 150.894531 C 168.933594 150.46875 168.851562 150.058594 168.6875 149.667969 C 168.527344 149.277344 168.292969 148.929688 167.996094 148.628906 C 167.695312 148.328125 167.347656 148.097656 166.957031 147.933594 C 166.5625 147.773438 166.15625 147.691406 165.730469 147.691406 Z M 165.796875 147.644531 " fill-opacity="1" fill-rule="nonzero"/><path fill="#707cfc" d="M 178.375 152.878906 C 178.769531 152.878906 179.148438 152.953125 179.507812 153.101562 C 179.871094 153.253906 180.191406 153.46875 180.46875 153.746094 C 180.746094 154.023438 180.960938 154.34375 181.113281 154.707031 C 181.261719 155.070312 181.335938 155.445312 181.335938 155.839844 C 181.335938 156.261719 181.417969 156.671875 181.582031 157.0625 C 181.742188 157.457031 181.976562 157.800781 182.273438 158.101562 C 182.574219 158.402344 182.921875 158.632812 183.3125 158.796875 C 183.707031 158.957031 184.113281 159.039062 184.539062 159.039062 C 184.964844 159.039062 185.371094 158.957031 185.765625 158.796875 C 186.15625 158.632812 186.503906 158.402344 186.800781 158.101562 C 187.101562 157.800781 187.332031 157.457031 187.496094 157.0625 C 187.660156 156.671875 187.738281 156.261719 187.738281 155.839844 C 187.742188 155.222656 187.683594 154.613281 187.566406 154.011719 C 187.449219 153.40625 187.273438 152.820312 187.039062 152.25 C 186.804688 151.679688 186.519531 151.140625 186.175781 150.628906 C 185.835938 150.113281 185.449219 149.640625 185.015625 149.203125 C 184.582031 148.769531 184.109375 148.378906 183.601562 148.035156 C 183.089844 147.691406 182.550781 147.402344 181.980469 147.164062 C 181.414062 146.929688 180.828125 146.75 180.226562 146.628906 C 179.621094 146.503906 179.011719 146.445312 178.398438 146.441406 C 177.78125 146.441406 177.171875 146.5 176.570312 146.617188 C 175.964844 146.738281 175.378906 146.914062 174.808594 147.148438 C 174.242188 147.382812 173.699219 147.671875 173.1875 148.011719 C 172.675781 148.351562 172.203125 148.738281 171.765625 149.175781 C 171.332031 149.609375 170.941406 150.082031 170.597656 150.59375 C 170.257812 151.101562 169.964844 151.644531 169.730469 152.210938 C 169.492188 152.777344 169.316406 153.363281 169.195312 153.96875 C 169.074219 154.570312 169.011719 155.179688 169.011719 155.796875 C 169.011719 156.410156 169.070312 157.019531 169.191406 157.625 C 169.308594 158.226562 169.488281 158.8125 169.722656 159.382812 C 169.957031 159.953125 170.246094 160.492188 170.585938 161.003906 C 170.929688 161.515625 171.316406 161.988281 171.75 162.425781 C 172.1875 162.859375 172.660156 163.25 173.171875 163.589844 C 173.683594 163.933594 174.222656 164.222656 174.789062 164.457031 C 175.359375 164.691406 175.945312 164.871094 176.546875 164.992188 C 177.152344 165.109375 177.761719 165.171875 178.375 165.171875 C 178.769531 165.171875 179.148438 165.246094 179.507812 165.394531 C 179.871094 165.546875 180.191406 165.761719 180.46875 166.039062 C 180.746094 166.316406 180.960938 166.636719 181.113281 167 C 181.261719 167.363281 181.335938 167.738281 181.335938 168.132812 C 181.335938 168.523438 181.261719 168.902344 181.113281 169.265625 C 180.960938 169.628906 180.746094 169.949219 180.46875 170.226562 C 180.191406 170.503906 179.871094 170.71875 179.507812 170.867188 C 179.148438 171.019531 178.769531 171.09375 178.375 171.09375 C 177.984375 171.09375 177.605469 171.019531 177.242188 170.867188 C 176.878906 170.71875 176.558594 170.503906 176.28125 170.226562 C 176.003906 169.949219 175.789062 169.628906 175.640625 169.265625 C 175.488281 168.902344 175.414062 168.523438 175.414062 168.132812 C 175.414062 167.707031 175.332031 167.300781 175.171875 166.90625 C 175.007812 166.515625 174.777344 166.167969 174.476562 165.867188 C 174.175781 165.566406 173.832031 165.335938 173.4375 165.175781 C 173.046875 165.011719 172.636719 164.929688 172.214844 164.929688 C 171.789062 164.929688 171.378906 165.011719 170.988281 165.175781 C 170.597656 165.335938 170.25 165.566406 169.949219 165.867188 C 169.648438 166.167969 169.417969 166.515625 169.257812 166.90625 C 169.09375 167.300781 169.011719 167.707031 169.011719 168.132812 C 169.011719 168.746094 169.074219 169.355469 169.191406 169.957031 C 169.3125 170.5625 169.488281 171.148438 169.726562 171.714844 C 169.960938 172.285156 170.25 172.824219 170.589844 173.335938 C 170.933594 173.84375 171.320312 174.320312 171.753906 174.753906 C 172.191406 175.1875 172.664062 175.574219 173.175781 175.917969 C 173.683594 176.257812 174.226562 176.546875 174.792969 176.78125 C 175.359375 177.019531 175.945312 177.195312 176.550781 177.316406 C 177.152344 177.4375 177.761719 177.496094 178.375 177.496094 C 178.992188 177.496094 179.601562 177.4375 180.203125 177.316406 C 180.804688 177.195312 181.390625 177.019531 181.960938 176.78125 C 182.527344 176.546875 183.066406 176.257812 183.578125 175.917969 C 184.089844 175.574219 184.5625 175.1875 184.996094 174.753906 C 185.433594 174.320312 185.820312 173.84375 186.160156 173.335938 C 186.503906 172.824219 186.792969 172.285156 187.027344 171.714844 C 187.261719 171.148438 187.441406 170.5625 187.558594 169.957031 C 187.679688 169.355469 187.738281 168.746094 187.738281 168.132812 C 187.738281 167.515625 187.679688 166.90625 187.558594 166.304688 C 187.441406 165.703125 187.261719 165.117188 187.027344 164.546875 C 186.792969 163.980469 186.503906 163.441406 186.160156 162.929688 C 185.820312 162.417969 185.433594 161.945312 184.996094 161.511719 C 184.5625 161.074219 184.089844 160.6875 183.578125 160.347656 C 183.066406 160.003906 182.527344 159.714844 181.960938 159.480469 C 181.390625 159.246094 180.804688 159.066406 180.203125 158.949219 C 179.601562 158.828125 178.992188 158.769531 178.375 158.769531 C 178 158.742188 177.644531 158.644531 177.304688 158.484375 C 176.964844 158.320312 176.667969 158.101562 176.414062 157.824219 C 176.15625 157.550781 175.960938 157.238281 175.824219 156.886719 C 175.6875 156.539062 175.617188 156.175781 175.617188 155.796875 C 175.617188 155.421875 175.6875 155.058594 175.824219 154.710938 C 175.960938 154.359375 176.15625 154.046875 176.414062 153.773438 C 176.667969 153.496094 176.964844 153.277344 177.304688 153.113281 C 177.644531 152.953125 178 152.855469 178.375 152.828125 Z M 178.375 152.878906 " fill-opacity="1" fill-rule="nonzero"/></svg>