<svg xmlns="http://www.w3.org/2000/svg" xmlns:xlink="http://www.w3.org/1999/xlink" width="500" zoomAndPan="magnify" viewBox="0 0 375 374.999991" height="500" preserveAspectRatio="xMidYMid meet" version="1.0"><defs><clipPath id="4b91260449"><path d="M 77 312 L 298 312 L 298 351 L 77 351 Z M 77 312 " clip-rule="nonzero"/></clipPath></defs><path fill="#707cfc" d="M 182.171875 168.132812 C 181.679688 168.132812 181.1875 168.046875 180.695312 167.867188 C 178.5 167.054688 177.378906 164.609375 178.191406 162.414062 L 218.222656 54.453125 C 219.035156 52.253906 221.46875 51.136719 223.675781 51.949219 C 225.875 52.765625 226.992188 55.207031 226.179688 57.40625 L 186.152344 165.367188 C 185.523438 167.070312 183.902344 168.132812 182.171875 168.132812 Z M 182.171875 168.132812 " fill-opacity="1" fill-rule="nonzero"/><path fill="#707cfc" d="M 86.980469 148 C 73.160156 148 61.917969 137.34375 61.917969 124.25 L 61.917969 76.554688 C 61.917969 74.210938 63.816406 72.3125 66.160156 72.3125 C 68.5 72.3125 70.402344 74.210938 70.402344 76.554688 L 70.402344 124.25 C 70.402344 132.667969 77.832031 139.515625 86.980469 139.515625 C 96.125 139.515625 103.558594 132.667969 103.558594 124.25 L 103.558594 76.554688 C 103.558594 74.210938 105.457031 72.3125 107.800781 72.3125 C 110.140625 72.3125 112.042969 74.210938 112.042969 76.554688 L 112.042969 124.25 C 112.042969 137.34375 100.800781 148 86.980469 148 Z M 86.980469 148 " fill-opacity="1" fill-rule="nonzero"/><path fill="#707cfc" d="M 127.914062 148 C 127.238281 148 126.550781 147.835938 125.90625 147.488281 C 123.84375 146.378906 123.070312 143.808594 124.183594 141.746094 L 160.648438 74.058594 C 161.757812 71.996094 164.328125 71.226562 166.390625 72.335938 C 168.453125 73.449219 169.226562 76.019531 168.113281 78.082031 L 131.648438 145.765625 C 130.894531 147.183594 129.425781 148 127.914062 148 Z M 127.914062 148 " fill-opacity="1" fill-rule="nonzero"/><path fill="#707cfc" d="M 164.390625 148 C 162.878906 148 161.417969 147.191406 160.648438 145.765625 L 124.183594 78.082031 C 123.070312 76.019531 123.84375 73.449219 125.90625 72.335938 C 127.964844 71.226562 130.539062 71.996094 131.648438 74.058594 L 168.113281 141.746094 C 169.226562 143.808594 168.453125 146.378906 166.390625 147.488281 C 165.753906 147.828125 165.066406 148 164.390625 148 Z M 164.390625 148 " fill-opacity="1" fill-rule="nonzero"/><path fill="#707cfc" d="M 260.8125 148 C 246.992188 148 235.75 137.34375 235.75 124.25 L 235.75 76.554688 C 235.75 74.210938 237.648438 72.3125 239.992188 72.3125 C 242.332031 72.3125 244.234375 74.210938 244.234375 76.554688 L 244.234375 124.25 C 244.234375 132.667969 251.664062 139.515625 260.8125 139.515625 C 269.957031 139.515625 277.390625 132.667969 277.390625 124.25 L 277.390625 76.554688 C 277.390625 74.210938 279.289062 72.3125 281.632812 72.3125 C 283.972656 72.3125 285.875 74.210938 285.875 76.554688 L 285.875 124.25 C 285.867188 137.34375 274.625 148 260.8125 148 Z M 260.8125 148 " fill-opacity="1" fill-rule="nonzero"/><path fill="#707cfc" d="M 308.765625 152.597656 C 306.421875 152.597656 304.523438 150.695312 304.523438 148.355469 L 304.496094 71.472656 C 304.496094 69.128906 306.398438 67.230469 308.738281 67.230469 C 311.082031 67.230469 312.980469 69.128906 312.980469 71.472656 L 313.007812 148.355469 C 313.015625 150.695312 311.113281 152.589844 308.765625 152.597656 C 308.773438 152.597656 308.765625 152.597656 308.765625 152.597656 Z M 308.765625 152.597656 " fill-opacity="1" fill-rule="nonzero"/><path fill="#707cfc" d="M 146.546875 260.507812 C 138.808594 260.507812 132.515625 254.210938 132.515625 246.472656 C 132.515625 238.738281 138.808594 232.441406 146.546875 232.441406 C 154.285156 232.441406 160.578125 238.738281 160.578125 246.472656 C 160.578125 254.210938 154.285156 260.507812 146.546875 260.507812 Z M 146.546875 240.925781 C 143.484375 240.925781 141 243.410156 141 246.472656 C 141 249.539062 143.484375 252.023438 146.546875 252.023438 C 149.609375 252.023438 152.09375 249.539062 152.09375 246.472656 C 152.09375 243.410156 149.609375 240.925781 146.546875 240.925781 Z M 146.546875 240.925781 " fill-opacity="1" fill-rule="nonzero"/><path fill="#707cfc" d="M 187.464844 260.507812 C 179.726562 260.507812 173.433594 254.210938 173.433594 246.472656 C 173.433594 238.738281 179.726562 232.441406 187.464844 232.441406 C 195.203125 232.441406 201.5 238.738281 201.5 246.472656 C 201.5 254.210938 195.203125 260.507812 187.464844 260.507812 Z M 187.464844 240.925781 C 184.402344 240.925781 181.917969 243.410156 181.917969 246.472656 C 181.917969 249.539062 184.402344 252.023438 187.464844 252.023438 C 190.527344 252.023438 193.015625 249.539062 193.015625 246.472656 C 193.015625 243.410156 190.527344 240.925781 187.464844 240.925781 Z M 187.464844 240.925781 " fill-opacity="1" fill-rule="nonzero"/><path fill="#707cfc" d="M 228.386719 260.507812 C 220.648438 260.507812 214.351562 254.210938 214.351562 246.472656 C 214.351562 238.738281 220.648438 232.441406 228.386719 232.441406 C 236.121094 232.441406 242.417969 238.738281 242.417969 246.472656 C 242.417969 254.210938 236.121094 260.507812 228.386719 260.507812 Z M 228.386719 240.925781 C 225.324219 240.925781 222.835938 243.410156 222.835938 246.472656 C 222.835938 249.539062 225.324219 252.023438 228.386719 252.023438 C 231.449219 252.023438 233.933594 249.539062 233.933594 246.472656 C 233.933594 243.410156 231.449219 240.925781 228.386719 240.925781 Z M 228.386719 240.925781 " fill-opacity="1" fill-rule="nonzero"/><path fill="#707cfc" d="M 348.632812 281.742188 L 26.300781 281.742188 C 11.785156 281.742188 -0.0351562 269.933594 -0.0351562 255.410156 L -0.0351562 26.464844 C -0.0351562 11.945312 11.777344 0.128906 26.300781 0.128906 L 348.632812 0.128906 C 363.15625 0.128906 374.964844 11.9375 374.964844 26.464844 L 374.964844 255.410156 C 374.964844 269.933594 363.15625 281.742188 348.632812 281.742188 Z M 26.300781 8.613281 C 16.460938 8.613281 8.449219 16.621094 8.449219 26.464844 L 8.449219 255.410156 C 8.449219 265.25 16.460938 273.257812 26.300781 273.257812 L 348.632812 273.257812 C 358.472656 273.257812 366.480469 265.25 366.480469 255.410156 L 366.480469 26.464844 C 366.480469 16.621094 358.472656 8.613281 348.632812 8.613281 Z M 26.300781 8.613281 " fill-opacity="1" fill-rule="nonzero"/><path fill="#707cfc" d="M 370.722656 219.691406 L 4.207031 219.691406 C 1.867188 219.691406 -0.0351562 217.789062 -0.0351562 215.449219 C -0.0351562 213.105469 1.867188 211.207031 4.207031 211.207031 L 370.722656 211.207031 C 373.066406 211.207031 374.964844 213.105469 374.964844 215.449219 C 374.964844 217.789062 373.066406 219.691406 370.722656 219.691406 Z M 370.722656 219.691406 " fill-opacity="1" fill-rule="nonzero"/><path fill="#707cfc" d="M 255.246094 320.90625 C 252.90625 320.90625 251.003906 319.003906 251.003906 316.664062 L 251.003906 277.5 C 251.003906 275.160156 252.90625 273.257812 255.246094 273.257812 C 257.585938 273.257812 259.488281 275.160156 259.488281 277.5 L 259.488281 316.664062 C 259.488281 319.003906 257.585938 320.90625 255.246094 320.90625 Z M 121.695312 320.90625 C 119.355469 320.90625 117.453125 319.003906 117.453125 316.664062 L 117.453125 277.5 C 117.453125 275.160156 119.355469 273.257812 121.695312 273.257812 C 124.039062 273.257812 125.9375 275.160156 125.9375 277.5 L 125.9375 316.664062 C 125.9375 319.003906 124.039062 320.90625 121.695312 320.90625 Z M 121.695312 320.90625 " fill-opacity="1" fill-rule="nonzero"/><g clip-path="url(#4b91260449)"><path fill="#707cfc" d="M 278.339844 351.035156 L 96.59375 351.035156 C 85.945312 351.035156 77.289062 342.371094 77.289062 331.730469 C 77.289062 321.085938 85.953125 312.429688 96.59375 312.429688 L 278.339844 312.429688 C 288.988281 312.429688 297.640625 321.09375 297.640625 331.730469 C 297.648438 342.371094 288.988281 351.035156 278.339844 351.035156 Z M 96.59375 320.90625 C 90.628906 320.90625 85.773438 325.757812 85.773438 331.722656 C 85.773438 337.6875 90.628906 342.539062 96.59375 342.539062 L 278.339844 342.539062 C 284.304688 342.539062 289.15625 337.6875 289.15625 331.722656 C 289.15625 325.757812 284.304688 320.90625 278.339844 320.90625 Z M 96.59375 320.90625 " fill-opacity="1" fill-rule="nonzero"/></g></svg>