<svg xmlns="http://www.w3.org/2000/svg" xmlns:xlink="http://www.w3.org/1999/xlink" width="500" zoomAndPan="magnify" viewBox="0 0 375 374.999991" height="500" preserveAspectRatio="xMidYMid meet" version="1.0"><defs><clipPath id="41afa0994c"><path d="M 4 71.675781 L 323 71.675781 L 323 281 L 4 281 Z M 4 71.675781 " clip-rule="nonzero"/></clipPath><clipPath id="84b235e7a7"><path d="M 53 71.675781 L 372 71.675781 L 372 281 L 53 281 Z M 53 71.675781 " clip-rule="nonzero"/></clipPath><clipPath id="033ecba18e"><path d="M 169 259 L 207 259 L 207 303.425781 L 169 303.425781 Z M 169 259 " clip-rule="nonzero"/></clipPath></defs><g clip-path="url(#41afa0994c)"><path fill="#3a81f2" d="M 13.445312 72.101562 C 40.277344 71.738281 67.132812 72.207031 93.988281 72.015625 C 109.34375 71.652344 125.128906 73.339844 139.164062 79.929688 C 154.84375 86.476562 168.003906 97.785156 178.988281 110.582031 C 194.941406 126.8125 209.210938 144.667969 225.847656 160.238281 C 232.804688 142.105469 248.542969 125.683594 268.851562 124.445312 C 293.613281 121.714844 316.609375 141.765625 321.023438 165.507812 C 327.0625 191.59375 310.167969 221.390625 283.527344 227.257812 C 267.316406 230.96875 249.761719 225.445312 238.476562 213.285156 C 209.722656 182.292969 180.992188 151.277344 152.347656 120.222656 C 137.777344 105.695312 116.789062 97.335938 96.164062 99.808594 C 73.617188 101.34375 53.160156 115.53125 41.6875 134.664062 C 22.46875 165.675781 27.84375 209.957031 55.210938 234.464844 C 77.050781 255.753906 113.589844 259.636719 139.207031 242.914062 C 146.5 239.007812 151.386719 231.949219 158.191406 227.511719 C 164.804688 232.886719 170.09375 239.714844 174.957031 246.644531 C 158.277344 265.480469 134.492188 278.703125 109.132812 280.199219 C 82.019531 282.394531 54.335938 271.472656 36.160156 251.210938 C 19.117188 235.105469 7.941406 212.773438 5.574219 189.417969 C 1.671875 161.878906 9.863281 133.253906 26.5625 111.15625 C 27.96875 108.640625 31.640625 105.804688 28.953125 102.839844 C 22.871094 94.390625 16.21875 86.328125 9.625 78.265625 C 10.90625 76.199219 12.164062 74.148438 13.445312 72.101562 M 267.570312 152.046875 C 247.328125 156.527344 243.339844 186.816406 260.46875 197.585938 C 274.011719 207.503906 294.789062 196.945312 296.152344 180.585938 C 299.652344 164.589844 283.996094 147.226562 267.570312 152.046875 Z M 267.570312 152.046875 " fill-opacity="1" fill-rule="nonzero"/></g><g clip-path="url(#84b235e7a7)"><path fill="#3a81f2" d="M 200.871094 106.144531 C 218.257812 84.792969 245.578125 72.292969 273.03125 72.015625 C 305.28125 72.082031 337.554688 71.71875 369.804688 72.378906 C 362.808594 83.707031 352.914062 92.921875 345.851562 104.203125 C 345.296875 107.488281 348.390625 109.878906 349.839844 112.523438 C 367.394531 135.859375 374.777344 166.699219 369.273438 195.390625 C 364.601562 223.671875 347.75 249.78125 323.734375 265.5 C 306.753906 275.996094 286.640625 282.117188 266.570312 280.21875 C 241.355469 278.640625 217.59375 265.585938 201.128906 246.6875 C 188.308594 232.3125 174.445312 218.9375 161.796875 204.414062 C 158.105469 200.125 154.179688 196.050781 149.785156 192.488281 C 145.050781 204.261719 137.691406 215.695312 126.238281 221.859375 C 112.375 230.199219 93.988281 230.519531 79.910156 222.5 C 62.886719 213.199219 53.011719 193.535156 53.671875 174.421875 C 54.484375 148.1875 77.457031 122.738281 104.695312 124.488281 C 120.542969 124.273438 133.574219 134.875 143.621094 146.03125 C 169.773438 174.613281 196.007812 203.109375 222.542969 231.351562 C 233.847656 243.765625 249.910156 251.445312 266.570312 253.109375 C 288.15625 254.964844 310.421875 246.390625 324.800781 230.113281 C 349.285156 204.21875 352.101562 161.496094 332.414062 132.039062 C 321.238281 114.847656 302.511719 102.132812 281.925781 99.9375 C 263.753906 97.589844 244.597656 102.667969 230.351562 114.269531 C 226.019531 117.855469 221.945312 121.738281 217.746094 125.449219 C 212.089844 119.199219 203.964844 114.035156 200.871094 106.144531 M 97.078125 152.027344 C 91.214844 153.773438 85.839844 157.527344 82.832031 162.925781 C 75.195312 175.210938 79.910156 194.324219 93.988281 199.613281 C 106.957031 205.714844 123.167969 196.007812 125.492188 182.207031 C 130.398438 165.785156 114.164062 147.011719 97.078125 152.027344 Z M 97.078125 152.027344 " fill-opacity="1" fill-rule="nonzero"/></g><g clip-path="url(#033ecba18e)"><path fill="#3a81f2" d="M 169.027344 279.003906 C 175.125 272.347656 181.164062 265.609375 187.859375 259.527344 C 194.601562 265.714844 200.550781 272.691406 206.714844 279.429688 C 201.0625 287.855469 194.664062 295.726562 187.925781 303.296875 C 181.097656 295.621094 174.53125 287.683594 169.027344 279.003906 Z M 169.027344 279.003906 " fill-opacity="1" fill-rule="nonzero"/></g></svg>